<svg xmlns="http://www.w3.org/2000/svg" shape-rendering="crispEdges" viewBox="0 -0.5 48 32" width="48" height="32"><path stroke="#ffffff" d="M0,0h48M0,1h48M0,2h48M0,3h48M0,4h4M44,4h4M0,5h4M44,5h4M0,6h4M44,6h4M0,7h4M44,7h4M0,8h4M44,8h4M0,9h4M11,9h6M33,9h2M44,9h4M0,10h4M9,10h10M28,10h2M32,10h4M38,10h2M44,10h4M0,11h4M8,11h1M11,11h9M28,11h1M39,11h1M44,11h4M0,12h4M7,12h1M14,12h6M31,12h6M44,12h4M0,13h4M15,13h6M30,13h8M44,13h4M0,14h4M16,14h5M28,14h1M30,14h8M39,14h1M44,14h4M0,15h4M16,15h5M27,15h2M30,15h8M39,15h2M44,15h4M0,16h4M16,16h5M27,16h2M30,16h8M39,16h2M44,16h4M0,17h4M16,17h5M28,17h1M30,17h8M39,17h1M44,17h4M0,18h4M15,18h6M30,18h8M44,18h4M0,19h4M7,19h1M13,19h7M31,19h6M44,19h4M0,20h4M8,20h1M11,20h9M28,20h1M39,20h1M44,20h4M0,21h4M9,21h10M28,21h2M32,21h4M38,21h2M44,21h4M0,22h4M11,22h6M33,22h2M44,22h4M0,23h4M44,23h4M0,24h4M44,24h4M0,25h4M44,25h4M0,26h4M44,26h4M0,27h4M44,27h4M0,28h48M0,29h48M0,30h48M0,31h48"/></svg>
