<svg xmlns="http://www.w3.org/2000/svg" shape-rendering="crispEdges" viewBox="0 -0.5 32 32" width="32" height="32"><path stroke="#323232" d="M0,0h32M0,1h32M0,2h2M30,2h2M0,3h2M30,3h2M0,4h2M13,4h6M30,4h2M0,5h2M11,5h10M30,5h2M0,6h2M10,6h12M30,6h2M0,7h2M10,7h12M30,7h2M0,8h2M9,8h14M30,8h2M0,9h2M9,9h14M30,9h2M0,10h2M9,10h14M30,10h2M0,11h2M9,11h14M30,11h2M0,12h2M9,12h14M30,12h2M0,13h2M9,13h14M30,13h2M0,14h2M10,14h12M30,14h2M0,15h2M10,15h12M30,15h2M0,16h2M11,16h10M30,16h2M0,17h2M13,17h6M30,17h2M0,18h2M11,18h10M30,18h2M0,19h2M10,19h12M30,19h2M0,20h2M9,20h14M30,20h2M0,21h2M8,21h16M30,21h2M0,22h2M8,22h16M30,22h2M0,23h2M7,23h18M30,23h2M0,24h2M7,24h18M30,24h2M0,25h2M6,25h20M30,25h2M0,26h2M6,26h20M30,26h2M0,27h2M6,27h20M30,27h2M0,28h2M6,28h20M30,28h2M0,29h2M6,29h20M30,29h2M0,30h32M0,31h32"/></svg>
