<svg xmlns="http://www.w3.org/2000/svg" shape-rendering="crispEdges" viewBox="0 -0.5 32 32" width="32" height="32"><path stroke="#f5f5f5" d="M7,8h22M5,9h2M12,9h6M19,9h9M29,9h1M4,10h1M7,10h5M14,10h5M20,10h7M28,10h1M3,11h1M5,11h9M15,11h5M21,11h5M27,11h1M3,12h1M5,12h9M15,12h5M21,12h5M27,12h1M2,13h1M4,13h11M16,13h5M22,13h3M26,13h1M2,14h1M5,14h1M7,14h1M9,14h1M11,14h1M13,14h1M17,14h1M19,14h1M21,14h1M23,14h1M25,14h1M2,15h1M16,15h1M18,15h1M20,15h1M22,15h1M24,15h1M2,16h1M5,16h1M7,16h1M9,16h1M11,16h1M13,16h1M15,16h1M17,16h1M19,16h1M21,16h1M24,16h1M2,17h1M4,17h1M6,17h1M8,17h1M10,17h1M12,17h1M14,17h1M16,17h1M18,17h1M20,17h1M25,17h1M2,18h1M26,18h1M3,19h1M27,19h1M3,20h1M27,20h1M4,21h1M28,21h1M5,22h2M29,22h1M7,23h22"/><path stroke="#373737" d="M7,9h5M18,9h1M28,9h1M5,10h2M12,10h2M19,10h1M27,10h1M4,11h1M14,11h1M20,11h1M26,11h1M4,12h1M14,12h1M20,12h1M26,12h1M3,13h1M15,13h1M21,13h1M25,13h1M3,14h1M15,14h1M4,15h1M6,15h1M8,15h1M10,15h1M12,15h1M14,15h1M3,16h1M23,16h1M22,17h1M24,17h1"/><path stroke="#d8ccd0" d="M4,14h1M6,14h1M8,14h1M10,14h1M12,14h1M14,14h1M16,14h1M18,14h1M20,14h1M17,15h1M19,15h1M21,15h1M4,16h1M6,16h1M8,16h1M10,16h1M12,16h1M14,16h1M16,16h1M18,16h1M20,16h1M22,16h1M5,17h1M7,17h1M9,17h1M11,17h1M13,17h1M15,17h1M17,17h1M19,17h1M21,17h1M23,17h1M4,18h17M22,18h3M5,19h10M16,19h4M21,19h5M5,20h10M16,20h4M21,20h5M7,21h6M15,21h4M20,21h7M13,22h5M19,22h9"/><path stroke="#302e2f" d="M22,14h1M24,14h1M3,15h1M5,15h1M7,15h1M9,15h1M11,15h1M13,15h1M15,15h1M23,15h1M3,17h1M3,18h1M21,18h1M25,18h1M4,19h1M15,19h1M20,19h1M26,19h1M4,20h1M15,20h1M20,20h1M26,20h1M5,21h2M13,21h2M19,21h1M27,21h1M7,22h6M18,22h1M28,22h1"/></svg>
