<svg xmlns="http://www.w3.org/2000/svg" shape-rendering="crispEdges" viewBox="0 -0.5 32 32" width="32" height="32"><path stroke="#f5f5f5" d="M6,1h20M4,2h2M26,2h2M3,3h1M28,3h1M2,4h1M29,4h1M2,5h1M29,5h1M1,6h1M30,6h1M1,7h1M30,7h1M1,8h1M30,8h1M1,9h1M14,9h1M30,9h1M1,10h1M13,10h2M30,10h1M1,11h1M12,11h4M30,11h1M1,12h1M11,12h5M30,12h1M1,13h1M10,13h4M30,13h1M1,14h1M10,14h3M14,14h2M30,14h1M1,15h1M9,15h1M11,15h1M13,15h3M30,15h1M1,16h1M10,16h1M12,16h3M30,16h1M1,17h1M11,17h1M13,17h1M15,17h1M30,17h1M1,18h1M10,18h1M12,18h1M14,18h2M30,18h1M1,19h1M11,19h1M13,19h1M15,19h2M30,19h1M1,20h1M12,20h1M14,20h1M16,20h2M30,20h1M1,21h1M15,21h1M17,21h2M30,21h1M1,22h1M16,22h1M18,22h2M23,22h1M30,22h1M1,23h1M19,23h4M30,23h1M1,24h1M30,24h1M1,25h1M30,25h1M2,26h1M29,26h1M2,27h1M29,27h1M3,28h1M28,28h1M4,29h2M26,29h2M6,30h20"/><path stroke="#5fc8e7" d="M6,2h20M4,3h24M3,4h26M3,5h26M2,6h28M2,7h28M2,8h28M2,9h12M16,9h14M2,10h11M17,10h13M2,11h10M18,11h12M2,12h9M19,12h11M2,13h8M20,13h10M2,14h7M21,14h9M2,15h6M22,15h8M2,16h7M23,16h7M2,17h8M24,17h6M2,18h8M25,18h5M2,19h9M26,19h4M2,20h10M27,20h3M2,21h12M28,21h2M2,22h13M29,22h1M2,23h14M2,24h15M2,25h16M3,26h16M3,27h17M4,28h17M6,29h16"/><path stroke="#4885a1" d="M15,9h1M15,10h2M16,11h2M16,12h3M14,13h6M13,14h1M16,14h5M12,15h1M16,15h6M11,16h1M15,16h8M10,17h1M14,17h1M16,17h8M13,18h1M16,18h9M12,19h1M17,19h9M18,20h9M19,21h9M15,22h1M20,22h3M24,22h5M16,23h2M23,23h7M17,24h13M18,25h12M19,26h10M20,27h9M21,28h7M22,29h4"/><path stroke="#d8ccd0" d="M9,14h1M8,15h1M10,15h1M9,16h1M12,17h1M11,18h1M14,19h1M13,20h1M15,20h1M14,21h1M16,21h1M17,22h1M18,23h1"/></svg>
