<svg xmlns="http://www.w3.org/2000/svg" shape-rendering="crispEdges" viewBox="0 -0.5 32 32" width="32" height="32"><path stroke="#f5f5f5" d="M22,4h5M21,5h1M27,5h1M20,6h1M28,6h1M12,7h4M19,7h1M24,7h2M29,7h1M9,8h3M16,8h2M20,8h1M23,8h1M26,8h1M29,8h1M7,9h2M18,9h2M21,9h2M26,9h1M29,9h1M6,10h1M20,10h2M26,10h1M29,10h1M5,11h1M22,11h2M26,11h1M29,11h1M6,12h1M24,12h2M29,12h1M5,13h1M7,13h1M20,13h2M29,13h1M4,14h1M8,14h1M14,14h1M20,14h2M29,14h1M4,15h1M9,15h1M13,15h1M29,15h1M3,16h1M10,16h3M29,16h1M3,17h1M28,17h1M2,18h1M28,18h1M2,19h1M27,19h1M2,20h1M27,20h1M2,21h1M26,21h1M2,22h1M26,22h1M2,23h1M26,23h1M2,24h1M8,24h4M17,24h4M25,24h1M3,25h1M7,25h1M12,25h1M16,25h1M21,25h1M25,25h1M3,26h1M7,26h1M12,26h1M16,26h1M21,26h1M25,26h1M4,27h3M13,27h3M22,27h3"/><path stroke="#0a2222" d="M22,5h5M21,6h7M20,7h4M26,7h3M12,8h4M21,8h2M27,8h2M9,9h9M27,9h2M7,10h13M27,10h2M6,11h16M27,11h2M7,12h17M26,12h3M8,13h12M22,13h7M6,14h1M9,14h5M15,14h5M22,14h7M5,15h1M7,15h1M10,15h3M15,15h14M4,16h1M6,16h1M8,16h1M14,16h1M16,16h13M5,17h1M7,17h1M9,17h1M11,17h1M13,17h1M15,17h13M4,18h1M6,18h1M8,18h20M3,19h1M5,19h22M4,20h1M6,20h21M3,21h1M5,21h21M4,22h22M3,23h1M5,23h21M4,24h1M6,24h2M12,24h5M21,24h4M5,25h1M13,25h3M22,25h3M4,26h1M6,26h1M13,26h3M22,26h3"/><path stroke="#0d3535" d="M6,13h1M5,14h1M7,14h1M6,15h1M8,15h1M14,15h1M5,16h1M7,16h1M9,16h1M13,16h1M15,16h1M4,17h1M6,17h1M8,17h1M10,17h1M12,17h1M14,17h1M3,18h1M5,18h1M7,18h1M4,19h1M3,20h1M5,20h1M4,21h1M3,22h1M4,23h1M3,24h1M5,24h1M4,25h1M6,25h1M5,26h1"/></svg>
