<svg xmlns="http://www.w3.org/2000/svg" shape-rendering="crispEdges" viewBox="0 -0.5 32 32" width="32" height="32"><path stroke="#f5f5f5" d="M14,1h4M11,2h3M18,2h3M9,3h2M21,3h2M8,4h1M14,4h4M23,4h1M7,5h1M11,5h10M24,5h1M6,6h1M9,6h14M25,6h1M5,7h1M8,7h16M26,7h1M4,8h1M7,8h18M27,8h1M3,9h1M6,9h20M28,9h1M3,10h1M6,10h3M11,10h10M23,10h3M28,10h1M2,11h1M5,11h4M12,11h9M23,11h4M29,11h1M2,12h1M5,12h4M13,12h8M23,12h4M29,12h1M2,13h1M5,13h4M14,13h7M23,13h4M29,13h1M1,14h1M5,14h1M7,14h1M11,14h1M15,14h1M17,14h1M19,14h1M23,14h1M25,14h1M27,14h1M30,14h1M1,15h1M4,15h1M6,15h1M8,15h1M12,15h1M16,15h1M18,15h1M20,15h1M24,15h1M26,15h1M30,15h1M1,16h1M5,16h1M7,16h1M11,16h1M13,16h1M17,16h1M19,16h1M23,16h1M25,16h1M27,16h1M30,16h1M1,17h1M4,17h1M6,17h1M8,17h1M12,17h1M14,17h1M18,17h1M20,17h1M24,17h1M26,17h1M30,17h1M2,18h1M29,18h1M2,19h1M29,19h1M2,20h1M29,20h1M3,21h1M28,21h1M3,22h1M28,22h1M4,23h1M27,23h1M5,24h1M26,24h1M6,25h1M25,25h1M7,26h1M24,26h1M8,27h1M23,27h1M9,28h2M21,28h2M11,29h3M18,29h3M14,30h4"/><path stroke="#323232" d="M14,2h4M11,3h10M9,4h5M18,4h5M8,5h3M21,5h3M7,6h2M23,6h2M6,7h2M24,7h2M5,8h2M25,8h2M4,9h2M26,9h2M4,10h2M9,10h2M21,10h2M26,10h2M3,11h2M9,11h3M21,11h2M27,11h2M3,12h2M9,12h4M21,12h2M27,12h2M3,13h2M9,13h5M21,13h2M27,13h2M3,14h1M9,14h1M13,14h1M21,14h1M29,14h1M2,15h1M10,15h1M14,15h1M22,15h1M28,15h1M3,16h1M9,16h1M15,16h1M21,16h1M29,16h1M2,17h1M10,17h1M16,17h1M22,17h1M28,17h1"/><path stroke="#2c2a2a" d="M2,14h1M10,14h1M12,14h1M14,14h1M22,14h1M28,14h1M3,15h1M9,15h1M13,15h1M15,15h1M21,15h1M29,15h1M2,16h1M10,16h1M14,16h1M16,16h1M22,16h1M28,16h1M3,17h1M9,17h1M15,17h1M17,17h1M21,17h1M29,17h1M3,18h2M9,18h2M16,18h3M21,18h2M27,18h2M3,19h2M9,19h2M17,19h3M27,19h2M3,20h2M9,20h2M18,20h3M27,20h2M4,21h2M9,21h2M19,21h3M26,21h2M4,22h2M9,22h2M20,22h3M26,22h2M5,23h2M9,23h2M21,23h6M6,24h2M22,24h4M7,25h2M22,25h3M8,26h3M21,26h3M9,27h5M18,27h5M11,28h10M14,29h4"/><path stroke="#d8ccd0" d="M4,14h1M6,14h1M8,14h1M16,14h1M18,14h1M20,14h1M24,14h1M26,14h1M5,15h1M7,15h1M11,15h1M17,15h1M19,15h1M23,15h1M25,15h1M27,15h1M4,16h1M6,16h1M8,16h1M12,16h1M18,16h1M20,16h1M24,16h1M26,16h1M5,17h1M7,17h1M11,17h1M13,17h1M19,17h1M23,17h1M25,17h1M27,17h1M5,18h4M11,18h5M19,18h2M23,18h4M5,19h4M11,19h6M20,19h7M5,20h4M11,20h7M21,20h6M6,21h3M11,21h8M22,21h4M6,22h3M11,22h9M23,22h3M7,23h2M11,23h10M8,24h14M9,25h13M11,26h10M14,27h4"/></svg>
