<svg xmlns="http://www.w3.org/2000/svg" shape-rendering="crispEdges" viewBox="0 -0.5 32 32" width="32" height="32"><path stroke="#f5f5f5" d="M12,1h8M9,2h3M20,2h3M8,3h1M23,3h1M6,4h2M13,4h6M24,4h2M5,5h1M10,5h12M26,5h1M4,6h1M9,6h14M27,6h1M4,7h1M8,7h16M27,7h1M3,8h1M7,8h18M28,8h1M2,9h1M6,9h20M29,9h1M2,10h1M5,10h4M11,10h10M23,10h4M29,10h1M2,11h1M5,11h4M12,11h9M23,11h4M29,11h1M1,12h1M5,12h4M13,12h8M23,12h4M30,12h1M1,13h1M4,13h5M14,13h7M23,13h5M30,13h1M1,14h1M5,14h1M7,14h1M11,14h1M15,14h1M17,14h1M19,14h1M23,14h1M25,14h1M27,14h1M30,14h1M1,15h1M4,15h1M6,15h1M8,15h1M12,15h1M16,15h1M18,15h1M20,15h1M24,15h1M26,15h1M30,15h1M1,16h1M5,16h1M7,16h1M11,16h1M13,16h1M17,16h1M19,16h1M23,16h1M25,16h1M27,16h1M30,16h1M1,17h1M4,17h1M6,17h1M8,17h1M12,17h1M14,17h1M18,17h1M20,17h1M24,17h1M26,17h1M30,17h1M1,18h1M30,18h1M1,19h1M30,19h1M2,20h1M29,20h1M2,21h1M29,21h1M2,22h1M29,22h1M3,23h1M28,23h1M4,24h1M27,24h1M4,25h1M27,25h1M5,26h1M26,26h1M6,27h2M24,27h2M8,28h1M23,28h1M9,29h3M20,29h3M12,30h8"/><path stroke="#323232" d="M12,2h8M9,3h14M8,4h5M19,4h5M6,5h4M22,5h4M5,6h4M23,6h4M5,7h3M24,7h3M4,8h3M25,8h3M3,9h3M26,9h3M3,10h2M9,10h2M21,10h2M27,10h2M3,11h2M9,11h3M21,11h2M27,11h2M2,12h3M9,12h4M21,12h2M27,12h3M2,13h2M9,13h5M21,13h2M28,13h2M3,14h1M9,14h1M13,14h1M21,14h1M29,14h1M2,15h1M10,15h1M14,15h1M22,15h1M28,15h1M3,16h1M9,16h1M15,16h1M21,16h1M29,16h1M2,17h1M10,17h1M16,17h1M22,17h1M28,17h1"/><path stroke="#2c2a2a" d="M2,14h1M10,14h1M12,14h1M14,14h1M22,14h1M28,14h1M3,15h1M9,15h1M13,15h1M15,15h1M21,15h1M29,15h1M2,16h1M10,16h1M14,16h1M16,16h1M22,16h1M28,16h1M3,17h1M9,17h1M15,17h1M17,17h1M21,17h1M29,17h1M2,18h2M9,18h2M16,18h3M21,18h2M28,18h2M2,19h3M9,19h2M17,19h3M27,19h3M3,20h2M9,20h2M18,20h3M27,20h2M3,21h2M9,21h2M19,21h3M27,21h2M3,22h3M9,22h2M20,22h3M26,22h3M4,23h3M9,23h2M21,23h3M25,23h3M5,24h3M22,24h5M5,25h4M23,25h4M6,26h4M22,26h4M8,27h5M19,27h5M9,28h14M12,29h8"/><path stroke="#d8ccd0" d="M4,14h1M6,14h1M8,14h1M16,14h1M18,14h1M20,14h1M24,14h1M26,14h1M5,15h1M7,15h1M11,15h1M17,15h1M19,15h1M23,15h1M25,15h1M27,15h1M4,16h1M6,16h1M8,16h1M12,16h1M18,16h1M20,16h1M24,16h1M26,16h1M5,17h1M7,17h1M11,17h1M13,17h1M19,17h1M23,17h1M25,17h1M27,17h1M4,18h5M11,18h5M19,18h2M23,18h5M5,19h4M11,19h6M20,19h7M5,20h4M11,20h7M21,20h6M5,21h4M11,21h8M22,21h5M6,22h3M11,22h9M23,22h3M7,23h2M11,23h10M24,23h1M8,24h14M9,25h14M10,26h12M13,27h6"/></svg>
