<svg xmlns="http://www.w3.org/2000/svg" shape-rendering="crispEdges" viewBox="0 -0.5 32 32" width="32" height="32"><path stroke="#f5f5f5" d="M15,1h2M13,2h2M17,2h2M11,3h2M19,3h2M9,4h2M21,4h2M7,5h2M23,5h2M5,6h2M25,6h2M3,7h2M27,7h2M2,8h1M29,8h1M2,9h1M29,9h1M2,10h1M29,10h1M2,11h1M29,11h1M2,12h1M29,12h1M2,13h1M29,13h1M2,14h1M29,14h1M2,15h1M29,15h1M2,16h1M29,16h1M2,17h1M29,17h1M2,18h1M29,18h1M2,19h1M29,19h1M2,20h1M29,20h1M2,21h1M29,21h1M2,22h1M29,22h1M2,23h1M29,23h1M3,24h2M27,24h2M5,25h2M25,25h2M7,26h2M23,26h2M9,27h2M21,27h2M11,28h2M19,28h2M13,29h2M17,29h2M15,30h2"/><path stroke="#49b037" d="M15,2h1M13,3h4M11,4h7M9,5h9M7,6h12M5,7h14M3,8h17M3,9h18M3,10h18M4,11h18M4,12h18M5,13h18M6,14h18M6,15h18M7,16h1M9,16h1M11,16h1M13,16h1M15,16h1M17,16h1M19,16h1M21,16h1M23,16h1M8,17h1M10,17h1M12,17h1M14,17h1M16,17h1M18,17h1M20,17h1M22,17h1M24,17h1M9,18h1M11,18h1M13,18h1M15,18h1M17,18h1M19,18h1M21,18h1M23,18h1M10,19h1M12,19h1M14,19h1M16,19h1M18,19h1M20,19h1M22,19h1"/><path stroke="#3e8635" d="M16,2h1M17,3h2M18,4h3M18,5h5M19,6h6M19,7h8M20,8h9M21,9h8M21,10h8M3,11h1M22,11h7M3,12h1M22,12h7M3,13h2M23,13h6M3,14h3M24,14h5M3,15h3M24,15h5M3,16h1M5,16h1M25,16h1M27,16h1M4,17h1M6,17h1M26,17h1M28,17h1M3,18h1M5,18h1M7,18h1M25,18h1M27,18h1M4,19h1M6,19h1M24,19h1M26,19h1M28,19h1"/><path stroke="#37702d" d="M4,16h1M6,16h1M26,16h1M28,16h1M3,17h1M5,17h1M25,17h1M27,17h1M4,18h1M6,18h1M24,18h1M26,18h1M28,18h1M3,19h1M5,19h1M23,19h1M25,19h1M27,19h1M3,20h3M23,20h6M3,21h2M22,21h7M3,22h1M22,22h7M21,23h8M20,24h7M20,25h5M19,26h4M19,27h2M18,28h1"/><path stroke="#40932f" d="M8,16h1M10,16h1M12,16h1M14,16h1M16,16h1M18,16h1M20,16h1M22,16h1M24,16h1M7,17h1M9,17h1M11,17h1M13,17h1M15,17h1M17,17h1M19,17h1M21,17h1M23,17h1M8,18h1M10,18h1M12,18h1M14,18h1M16,18h1M18,18h1M20,18h1M22,18h1M9,19h1M11,19h1M13,19h1M15,19h1M17,19h1M19,19h1M21,19h1M9,20h14M10,21h12M10,22h12M11,23h10M12,24h8M12,25h8M13,26h6M13,27h6M14,28h4M15,29h2"/><path stroke="#183e0f" d="M7,19h1M6,20h3M5,21h5M4,22h6M3,23h8M5,24h7M7,25h5M9,26h4M11,27h2M13,28h1"/><path stroke="#1b4a12" d="M8,19h1"/></svg>
