<svg xmlns="http://www.w3.org/2000/svg" shape-rendering="crispEdges" viewBox="0 -0.5 32 32" width="32" height="32"><path stroke="#f5f5f5" d="M11,4h2M19,4h2M10,5h1M13,5h1M18,5h1M21,5h1M9,6h1M11,6h2M14,6h1M17,6h1M19,6h2M22,6h1M8,7h1M10,7h4M15,7h2M18,7h4M23,7h1M8,8h1M10,8h5M17,8h5M23,8h1M8,9h1M10,9h5M17,9h5M23,9h1M8,10h1M10,10h4M15,10h2M18,10h4M23,10h1M8,11h2M11,11h3M15,11h2M18,11h3M22,11h2M7,12h1M24,12h1M6,13h1M8,13h3M12,13h1M14,13h4M19,13h1M21,13h3M25,13h1M5,14h1M7,14h4M13,14h2M17,14h2M21,14h4M26,14h1M4,15h1M7,15h1M9,15h1M11,15h1M13,15h1M21,15h1M23,15h1M25,15h1M27,15h1M4,16h1M6,16h1M8,16h1M10,16h1M18,16h1M20,16h1M22,16h1M24,16h1M27,16h1M5,17h1M26,17h1M6,18h1M25,18h1M7,19h1M24,19h1M8,20h2M22,20h2M8,21h1M23,21h1M8,22h1M23,22h1M8,23h1M23,23h1M8,24h1M15,24h2M23,24h1M9,25h1M14,25h1M17,25h1M22,25h1M10,26h1M13,26h1M18,26h1M21,26h1M11,27h2M19,27h2"/><path stroke="#14bfef" d="M11,5h2M19,5h2M10,6h1M13,6h1M18,6h1M21,6h1M9,7h1M14,7h1M17,7h1M22,7h1M9,8h1M15,8h2M22,8h1M9,9h1M15,9h2M22,9h1M9,10h1M14,10h1M17,10h1M22,10h1M10,11h1M14,11h1M17,11h1M21,11h1M8,12h16M7,13h1M11,13h1M13,13h1M18,13h1M20,13h1M24,13h1M6,14h1M11,14h2M15,14h2M19,14h2M25,14h1M5,15h1M15,15h1M17,15h1M19,15h1M12,16h1M14,16h1M16,16h1M26,16h1"/><path stroke="#d8ccd0" d="M6,15h1M8,15h1M10,15h1M18,15h1M20,15h1M22,15h1M24,15h1M7,16h1M9,16h1M11,16h1M13,16h1M21,16h1M23,16h1M25,16h1M7,17h4M13,17h2M17,17h2M21,17h4M8,18h2M12,18h1M14,18h4M19,18h1M21,18h3M11,20h3M15,20h2M18,20h3M10,21h4M15,21h2M18,21h4M10,22h5M17,22h5M10,23h5M17,23h5M10,24h4M18,24h4M11,25h2M19,25h2"/><path stroke="#129fcb" d="M12,15h1M14,15h1M16,15h1M26,15h1M5,16h1M15,16h1M17,16h1M19,16h1M6,17h1M11,17h2M15,17h2M19,17h2M25,17h1M7,18h1M10,18h2M13,18h1M18,18h1M20,18h1M24,18h1M8,19h16M10,20h1M14,20h1M17,20h1M21,20h1M9,21h1M14,21h1M17,21h1M22,21h1M9,22h1M15,22h2M22,22h1M9,23h1M15,23h2M22,23h1M9,24h1M14,24h1M17,24h1M22,24h1M10,25h1M13,25h1M18,25h1M21,25h1M11,26h2M19,26h2"/></svg>
