<svg xmlns="http://www.w3.org/2000/svg" shape-rendering="crispEdges" viewBox="0 -0.5 32 32" width="32" height="32"><path stroke="#f5f5f5" d="M9,3h4M19,3h4M8,4h1M13,4h1M18,4h1M23,4h1M8,5h1M10,5h3M14,5h1M17,5h1M19,5h3M23,5h1M7,6h1M9,6h5M15,6h2M18,6h5M24,6h1M7,7h1M9,7h6M17,7h6M24,7h1M7,8h1M9,8h6M17,8h6M24,8h1M7,9h1M9,9h6M17,9h6M24,9h1M7,10h1M9,10h5M15,10h2M18,10h5M24,10h1M6,11h2M14,11h4M24,11h2M4,12h2M8,12h2M11,12h2M19,12h2M22,12h2M26,12h2M3,13h1M6,13h4M11,13h1M14,13h4M20,13h1M22,13h4M28,13h1M2,14h1M4,14h1M6,14h1M8,14h1M14,14h1M18,14h1M20,14h1M22,14h1M24,14h1M26,14h1M29,14h1M2,15h1M5,15h1M7,15h1M9,15h1M13,15h1M21,15h1M23,15h1M25,15h1M27,15h1M29,15h1M2,16h1M4,16h1M6,16h1M8,16h1M10,16h1M18,16h1M22,16h1M24,16h1M26,16h1M29,16h1M2,17h1M5,17h1M7,17h1M9,17h1M11,17h1M13,17h1M17,17h1M23,17h1M25,17h1M27,17h1M29,17h1M3,18h1M28,18h1M4,19h2M26,19h2M6,20h2M24,20h2M7,21h1M24,21h1M7,22h1M24,22h1M7,23h1M24,23h1M7,24h1M24,24h1M7,25h1M15,25h2M24,25h1M8,26h1M14,26h1M17,26h1M23,26h1M8,27h1M13,27h1M18,27h1M23,27h1M9,28h4M19,28h4"/><path stroke="#14bfef" d="M9,4h4M19,4h4M9,5h1M13,5h1M18,5h1M22,5h1M8,6h1M14,6h1M17,6h1M23,6h1M8,7h1M15,7h2M23,7h1M8,8h1M15,8h2M23,8h1M8,9h1M15,9h2M23,9h1M8,10h1M14,10h1M17,10h1M23,10h1M8,11h6M18,11h6M6,12h2M10,12h1M13,12h6M21,12h1M24,12h2M4,13h2M10,13h1M12,13h2M18,13h2M21,13h1M26,13h2M10,14h1M12,14h1M16,14h1M28,14h1M3,15h1M11,15h1M15,15h1M17,15h1M19,15h1M12,16h1M14,16h1M16,16h1M20,16h1M28,16h1M3,17h1M15,17h1M19,17h1M21,17h1"/><path stroke="#129fcb" d="M3,14h1M15,14h1M19,14h1M21,14h1M12,15h1M14,15h1M16,15h1M20,15h1M28,15h1M3,16h1M11,16h1M15,16h1M17,16h1M19,16h1M10,17h1M12,17h1M16,17h1M28,17h1M4,18h2M10,18h1M12,18h2M18,18h2M21,18h1M26,18h2M6,19h2M10,19h1M13,19h6M21,19h1M24,19h2M8,20h6M18,20h6M8,21h1M14,21h1M17,21h1M23,21h1M8,22h1M15,22h2M23,22h1M8,23h1M15,23h2M23,23h1M8,24h1M15,24h2M23,24h1M8,25h1M14,25h1M17,25h1M23,25h1M9,26h1M13,26h1M18,26h1M22,26h1M9,27h4M19,27h4"/><path stroke="#d8cdd0" d="M5,14h1M7,14h1M9,14h1M11,14h1M13,14h1M17,14h1M23,14h1M25,14h1M27,14h1M4,15h1M6,15h1M8,15h1M10,15h1M18,15h1M22,15h1M24,15h1M26,15h1M5,16h1M7,16h1M9,16h1M13,16h1M21,16h1M23,16h1M25,16h1M27,16h1M4,17h1M6,17h1M8,17h1M14,17h1M18,17h1M20,17h1M22,17h1M24,17h1M26,17h1M6,18h4M11,18h1M14,18h4M20,18h1M22,18h4M8,19h2M11,19h2M19,19h2M22,19h2M14,20h4M9,21h5M15,21h2M18,21h5M9,22h6M17,22h6M9,23h6M17,23h6M9,24h6M17,24h6M9,25h5M18,25h5M10,26h3M19,26h3"/></svg>
