<svg xmlns="http://www.w3.org/2000/svg" shape-rendering="crispEdges" viewBox="0 -0.5 32 32" width="32" height="32"><path stroke="#f5f5f5" d="M14,1h4M11,2h3M18,2h3M9,3h2M21,3h2M8,4h1M23,4h1M7,5h1M24,5h1M6,6h1M25,6h1M5,7h1M26,7h1M4,8h1M27,8h1M3,9h1M28,9h1M3,10h1M28,10h1M2,11h1M29,11h1M2,12h1M29,12h1M2,13h1M29,13h1M1,14h1M30,14h1M1,15h1M30,15h1M1,16h1M30,16h1M1,17h1M30,17h1M2,18h1M29,18h1M2,19h1M29,19h1M2,20h1M29,20h1M3,21h1M28,21h1M3,22h1M28,22h1M4,23h1M27,23h1M5,24h1M26,24h1M6,25h1M25,25h1M7,26h1M24,26h1M8,27h1M23,27h1M9,28h2M21,28h2M11,29h3M18,29h3M14,30h4"/><path stroke="#141d5e" d="M14,2h4M11,3h3M18,3h3M9,4h2M21,4h2M8,5h1M23,5h1M7,6h1M24,6h1M6,7h1M25,7h1M5,8h1M10,8h2M20,8h2M26,8h1M4,9h1M9,9h3M20,9h3M27,9h1M4,10h1M8,10h3M21,10h3M27,10h1M3,11h1M8,11h2M22,11h2M28,11h1M3,12h1M8,12h2M22,12h2M28,12h1M3,13h1M8,13h2M22,13h2M28,13h1M9,14h1M23,14h1M29,14h1M2,15h1M8,15h1M12,15h1M16,15h1M20,15h1M24,15h1M7,16h1M11,16h1M15,16h1M19,16h1M23,16h1M29,16h1M2,17h1M8,17h1M22,17h1"/><path stroke="#a5fe18" d="M14,3h4M11,4h10M9,5h14M8,6h16M7,7h18M6,8h4M12,8h8M22,8h4M5,9h4M12,9h8M23,9h4M5,10h3M11,10h10M24,10h3M4,11h4M10,11h12M24,11h4M4,12h4M10,12h12M24,12h4M4,13h4M10,13h12M24,13h4M3,14h1M5,14h1M7,14h1M11,14h1M13,14h1M15,14h1M17,14h1M19,14h1M21,14h1M25,14h1M27,14h1M4,15h1M6,15h1M10,15h1M14,15h1M18,15h1M22,15h1M26,15h1M28,15h1M3,16h1M5,16h1M9,16h1M13,16h1M17,16h1M21,16h1M25,16h1M27,16h1M4,17h1M6,17h1M10,17h1M12,17h1M14,17h1M16,17h1M18,17h1M20,17h1M24,17h1M26,17h1M28,17h1"/><path stroke="#121850" d="M2,14h1M8,14h1M22,14h1M7,15h1M11,15h1M15,15h1M19,15h1M23,15h1M29,15h1M2,16h1M8,16h1M12,16h1M16,16h1M20,16h1M24,16h1M9,17h1M23,17h1M29,17h1M3,18h1M8,18h2M22,18h2M28,18h1M3,19h1M8,19h2M22,19h2M28,19h1M3,20h1M8,20h2M22,20h2M28,20h1M4,21h1M8,21h3M21,21h3M27,21h1M4,22h1M9,22h3M20,22h3M27,22h1M5,23h1M10,23h2M20,23h2M26,23h1M6,24h1M25,24h1M7,25h1M24,25h1M8,26h1M23,26h1M9,27h2M21,27h2M11,28h3M18,28h3M14,29h4"/><path stroke="#91d314" d="M4,14h1M6,14h1M10,14h1M12,14h1M14,14h1M16,14h1M18,14h1M20,14h1M24,14h1M26,14h1M28,14h1M3,15h1M5,15h1M9,15h1M13,15h1M17,15h1M21,15h1M25,15h1M27,15h1M4,16h1M6,16h1M10,16h1M14,16h1M18,16h1M22,16h1M26,16h1M28,16h1M3,17h1M5,17h1M7,17h1M11,17h1M13,17h1M15,17h1M17,17h1M19,17h1M21,17h1M25,17h1M27,17h1M4,18h4M10,18h12M24,18h4M4,19h4M10,19h12M24,19h4M4,20h4M10,20h12M24,20h4M5,21h3M11,21h10M24,21h3M5,22h4M12,22h8M23,22h4M6,23h4M12,23h8M22,23h4M7,24h18M8,25h16M9,26h14M11,27h10M14,28h4"/></svg>
