<svg xmlns="http://www.w3.org/2000/svg" shape-rendering="crispEdges" viewBox="0 -0.5 32 32" width="32" height="32"><path stroke="#f5f5f5" d="M2,3h8M22,3h8M1,4h1M10,4h1M21,4h1M30,4h1M2,5h1M11,5h1M20,5h1M29,5h1M2,6h1M11,6h1M20,6h1M29,6h1M3,7h1M12,7h1M19,7h1M28,7h1M3,8h1M12,8h1M19,8h1M28,8h1M4,9h1M13,9h1M18,9h1M27,9h1M4,10h1M13,10h1M18,10h1M27,10h1M5,11h1M14,11h1M17,11h1M26,11h1M5,12h1M14,12h1M17,12h1M26,12h1M6,13h1M15,13h2M25,13h1M6,14h1M15,14h2M25,14h1M7,15h1M24,15h1M7,16h1M24,16h1M8,17h1M23,17h1M8,18h1M23,18h1M9,19h1M22,19h1M9,20h1M22,20h1M10,21h1M21,21h1M10,22h1M21,22h1M11,23h1M20,23h1M11,24h1M20,24h1M12,25h1M19,25h1M12,26h1M19,26h1M13,27h1M18,27h1M13,28h1M18,28h1M14,29h4"/><path stroke="#189c6f" d="M2,4h1M28,4h1M3,5h1M27,5h1M4,6h1M28,6h1M5,7h1M27,7h1M4,8h1M26,8h1M5,9h1M25,9h1M6,10h1M26,10h1M7,11h1M25,11h1M6,12h1M24,12h1M7,13h1M23,13h1M8,14h1M24,14h1M9,15h1M23,15h1M8,16h1M22,16h1M9,17h1M21,17h1M10,18h1M22,18h1M11,19h1M21,19h1M10,20h1M20,20h1M11,21h1M19,21h1M12,22h1M20,22h1M13,23h1M19,23h1M12,24h1M18,24h1M13,25h1M17,25h1M14,26h1M16,26h1M15,27h1M17,27h1M14,28h1M16,28h1"/><path stroke="#1bbb83" d="M3,4h3M26,4h2M29,4h1M4,5h3M25,5h2M28,5h1M3,6h1M5,6h2M25,6h3M4,7h1M6,7h2M24,7h3M5,8h3M24,8h2M27,8h1M6,9h3M23,9h2M26,9h1M5,10h1M7,10h2M23,10h3M6,11h1M8,11h2M22,11h3M7,12h3M22,12h2M25,12h1M8,13h3M21,13h2M24,13h1M7,14h1M9,14h2M21,14h3M8,15h1M10,15h2M20,15h3M9,16h3M20,16h2M23,16h1M10,17h3M19,17h2M22,17h1M9,18h1M11,18h2M19,18h3M10,19h1M12,19h2M18,19h3M11,20h3M18,20h2M21,20h1M12,21h3M17,21h2M20,21h1M11,22h1M13,22h7M12,23h1M14,23h5M13,24h5M19,24h1M14,25h3M18,25h1M13,26h1M15,26h1M17,26h2M14,27h1M16,27h1M15,28h1M17,28h1"/><path stroke="#183e5b" d="M6,4h1M24,4h1M7,5h1M23,5h1M8,6h1M24,6h1M9,7h1M23,7h1M8,8h1M22,8h1M9,9h1M21,9h1M10,10h1M22,10h1M11,11h1M21,11h1M10,12h1M20,12h1M11,13h1M19,13h1M12,14h1M20,14h1M13,15h1M19,15h1M12,16h1M18,16h1M13,17h1M17,17h1M14,18h1M18,18h1M15,19h1M17,19h1M14,20h1M16,20h1M15,21h1"/><path stroke="#1b4b6b" d="M7,4h3M22,4h2M25,4h1M8,5h3M21,5h2M24,5h1M7,6h1M9,6h2M21,6h3M8,7h1M10,7h2M20,7h3M9,8h3M20,8h2M23,8h1M10,9h3M19,9h2M22,9h1M9,10h1M11,10h2M19,10h3M10,11h1M12,11h2M18,11h3M11,12h3M18,12h2M21,12h1M12,13h3M17,13h2M20,13h1M11,14h1M13,14h2M17,14h3M12,15h1M14,15h5M13,16h5M19,16h1M14,17h3M18,17h1M13,18h1M15,18h3M14,19h1M16,19h1M15,20h1M17,20h1M16,21h1"/></svg>
