<svg xmlns="http://www.w3.org/2000/svg" shape-rendering="crispEdges" viewBox="0 -0.5 32 32" width="32" height="32"><path stroke="#ffffff" d="M0,0h32M0,1h32M0,2h32M0,3h32M0,4h4M28,4h4M0,5h4M5,5h22M28,5h4M0,6h4M5,6h1M26,6h1M28,6h4M0,7h4M5,7h1M26,7h1M28,7h4M0,8h4M5,8h1M10,8h12M26,8h1M28,8h4M0,9h4M5,9h1M10,9h1M14,9h4M21,9h1M26,9h1M28,9h4M0,10h4M5,10h1M10,10h1M13,10h1M18,10h1M21,10h1M26,10h1M28,10h4M0,11h4M5,11h1M10,11h1M12,11h1M15,11h2M19,11h1M21,11h1M26,11h1M28,11h4M0,12h4M5,12h1M10,12h1M12,12h1M15,12h2M19,12h1M21,12h1M26,12h1M28,12h4M0,13h4M5,13h1M10,13h1M12,13h1M19,13h1M21,13h1M26,13h1M28,13h4M0,14h4M5,14h1M10,14h1M12,14h1M15,14h2M19,14h1M21,14h1M26,14h1M28,14h4M0,15h4M5,15h1M10,15h1M13,15h6M21,15h1M26,15h1M28,15h4M0,16h4M5,16h1M10,16h1M14,16h4M21,16h1M26,16h1M28,16h4M0,17h4M5,17h1M10,17h1M21,17h1M26,17h1M28,17h4M0,18h4M5,18h1M10,18h1M12,18h8M21,18h1M26,18h1M28,18h4M0,19h4M5,19h1M10,19h1M21,19h1M26,19h1M28,19h4M0,20h4M5,20h1M10,20h1M13,20h9M26,20h1M28,20h4M0,21h4M5,21h1M10,21h1M18,21h1M20,21h1M26,21h1M28,21h4M0,22h4M5,22h1M10,22h1M18,22h2M26,22h1M28,22h4M0,23h4M5,23h1M10,23h9M26,23h1M28,23h4M0,24h4M5,24h1M26,24h1M28,24h4M0,25h4M5,25h1M26,25h1M28,25h4M0,26h4M5,26h22M28,26h4M0,27h4M28,27h4M0,28h32M0,29h32M0,30h32M0,31h32"/></svg>
