<svg xmlns="http://www.w3.org/2000/svg" shape-rendering="crispEdges" viewBox="0 -0.5 32 32" width="32" height="32"><path stroke="#f5f5f5" d="M6,2h20M6,3h3M13,3h1M18,3h1M23,3h3M6,4h3M11,4h3M16,4h3M21,4h5M6,5h3M11,5h3M18,5h1M23,5h3M6,6h3M11,6h5M18,6h3M23,6h3M6,7h3M13,7h1M18,7h1M23,7h3M6,8h20M5,9h1M26,9h1M5,10h1M26,10h1M6,11h1M25,11h1M6,12h1M15,12h1M17,12h5M25,12h1M6,13h1M16,13h6M25,13h1M7,14h1M19,14h2M24,14h1M7,15h1M19,15h2M24,15h1M7,16h1M19,16h2M24,16h1M7,17h1M18,17h3M24,17h1M7,18h1M15,18h1M17,18h4M24,18h1M7,19h1M16,19h5M24,19h1M7,20h1M19,20h2M24,20h1M8,21h1M19,21h2M23,21h1M8,22h1M19,22h2M23,22h1M8,23h1M18,23h3M23,23h1M8,24h1M15,24h1M17,24h3M23,24h1M8,25h1M16,25h2M23,25h1M9,26h1M22,26h1M10,27h2M20,27h2M12,28h3M17,28h3M15,29h2"/><path stroke="#323232" d="M9,3h4M14,3h4M19,3h4M9,4h2M14,4h2M19,4h2M9,5h2M14,5h4M19,5h4"/><path stroke="#2c2a2a" d="M9,6h2M16,6h2M21,6h2M9,7h4M14,7h4M19,7h4"/><path stroke="#2147b4" d="M6,9h20M6,10h9M16,10h1M25,10h1M7,11h9M24,11h1M7,12h4M24,12h1M7,13h4M24,13h1M8,14h7M16,14h1M23,14h1M8,15h8M23,15h1M8,16h7M16,16h1M23,16h1M8,17h8M23,17h1M8,18h3M23,18h1M8,19h3M23,19h1M8,20h7M16,20h1M23,20h1M9,21h2M13,21h3M22,21h1M9,22h2M13,22h2M16,22h1M22,22h1M9,23h2M14,23h2M22,23h1M9,24h3M22,24h1M9,25h5M22,25h1M10,26h5M16,26h1M20,26h2M12,27h4M17,27h3M15,28h2"/><path stroke="#2655d4" d="M15,10h1M17,10h8M16,11h8M22,12h2M22,13h2M15,14h1M17,14h2M21,14h2M16,15h3M21,15h2M15,16h1M17,16h2M21,16h2M16,17h2M21,17h2M21,18h2M21,19h2M15,20h1M17,20h2M21,20h2M16,21h3M21,21h1M15,22h1M17,22h2M21,22h1M16,23h2M21,23h1M20,24h2M18,25h4M15,26h1M17,26h3M16,27h1"/><path stroke="#d8ccd0" d="M11,12h4M16,12h1M11,13h5M11,18h4M16,18h1M11,19h5M11,21h2M11,22h2M11,23h3M12,24h3M16,24h1M14,25h2"/></svg>
