<svg xmlns="http://www.w3.org/2000/svg" shape-rendering="crispEdges" viewBox="0 -0.5 32 32" width="32" height="32"><path stroke="#f5f5f5" d="M6,2h20M6,3h7M15,3h1M20,3h6M6,4h7M15,4h1M18,4h8M6,5h7M15,5h1M20,5h6M6,6h7M15,6h3M20,6h6M6,7h5M15,7h1M20,7h6M6,8h20M5,9h1M26,9h1M5,10h1M26,10h1M6,11h1M25,11h1M6,12h1M17,12h6M25,12h1M6,13h1M17,13h6M25,13h1M7,14h1M17,14h2M24,14h1M7,15h1M17,15h2M24,15h1M7,16h1M17,16h5M24,16h1M7,17h1M17,17h5M24,17h1M7,18h1M20,18h2M24,18h1M7,19h1M20,19h2M24,19h1M7,20h1M20,20h2M24,20h1M8,21h1M20,21h2M23,21h1M8,22h1M19,22h3M23,22h1M8,23h1M18,23h3M23,23h1M8,24h1M17,24h3M23,24h1M8,25h1M17,25h2M23,25h1M9,26h1M22,26h1M10,27h2M20,27h2M12,28h3M17,28h3M15,29h2"/><path stroke="#323232" d="M13,3h2M16,3h4M13,4h2M16,4h2M13,5h2M16,5h4"/><path stroke="#2c2a2a" d="M13,6h2M18,6h2M11,7h4M16,7h4"/><path stroke="#cd9e36" d="M6,9h20M6,10h9M16,10h1M25,10h1M7,11h9M24,11h1M7,12h6M16,12h1M24,12h1M7,13h6M15,13h1M24,13h1M8,14h5M16,14h1M23,14h1M8,15h5M15,15h1M23,15h1M8,16h5M16,16h1M23,16h1M8,17h5M15,17h1M23,17h1M8,18h2M12,18h1M16,18h1M23,18h1M8,19h2M12,19h1M15,19h1M23,19h1M8,20h2M12,20h1M16,20h1M23,20h1M9,21h1M12,21h1M15,21h1M22,21h1M9,22h2M16,22h1M22,22h1M9,23h2M15,23h1M22,23h1M9,24h3M16,24h1M22,24h1M9,25h4M15,25h1M22,25h1M10,26h5M16,26h1M20,26h2M12,27h4M17,27h3M15,28h2"/><path stroke="#e9be40" d="M15,10h1M17,10h8M16,11h8M15,12h1M23,12h1M16,13h1M23,13h1M15,14h1M19,14h4M16,15h1M19,15h4M15,16h1M22,16h1M16,17h1M22,17h1M15,18h1M17,18h3M22,18h1M16,19h4M22,19h1M15,20h1M17,20h3M22,20h1M16,21h4M15,22h1M17,22h2M16,23h2M21,23h1M15,24h1M20,24h2M16,25h1M19,25h3M15,26h1M17,26h3M16,27h1"/><path stroke="#d8ccd0" d="M13,12h2M13,13h2M13,14h2M13,15h2M13,16h2M13,17h2M10,18h2M13,18h2M10,19h2M13,19h2M10,20h2M13,20h2M10,21h2M13,21h2M11,22h4M11,23h4M12,24h3M13,25h2"/></svg>
