<svg xmlns="http://www.w3.org/2000/svg" shape-rendering="crispEdges" viewBox="0 -0.5 32 32" width="32" height="32"><path stroke="#f5f5f5" d="M10,2h12M9,3h1M22,3h1M8,4h1M23,4h1M7,5h1M24,5h1M7,6h1M24,6h1M6,7h1M25,7h1M5,8h1M15,8h2M26,8h1M5,9h1M15,9h2M26,9h1M4,10h1M14,10h1M17,10h1M27,10h1M3,11h1M14,11h1M17,11h1M28,11h1M3,12h1M13,12h1M18,12h1M28,12h1M2,13h1M13,13h1M18,13h1M29,13h1M1,14h1M12,14h1M19,14h1M30,14h1M1,15h1M12,15h1M19,15h1M30,15h1M1,16h1M12,16h1M19,16h1M30,16h1M1,17h1M12,17h1M19,17h1M30,17h1M2,18h1M13,18h1M18,18h1M29,18h1M3,19h1M13,19h1M18,19h1M28,19h1M3,20h1M14,20h1M17,20h1M28,20h1M4,21h1M14,21h1M17,21h1M27,21h1M5,22h1M15,22h2M26,22h1M5,23h1M15,23h2M26,23h1M6,24h1M25,24h1M7,25h1M24,25h1M7,26h1M24,26h1M8,27h1M23,27h1M9,28h1M22,28h1M10,29h12"/><path stroke="#5b1219" d="M10,3h4M9,4h6M8,5h7M8,6h8M7,7h9M6,8h9M6,9h9M5,10h9M4,11h10M4,12h9M3,13h10M3,14h1M5,14h1M7,14h1M9,14h1M11,14h1M2,15h1M4,15h1M6,15h1M8,15h1M10,15h1M3,16h1M5,16h1M7,16h1M9,16h1M11,16h1M2,17h1M4,17h1M6,17h1M8,17h1M10,17h1"/><path stroke="#98313c" d="M14,3h8M15,4h8M15,5h9M16,6h8M16,7h9M17,8h9M17,9h9M18,10h9M18,11h10M19,12h9M19,13h10M21,14h1M23,14h1M25,14h1M27,14h1M29,14h1M20,15h1M22,15h1M24,15h1M26,15h1M28,15h1M21,16h1M23,16h1M25,16h1M27,16h1M29,16h1M20,17h1M22,17h1M24,17h1M26,17h1M28,17h1"/><path stroke="#500f15" d="M2,14h1M4,14h1M6,14h1M8,14h1M10,14h1M3,15h1M5,15h1M7,15h1M9,15h1M11,15h1M2,16h1M4,16h1M6,16h1M8,16h1M10,16h1M3,17h1M5,17h1M7,17h1M9,17h1M11,17h1M3,18h10M4,19h9M4,20h10M5,21h9M6,22h9M6,23h9M7,24h9M8,25h8M8,26h7M9,27h6M10,28h4"/><path stroke="#862933" d="M20,14h1M22,14h1M24,14h1M26,14h1M28,14h1M21,15h1M23,15h1M25,15h1M27,15h1M29,15h1M20,16h1M22,16h1M24,16h1M26,16h1M28,16h1M21,17h1M23,17h1M25,17h1M27,17h1M29,17h1M19,18h10M19,19h9M18,20h10M18,21h9M17,22h9M17,23h9M16,24h9M16,25h8M15,26h9M15,27h8M14,28h8"/></svg>
