<svg xmlns="http://www.w3.org/2000/svg" shape-rendering="crispEdges" viewBox="0 -0.5 32 32" width="32" height="32"><path stroke="#f5f5f5" d="M15,1h2M14,2h1M17,2h1M12,3h2M18,3h2M8,4h4M20,4h4M7,5h1M24,5h1M6,6h1M25,6h1M5,7h1M10,7h4M18,7h4M26,7h1M4,8h1M9,8h5M18,8h5M27,8h1M4,9h1M27,9h1M4,10h1M27,10h1M4,11h1M27,11h1M3,12h1M7,12h3M13,12h6M22,12h3M28,12h1M3,13h1M7,13h3M12,13h2M18,13h2M22,13h3M28,13h1M2,14h1M7,14h3M12,14h1M19,14h1M22,14h3M29,14h1M1,15h1M7,15h3M12,15h1M19,15h1M22,15h3M30,15h1M1,16h1M7,16h3M12,16h1M19,16h1M22,16h3M30,16h1M2,17h1M7,17h3M12,17h1M19,17h1M22,17h3M29,17h1M3,18h1M7,18h3M12,18h2M18,18h2M22,18h3M28,18h1M3,19h1M7,19h3M13,19h6M22,19h3M28,19h1M4,20h1M27,20h1M4,21h1M27,21h1M4,22h1M27,22h1M4,23h1M9,23h14M27,23h1M5,24h1M10,24h12M26,24h1M6,25h1M25,25h1M7,26h1M24,26h1M8,27h4M20,27h4M12,28h2M18,28h2M14,29h1M17,29h1M15,30h2"/><path stroke="#000000" d="M15,2h2M14,3h4M12,4h8M8,5h16M7,6h18M6,7h4M14,7h4M22,7h4M5,8h4M14,8h4M23,8h4M5,9h22M5,10h22M5,11h22M4,12h3M10,12h3M19,12h3M25,12h3M4,13h3M10,13h2M14,13h4M20,13h2M25,13h3M3,14h4M10,14h2M13,14h6M20,14h2M25,14h4M2,15h5M10,15h2M13,15h6M20,15h2M25,15h5M2,16h5M10,16h2M13,16h6M20,16h2M25,16h5M3,17h4M10,17h2M13,17h6M20,17h2M25,17h4M4,18h3M10,18h2M14,18h4M20,18h2M25,18h3M4,19h3M10,19h3M19,19h3M25,19h3M5,20h22M5,21h22M5,22h22M5,23h4M23,23h4M6,24h4M22,24h4M7,25h18M8,26h16M12,27h8M14,28h4M15,29h2"/></svg>
