<svg xmlns="http://www.w3.org/2000/svg" shape-rendering="crispEdges" viewBox="0 -0.5 32 32" width="32" height="32"><path stroke="#f5f5f5" d="M5,4h1M4,5h1M6,5h1M4,6h1M7,6h1M4,7h1M8,7h1M4,8h1M9,8h1M4,9h1M10,9h1M4,10h1M11,10h1M4,11h1M12,11h1M4,12h1M13,12h1M4,13h1M14,13h1M4,14h1M15,14h1M4,15h1M16,15h3M21,15h6M4,16h1M19,16h2M27,16h1M3,17h1M28,17h1M3,18h1M28,18h1M3,19h1M28,19h1M3,20h1M28,20h1M3,21h1M28,21h1M3,22h1M28,22h1M4,23h1M27,23h1M4,24h1M25,24h2M4,25h1M26,25h1M4,26h1M27,26h1M5,27h22"/><path stroke="#e4002b" d="M5,5h1M5,6h2M5,7h3M5,8h4M5,9h5M5,10h6M5,11h7M5,12h8M5,13h9M5,14h10M5,15h11M11,16h2"/><path stroke="#fae300" d="M5,16h6M13,16h6M21,16h6M4,17h2M10,17h4M15,17h7M26,17h2M4,18h1M6,18h4M11,18h3M15,18h6M22,18h6M4,19h1M6,19h4M11,19h3M15,19h6M22,19h2M26,19h2M7,20h1M9,20h1M11,20h1M13,20h1M15,20h1M17,20h1M19,20h1M23,20h1M25,20h1M27,20h1M6,21h1M8,21h1M16,21h1M18,21h1M22,21h1M24,21h1"/><path stroke="#003c71" d="M6,17h4M14,17h1M22,17h4M5,18h1M10,18h1M14,18h1M21,18h1M5,19h1M10,19h1M14,19h1M21,19h1M24,19h2M5,20h1M21,20h1M10,21h1M14,21h1M26,21h1M7,22h1M9,22h1M15,22h1M17,22h1M23,22h1M25,22h1"/><path stroke="#dcbd00" d="M4,20h1M6,20h1M8,20h1M12,20h1M16,20h1M18,20h1M20,20h1M22,20h1M24,20h1M4,21h1M7,21h1M9,21h1M11,21h3M15,21h1M17,21h1M19,21h2M23,21h1M25,21h1M27,21h1M4,22h2M10,22h5M18,22h4M26,22h2M5,23h6M13,23h6M21,23h6"/><path stroke="#003260" d="M10,20h1M14,20h1M26,20h1M5,21h1M21,21h1M6,22h1M8,22h1M16,22h1M22,22h1M24,22h1"/><path stroke="#c90025" d="M11,23h2M19,23h2M5,24h20M5,25h21M5,26h22"/></svg>
