<svg xmlns="http://www.w3.org/2000/svg" shape-rendering="crispEdges" viewBox="0 -0.5 32 32" width="32" height="32"><path stroke="#f5f5f5" d="M25,6h2M24,7h1M27,7h1M24,8h1M27,8h1M22,9h2M25,9h2M21,10h1M24,10h1M20,11h1M25,11h1M20,12h1M25,12h1M6,13h3M17,13h3M21,13h1M24,13h1M5,14h1M9,14h1M16,14h1M20,14h1M22,14h2M4,15h1M10,15h1M15,15h1M21,15h1M4,16h1M10,16h1M15,16h1M21,16h1M4,17h1M10,17h1M15,17h1M21,17h1M5,18h1M9,18h1M11,18h4M16,18h1M20,18h1M6,19h3M10,19h1M15,19h1M17,19h3M9,20h1M16,20h1M9,21h1M16,21h1M9,22h1M16,22h1M9,23h1M16,23h1M10,24h1M15,24h1M11,25h4"/><path stroke="#1f65a2" d="M25,7h2M22,10h2M21,11h1M23,11h1M22,12h1M24,12h1M6,14h3M17,14h3M5,15h1M7,15h1M9,15h1M17,15h1M19,15h1M6,16h1M8,16h1M16,16h1M18,16h1M20,16h1M5,17h1M7,17h1M9,17h1M17,17h1M19,17h1M11,19h4M10,20h6M10,21h1M12,21h1M14,21h1M11,22h1M13,22h1M15,22h1"/><path stroke="#1b5489" d="M25,8h2M22,11h1M24,11h1M21,12h1M23,12h1M22,13h2M6,15h1M8,15h1M16,15h1M18,15h1M20,15h1M5,16h1M7,16h1M9,16h1M17,16h1M19,16h1M6,17h1M8,17h1M16,17h1M18,17h1M20,17h1M6,18h3M17,18h3M11,21h1M13,21h1M15,21h1M10,22h1M12,22h1M14,22h1M10,23h6M11,24h4"/></svg>
