<svg xmlns="http://www.w3.org/2000/svg" shape-rendering="crispEdges" viewBox="0 -0.5 32 32" width="32" height="32"><path stroke="#f5f5f5" d="M3,2h26M2,3h28M2,4h28M2,5h28M2,6h4M26,6h4M2,7h4M26,7h4M2,8h4M26,8h4M2,9h4M26,9h4M2,10h4M8,10h16M26,10h4M2,11h4M8,11h1M10,11h12M23,11h1M26,11h4M2,12h4M8,12h2M12,12h8M22,12h2M26,12h4M2,13h4M8,13h4M14,13h4M20,13h4M26,13h4M2,14h4M8,14h6M15,14h2M18,14h6M26,14h4M2,15h4M8,15h7M17,15h7M26,15h4M2,16h4M8,16h5M14,16h4M19,16h5M26,16h4M2,17h4M8,17h4M13,17h6M20,17h4M26,17h4M2,18h4M8,18h3M12,18h8M21,18h3M26,18h4M2,19h4M8,19h2M11,19h10M22,19h2M26,19h4M2,20h4M8,20h1M10,20h12M23,20h1M26,20h4M2,21h4M8,21h16M26,21h4M2,22h4M26,22h4M2,23h4M26,23h4M2,24h4M26,24h4M2,25h4M26,25h4M2,26h28M2,27h28M2,28h28M3,29h26"/></svg>
