<svg xmlns="http://www.w3.org/2000/svg" shape-rendering="crispEdges" viewBox="0 -0.5 32 32" width="32" height="32"><metadata>Generated with pixel-perfect-svg https://github.com/kagof/pixel-perfect-svg</metadata><path stroke="#ffffff" d="M2,2h28M2,3h1M29,3h1M2,4h1M29,4h1M2,5h1M29,5h1M2,6h1M6,6h20M29,6h1M2,7h1M6,7h20M29,7h1M2,8h1M6,8h20M29,8h1M2,9h1M6,9h8M15,9h11M29,9h1M2,10h1M6,10h7M15,10h11M29,10h1M2,11h1M6,11h6M15,11h11M29,11h1M2,12h1M6,12h5M15,12h11M29,12h1M2,13h1M6,13h4M15,13h11M29,13h1M2,14h1M6,14h3M24,14h2M29,14h1M2,15h1M6,15h2M24,15h2M29,15h1M2,16h1M6,16h2M24,16h2M29,16h1M2,17h1M6,17h3M24,17h2M29,17h1M2,18h1M6,18h4M15,18h11M29,18h1M2,19h1M6,19h5M15,19h11M29,19h1M2,20h1M6,20h6M15,20h11M29,20h1M2,21h1M6,21h7M15,21h11M29,21h1M2,22h1M6,22h8M15,22h11M29,22h1M2,23h1M6,23h20M29,23h1M2,24h1M6,24h20M29,24h1M2,25h1M6,25h20M29,25h1M2,26h1M29,26h1M2,27h1M29,27h1M2,28h1M29,28h1M2,29h28"/><path stroke="#5f5f5f" d="M3,3h26M3,4h26M3,5h26M3,6h3M26,6h3M3,7h3M26,7h3M3,8h3M26,8h3M3,9h3M14,9h1M26,9h3M3,10h3M13,10h2M26,10h3M3,11h3M12,11h3M26,11h3M3,12h3M11,12h4M26,12h3M3,13h3M10,13h5M26,13h3M3,14h3M9,14h15M26,14h3M3,15h3M8,15h16M26,15h3"/><path stroke="#323232" d="M3,16h3M8,16h16M26,16h3M3,17h3M9,17h15M26,17h3M3,18h3M10,18h5M26,18h3M3,19h3M11,19h4M26,19h3M3,20h3M12,20h3M26,20h3M3,21h3M13,21h2M26,21h3M3,22h3M14,22h1M26,22h3M3,23h3M26,23h3M3,24h3M26,24h3M3,25h3M26,25h3M3,26h26M3,27h26M3,28h26"/></svg>
