<svg xmlns="http://www.w3.org/2000/svg" shape-rendering="crispEdges" viewBox="0 -0.5 32 32" width="32" height="32"><path stroke="#f5f5f5" d="M3,2h26M2,3h28M2,4h28M2,5h28M2,6h4M26,6h4M2,7h4M26,7h4M2,8h4M10,8h12M26,8h4M2,9h4M10,9h1M14,9h4M21,9h1M26,9h4M2,10h4M10,10h1M13,10h1M18,10h1M21,10h1M26,10h4M2,11h4M10,11h1M12,11h1M15,11h2M19,11h1M21,11h1M26,11h4M2,12h4M10,12h1M12,12h1M15,12h2M19,12h1M21,12h1M26,12h4M2,13h4M10,13h1M12,13h1M19,13h1M21,13h1M26,13h4M2,14h4M10,14h1M12,14h1M15,14h2M19,14h1M21,14h1M26,14h4M2,15h4M10,15h1M13,15h6M21,15h1M26,15h4M2,16h4M10,16h1M14,16h4M21,16h1M26,16h4M2,17h4M10,17h1M21,17h1M26,17h4M2,18h4M10,18h1M12,18h8M21,18h1M26,18h4M2,19h4M10,19h1M21,19h1M26,19h4M2,20h4M10,20h1M13,20h9M26,20h4M2,21h4M10,21h1M18,21h1M20,21h1M26,21h4M2,22h4M10,22h1M18,22h2M26,22h4M2,23h4M10,23h9M26,23h4M2,24h4M26,24h4M2,25h4M26,25h4M2,26h28M2,27h28M2,28h28M3,29h26"/></svg>
