<svg xmlns="http://www.w3.org/2000/svg" shape-rendering="crispEdges" viewBox="0 -0.5 32 32" width="32" height="32"><path stroke="#f38684" d="M3,2h26M2,3h28M2,4h28M2,5h28M2,6h4M26,6h4M2,7h4M26,7h4M2,8h4M26,8h4M2,9h4M26,9h4M2,10h4M8,10h16M26,10h4M2,11h4M8,11h1M10,11h12M23,11h1M26,11h4M2,12h4M8,12h1M12,12h8M23,12h1M26,12h4M3,13h3M8,13h2M14,13h4M22,13h2M27,13h3M2,14h1M4,14h1M8,14h4M15,14h2M20,14h4M26,14h1M28,14h1M3,15h1M5,15h1M8,15h6M18,15h6M27,15h1M29,15h1M2,16h1M4,16h1M8,16h5M14,16h1M17,16h1M19,16h5M26,16h1M28,16h1M3,17h1M5,17h1M8,17h4M13,17h6M20,17h4M27,17h1M29,17h1M2,18h1M8,18h3M12,18h8M21,18h3M26,18h1M8,19h2M11,19h10M22,19h2M8,20h1M10,20h12M23,20h1M8,21h16"/><path stroke="#ffffff" d="M6,6h20M6,7h20M6,8h20M6,9h20M6,10h2M24,10h2M6,11h2M9,11h1M22,11h1M24,11h2M6,12h2M10,12h2M20,12h2M24,12h2M6,13h2M12,13h2M18,13h2M24,13h2M6,14h2M14,14h1M17,14h1M24,14h2M6,15h2M15,15h2M24,15h2M6,16h2M13,16h1M18,16h1M24,16h2M6,17h2M12,17h1M19,17h1M24,17h2M6,18h2M11,18h1M20,18h1M24,18h2M6,19h2M10,19h1M21,19h1M24,19h2M6,20h2M9,20h1M22,20h1M24,20h2M6,21h2M24,21h2M6,22h20M6,23h20M6,24h20M6,25h20"/><path stroke="#c25956" d="M9,12h1M22,12h1M2,13h1M10,13h2M20,13h2M26,13h1M3,14h1M5,14h1M12,14h2M18,14h2M27,14h1M29,14h1M2,15h1M4,15h1M14,15h1M17,15h1M26,15h1M28,15h1M3,16h1M5,16h1M15,16h2M27,16h1M29,16h1M2,17h1M4,17h1M26,17h1M28,17h1M3,18h3M27,18h3M2,19h4M26,19h4M2,20h4M26,20h4M2,21h4M26,21h4M2,22h4M26,22h4M2,23h4M26,23h4M2,24h4M26,24h4M2,25h4M26,25h4M2,26h28M2,27h28M2,28h28M3,29h26"/></svg>
