<svg xmlns="http://www.w3.org/2000/svg" shape-rendering="crispEdges" viewBox="0 -0.5 32 32" width="32" height="32"><path stroke="#5f5f5f" d="M3,2h26M2,3h28M2,4h28M2,5h28M2,6h4M26,6h4M2,7h4M26,7h4M2,8h4M9,8h2M21,8h2M26,8h4M2,9h4M9,9h3M13,9h6M20,9h3M26,9h4M2,10h4M10,10h12M26,10h4M2,11h4M10,11h12M26,11h4M2,12h4M10,12h12M26,12h4M3,13h3M10,13h12M27,13h3M2,14h1M4,14h1M10,14h12M26,14h1M28,14h1M3,15h1M5,15h1M11,15h1M13,15h1M15,15h1M17,15h1M19,15h1M27,15h1M29,15h1M2,16h1M4,16h1M14,16h1M16,16h1M18,16h1M26,16h1M28,16h1M3,17h1M5,17h1M27,17h1M29,17h1M2,18h1M26,18h1"/><path stroke="#ffffff" d="M6,6h20M6,7h20M6,8h3M11,8h10M23,8h3M6,9h3M12,9h1M19,9h1M23,9h3M6,10h4M22,10h4M6,11h4M22,11h4M6,12h3M23,12h3M6,13h3M23,13h3M6,14h3M23,14h3M6,15h3M23,15h3M6,16h3M23,16h3M6,17h4M22,17h4M6,18h5M21,18h5M6,19h1M8,19h5M19,19h7M6,20h2M10,20h4M18,20h8M6,21h3M11,21h2M19,21h7M6,22h4M19,22h7M6,23h5M19,23h7M6,24h7M19,24h7M6,25h7M19,25h7"/><path stroke="#323232" d="M9,12h1M22,12h1M2,13h1M9,13h1M22,13h1M26,13h1M3,14h1M5,14h1M9,14h1M22,14h1M27,14h1M29,14h1M2,15h1M4,15h1M9,15h2M12,15h1M14,15h1M16,15h1M18,15h1M20,15h3M26,15h1M28,15h1M3,16h1M5,16h1M9,16h5M15,16h1M17,16h1M19,16h4M27,16h1M29,16h1M2,17h1M4,17h1M10,17h12M26,17h1M28,17h1M3,18h3M11,18h10M27,18h3M2,19h4M7,19h1M13,19h6M26,19h4M2,20h4M8,20h2M14,20h4M26,20h4M2,21h4M9,21h2M13,21h6M26,21h4M2,22h4M10,22h9M26,22h4M2,23h4M11,23h8M26,23h4M2,24h4M13,24h6M26,24h4M2,25h4M13,25h6M26,25h4M2,26h28M2,27h28M2,28h28M3,29h26"/></svg>
