<svg xmlns="http://www.w3.org/2000/svg" shape-rendering="crispEdges" viewBox="0 -0.5 32 32" width="32" height="32"><path stroke="#5f5f5f" d="M3,2h26M2,3h28M2,4h28M2,5h28M2,6h4M26,6h4M2,7h4M26,7h4M2,8h4M14,8h4M26,8h4M2,9h4M14,9h4M26,9h4M2,10h4M14,10h4M26,10h4M2,11h4M14,11h4M26,11h4M2,12h4M14,12h4M26,12h4M3,13h3M15,13h3M27,13h3M2,14h1M4,14h1M14,14h1M16,14h1M26,14h1M28,14h1M3,15h1M5,15h1M15,15h1M17,15h1M27,15h1M29,15h1M2,16h1M4,16h1M14,16h1M16,16h1M26,16h1M28,16h1M3,17h1M5,17h1M9,17h1M11,17h1M13,17h1M15,17h1M17,17h1M19,17h1M21,17h1M27,17h1M29,17h1M2,18h1M10,18h1M14,18h1M18,18h1M26,18h1"/><path stroke="#ffffff" d="M6,6h20M6,7h20M6,8h8M18,8h8M6,9h8M18,9h8M6,10h8M18,10h8M6,11h8M18,11h8M6,12h8M18,12h8M6,13h8M18,13h8M6,14h8M18,14h8M6,15h8M18,15h8M6,16h8M18,16h8M6,17h3M23,17h3M6,18h4M22,18h4M6,19h5M21,19h5M6,20h6M20,20h6M6,21h7M19,21h7M6,22h8M18,22h8M6,23h2M24,23h2M6,24h20M6,25h20"/><path stroke="#323232" d="M2,13h1M14,13h1M26,13h1M3,14h1M5,14h1M15,14h1M17,14h1M27,14h1M29,14h1M2,15h1M4,15h1M14,15h1M16,15h1M26,15h1M28,15h1M3,16h1M5,16h1M15,16h1M17,16h1M27,16h1M29,16h1M2,17h1M4,17h1M10,17h1M12,17h1M14,17h1M16,17h1M18,17h1M20,17h1M22,17h1M26,17h1M28,17h1M3,18h3M11,18h3M15,18h3M19,18h3M27,18h3M2,19h4M11,19h10M26,19h4M2,20h4M12,20h8M26,20h4M2,21h4M13,21h6M26,21h4M2,22h4M14,22h4M26,22h4M2,23h4M8,23h16M26,23h4M2,24h4M26,24h4M2,25h4M26,25h4M2,26h28M2,27h28M2,28h28M3,29h26"/></svg>
