<svg xmlns="http://www.w3.org/2000/svg" shape-rendering="crispEdges" viewBox="0 -0.5 32 32" width="32" height="32"><path stroke="#f5f5f5" d="M2,2h28M2,3h1M29,3h1M2,4h1M29,4h1M2,5h1M29,5h1M2,6h1M29,6h1M2,7h1M29,7h1M2,8h1M29,8h1M2,9h1M29,9h1M2,10h1M8,10h1M14,10h4M20,10h1M26,10h1M29,10h1M2,11h1M7,11h1M9,11h1M13,11h1M18,11h1M20,11h2M25,11h2M29,11h1M2,12h1M6,12h1M10,12h1M13,12h1M18,12h1M20,12h2M25,12h2M29,12h1M2,13h1M6,13h1M10,13h1M13,13h1M20,13h2M25,13h2M29,13h1M2,14h1M6,14h1M10,14h1M13,14h1M20,14h1M22,14h1M24,14h1M26,14h1M29,14h1M2,15h1M6,15h1M10,15h1M13,15h5M20,15h1M22,15h1M24,15h1M26,15h1M29,15h1M2,16h1M29,16h1M2,17h1M29,17h1M2,18h1M29,18h1M2,19h1M29,19h1M2,20h1M29,20h1M2,21h1M29,21h1M2,22h1M29,22h1M2,23h1M29,23h1M2,24h1M29,24h1M2,25h1M29,25h1M2,26h1M29,26h1M2,27h1M29,27h1M2,28h1M29,28h1M2,29h28"/><path stroke="#1d3a60" d="M3,3h26M3,4h26M3,5h26M3,6h26M3,7h26M3,8h26M3,9h26M3,10h5M9,10h5M18,10h2M21,10h5M27,10h2M3,11h4M8,11h1M10,11h3M14,11h4M19,11h1M22,11h3M27,11h2M3,12h1M5,12h1M7,12h1M9,12h1M11,12h1M15,12h1M17,12h1M19,12h1M23,12h1M27,12h1M4,13h2M8,13h2M12,13h1M14,13h1M16,13h3M22,13h1M24,13h1M28,13h1M3,14h1M5,14h1M7,14h1M9,14h1M11,14h1M15,14h1M17,14h1M19,14h1M21,14h1M23,14h1M25,14h1M27,14h1M4,15h1M8,15h1M12,15h1M18,15h1M28,15h1M3,16h1M5,16h1M7,16h1M9,16h1M11,16h1M13,16h1M15,16h1M17,16h1M19,16h1M21,16h1M23,16h1M25,16h1M27,16h1M4,17h1M12,17h1M14,17h1M16,17h1M22,17h1M24,17h1M28,17h1M3,18h1M7,18h1M11,18h1M15,18h1M19,18h1M27,18h1M4,19h1M6,19h1M8,19h1M10,19h1M12,19h1M14,19h1M16,19h1M22,19h1M24,19h1M28,19h1"/><path stroke="#1a3051" d="M4,12h1M8,12h1M12,12h1M14,12h1M16,12h1M22,12h1M24,12h1M28,12h1M3,13h1M7,13h1M11,13h1M15,13h1M19,13h1M23,13h1M27,13h1M4,14h1M8,14h1M12,14h1M14,14h1M16,14h1M18,14h1M28,14h1M3,15h1M5,15h1M7,15h1M9,15h1M11,15h1M19,15h1M21,15h1M23,15h1M25,15h1M27,15h1M4,16h1M8,16h1M12,16h1M14,16h1M16,16h1M28,16h1M3,17h1M5,17h1M11,17h1M13,17h1M15,17h1M17,17h1M19,17h1M21,17h1M25,17h1M27,17h1M4,18h2M8,18h2M12,18h3M16,18h2M21,18h2M24,18h2M28,18h1M3,19h1M7,19h1M9,19h1M15,19h1M17,19h1M19,19h1M21,19h1M25,19h1M27,19h1M3,20h2M6,20h5M12,20h1M14,20h4M19,20h1M21,20h2M24,20h2M27,20h2M3,21h2M6,21h5M12,21h2M18,21h2M21,21h2M24,21h2M27,21h2M3,22h26M3,23h26M3,24h26M3,25h26M3,26h26M3,27h26M3,28h26"/><path stroke="#d8ccd0" d="M6,16h1M10,16h1M18,16h1M20,16h1M22,16h1M24,16h1M26,16h1M6,17h5M18,17h1M20,17h1M23,17h1M26,17h1M6,18h1M10,18h1M18,18h1M20,18h1M23,18h1M26,18h1M5,19h1M11,19h1M13,19h1M18,19h1M20,19h1M23,19h1M26,19h1M5,20h1M11,20h1M13,20h1M18,20h1M20,20h1M23,20h1M26,20h1M5,21h1M11,21h1M14,21h4M20,21h1M23,21h1M26,21h1"/></svg>
