<svg xmlns="http://www.w3.org/2000/svg" shape-rendering="crispEdges" viewBox="0 -0.5 32 32" width="32" height="32"><path stroke="#f5f5f5" d="M15,0h2M13,1h2M17,1h2M11,2h2M19,2h2M9,3h2M21,3h2M7,4h2M23,4h2M5,5h2M25,5h2M3,6h2M12,6h9M27,6h2M2,7h1M10,7h13M29,7h1M2,8h1M9,8h15M29,8h1M2,9h1M8,9h17M29,9h1M2,10h1M8,10h5M20,10h4M29,10h1M2,11h1M8,11h4M21,11h2M29,11h1M2,12h1M8,12h3M29,12h1M2,13h1M8,13h3M29,13h1M2,14h1M8,14h3M22,14h1M26,14h1M29,14h1M2,15h1M8,15h3M21,15h2M25,15h2M29,15h1M2,16h1M8,16h3M29,16h1M2,17h1M8,17h3M29,17h1M2,18h1M8,18h3M29,18h1M2,19h1M8,19h3M29,19h1M2,20h1M8,20h4M21,20h2M29,20h1M2,21h1M9,21h4M20,21h5M29,21h1M2,22h1M9,22h15M29,22h1M2,23h1M10,23h13M29,23h1M2,24h1M12,24h9M29,24h1M3,25h2M27,25h2M5,26h2M25,26h2M7,27h2M23,27h2M9,28h2M21,28h2M11,29h2M19,29h2M13,30h2M17,30h2M15,31h2"/><path stroke="#6994c8" d="M15,1h2M13,2h6M11,3h10M9,4h14M7,5h18M5,6h7M21,6h4M26,6h1M3,7h7M23,7h1M25,7h1M3,8h6M24,8h1M3,9h5M3,10h5M13,10h6M3,11h4M12,11h6M19,11h1M3,12h4M11,12h6M18,12h1M3,13h4M11,13h3M15,13h1M17,13h1M3,14h4M11,14h2M14,14h1M16,14h1M3,15h4M11,15h1M13,15h1M3,16h4M12,16h1M3,17h4M11,17h1M3,18h4M3,19h3M3,20h2M6,20h1M3,21h1M5,21h1M4,22h1"/><path stroke="#5c7baa" d="M25,6h1M24,7h1M26,7h3M25,8h2M25,9h1M19,10h1M18,11h1M20,11h1M17,12h1M19,12h2M14,13h1M16,13h1M18,13h2M13,14h1M15,14h1M17,14h1M12,15h1M14,15h3M11,16h1M13,16h2M12,17h2M11,18h1M6,19h1M5,20h1M4,21h1M6,21h2M3,22h1M5,22h1M3,23h2"/><path stroke="#285581" d="M27,8h2M26,9h3M24,10h5M23,11h6M21,12h8M20,13h9M18,14h4M23,14h3M27,14h2M18,15h3M24,15h1M28,15h1M19,16h3M23,16h3M27,16h2M20,17h9M22,18h7M23,19h6M25,20h4M26,21h3M28,22h1"/><path stroke="#d8ccd0" d="M7,11h1M7,12h1M7,13h1M7,14h1M7,15h1M23,15h1M27,15h1M7,16h1M22,16h1M26,16h1M7,17h1M7,18h1M7,19h1M7,20h1M8,21h1M8,22h1M24,22h1M9,23h1M23,23h1M10,24h2M21,24h2M12,25h9"/><path stroke="#23476d" d="M17,15h1M17,16h2M19,17h1M20,18h2M22,19h1M23,20h2M25,21h1M26,22h2M28,23h1"/><path stroke="#11304e" d="M15,16h2M14,17h5M12,18h8M11,19h11M12,20h9M13,21h7M6,22h1M5,23h1M7,23h1M25,23h1M27,23h1M6,24h1M8,24h1M24,24h1M26,24h1M7,25h1M9,25h1M23,25h1M10,26h1M22,26h1M11,27h1M13,27h1M15,27h1M17,27h1M19,27h1M14,28h1M16,28h1M18,28h1M15,29h1"/><path stroke="#0f2842" d="M7,22h1M25,22h1M6,23h1M8,23h1M24,23h1M26,23h1M3,24h3M7,24h1M9,24h1M23,24h1M25,24h1M27,24h2M5,25h2M8,25h1M10,25h2M21,25h2M24,25h3M7,26h3M11,26h11M23,26h2M9,27h2M12,27h1M14,27h1M16,27h1M18,27h1M20,27h3M11,28h3M15,28h1M17,28h1M19,28h2M13,29h2M16,29h3M15,30h2"/></svg>
