<svg xmlns="http://www.w3.org/2000/svg" shape-rendering="crispEdges" viewBox="0 -0.5 32 32" width="32" height="32"><path stroke="#f5f5f5" d="M1,1h30M1,2h2M17,2h1M30,2h1M1,3h1M3,3h1M18,3h1M30,3h1M1,4h1M4,4h1M19,4h1M30,4h1M1,5h1M5,5h1M20,5h1M30,5h1M1,6h1M6,6h1M21,6h1M30,6h1M1,7h1M7,7h1M30,7h1M1,8h1M8,8h13M22,8h1M30,8h1M1,9h1M9,9h1M30,9h1M1,10h1M10,10h1M30,10h1M1,11h1M11,11h1M30,11h1M1,12h1M12,12h1M30,12h1M1,13h1M13,13h1M30,13h1M1,14h1M14,14h1M30,14h1M1,15h1M15,15h1M30,15h1M1,16h1M16,16h1M30,16h1M1,17h1M30,17h1M1,18h1M30,18h1M1,19h1M30,19h1M1,20h1M30,20h1M1,21h1M30,21h1M1,22h1M30,22h1M1,23h1M30,23h1M1,24h1M30,24h1M1,25h1M30,25h1M1,26h1M30,26h1M1,27h1M30,27h1M1,28h1M30,28h1M1,29h1M30,29h1M1,30h30"/><path stroke="#4a9730" d="M3,2h14M4,3h14M5,4h14M6,5h14M7,6h14M8,7h14M23,9h1M22,10h1M21,11h1M20,12h1M19,13h1M18,14h1M17,15h1"/><path stroke="#316781" d="M18,2h9M28,2h1M19,3h7M27,3h1M29,3h1M20,4h5M26,4h1M28,4h1M21,5h3M25,5h1M27,5h1M22,6h1M24,6h1M26,6h1M23,7h1M25,7h1M24,8h1M15,17h1M14,18h1M13,19h1M12,20h1M11,21h1M10,22h1M9,23h1M8,24h1M7,25h1M6,26h1M5,27h1M4,28h1M3,29h1"/><path stroke="#2b566d" d="M27,2h1M29,2h1M26,3h1M28,3h1M25,4h1M27,4h1M29,4h1M24,5h1M26,5h1M28,5h2M23,6h1M25,6h1M27,6h3M24,7h1M26,7h4M25,8h5M25,9h5M26,10h4M27,11h3M28,12h2M29,13h1M16,17h1M15,18h3M14,19h5M13,20h7M12,21h9M11,22h11M10,23h13M9,24h15M8,25h17M7,26h19M6,27h21M5,28h23M4,29h25"/><path stroke="#334852" d="M2,3h1M2,4h2M2,5h3M2,6h4M2,7h5M2,8h6M2,9h7M2,10h8M2,11h9M2,12h10M2,13h11M2,14h12M2,15h12M2,16h11M14,16h1M2,17h10M13,17h1M2,18h9M12,18h1M2,19h8M11,19h1M2,20h7M10,20h1M2,21h6M9,21h1M2,22h5M8,22h1M2,23h4M7,23h1M2,24h3M6,24h1M2,25h2M5,25h1M2,26h1M4,26h1M3,27h1M2,28h1"/><path stroke="#d8ccd0" d="M22,7h1M21,8h1M23,8h1M22,9h1M24,9h1M21,10h1M25,10h1M20,11h1M26,11h1M19,12h1M27,12h1M18,13h1M28,13h1M17,14h1M29,14h1M16,15h1M15,16h1M14,17h1M17,17h1M29,17h1M13,18h1M18,18h1M28,18h1M12,19h1M19,19h1M27,19h1M11,20h1M20,20h1M26,20h1M10,21h1M21,21h1M25,21h1M9,22h1M22,22h1M24,22h1M8,23h1M23,23h1M7,24h1M24,24h1M6,25h1M25,25h1M5,26h1M26,26h1M4,27h1M27,27h1M3,28h1M28,28h1M2,29h1M29,29h1"/><path stroke="#b47a21" d="M10,9h10M21,9h1M11,10h8M20,10h1M12,11h6M19,11h1M13,12h4M18,12h1M14,13h2M17,13h1M16,14h1"/><path stroke="#9e661c" d="M20,9h1M19,10h1M18,11h1M17,12h1M16,13h1M15,14h1M29,18h1M28,19h2M27,20h3M26,21h4M25,22h5M24,23h6M25,24h5M26,25h4M27,26h3M28,27h2M29,28h1"/><path stroke="#417e29" d="M23,10h2M22,11h4M21,12h6M20,13h8M19,14h10M18,15h12M17,16h13M18,17h11M19,18h9M20,19h7M21,20h5M22,21h3M23,22h1"/><path stroke="#2d3c46" d="M14,15h1M13,16h1M12,17h1M11,18h1M10,19h1M9,20h1M8,21h1M7,22h1M6,23h1M5,24h1M4,25h1M3,26h1M2,27h1"/></svg>
