<svg xmlns="http://www.w3.org/2000/svg" shape-rendering="crispEdges" viewBox="0 -0.5 32 32" width="32" height="32"><path stroke="#f5f5f5" d="M2,3h6M9,3h5M2,4h1M8,4h1M14,4h1M2,5h1M8,5h1M14,5h1M3,6h1M9,6h1M15,6h1M4,7h1M10,7h1M16,7h1M4,8h1M10,8h1M16,8h1M5,9h1M11,9h1M17,9h1M6,10h1M12,10h1M18,10h12M6,11h1M12,11h1M18,11h1M30,11h1M7,12h1M13,12h1M19,12h1M30,12h1M8,13h1M14,13h1M20,13h1M30,13h1M8,14h1M14,14h1M20,14h10M9,15h1M15,15h1M21,15h1M30,15h1M8,16h1M14,16h1M22,16h1M30,16h1M8,17h1M14,17h1M22,17h1M30,17h1M7,18h1M13,18h1M23,18h7M6,19h1M12,19h1M24,19h1M6,20h1M12,20h1M18,20h1M24,20h1M5,21h1M11,21h1M17,21h1M19,21h1M25,21h1M4,22h1M10,22h1M16,22h1M20,22h1M26,22h1M4,23h1M10,23h1M16,23h1M20,23h1M26,23h1M3,24h1M9,24h1M15,24h1M21,24h1M27,24h1M2,25h1M8,25h1M14,25h1M22,25h1M28,25h1M2,26h1M8,26h1M14,26h1M22,26h1M28,26h1M2,27h1M7,27h1M13,27h1M23,27h1M29,27h1M3,28h4M8,28h5M24,28h5"/><path stroke="#2a2356" d="M3,4h5M3,5h5M4,6h5M5,7h5M5,8h5M6,9h5M7,10h5M7,11h5M8,12h5M9,13h1M11,13h1M13,13h1M10,14h1M12,14h1M11,15h1M13,15h1"/><path stroke="#413977" d="M9,4h5M9,5h5M10,6h5M11,7h5M11,8h5M12,9h5M13,10h5M13,11h5M14,12h5M15,13h1M17,13h1M19,13h1M16,14h1M18,14h1M17,15h1M19,15h1"/><path stroke="#573988" d="M19,11h11M20,12h10M21,13h1M23,13h1M25,13h1M27,13h1M29,13h1M23,15h1M25,15h1M27,15h1M29,15h1"/><path stroke="#251d49" d="M10,13h1M12,13h1M9,14h1M11,14h1M13,14h1M10,15h1M12,15h1M14,15h1M9,16h5M9,17h5M8,18h5M7,19h5M7,20h5M6,21h5M5,22h5M5,23h5M4,24h5M3,25h5M3,26h5M3,27h4"/><path stroke="#392f65" d="M16,13h1M18,13h1M15,14h1M17,14h1M19,14h1M16,15h1M18,15h1M20,15h1M15,16h7M15,17h7M14,18h9M13,19h11M13,20h5M19,20h5M12,21h5M20,21h5M11,22h5M21,22h5M11,23h5M21,23h5M10,24h5M22,24h5M9,25h5M23,25h5M9,26h5M23,26h5M8,27h5M24,27h5"/><path stroke="#4d2f73" d="M22,13h1M24,13h1M26,13h1M28,13h1M22,15h1M24,15h1M26,15h1M28,15h1M23,16h7M23,17h7"/></svg>
