<svg xmlns="http://www.w3.org/2000/svg" shape-rendering="crispEdges" viewBox="0 -0.5 32 32" width="32" height="32"><path stroke="#f5f5f5" d="M4,2h24M3,3h1M28,3h1M3,4h1M28,4h1M4,5h1M27,5h1M4,6h1M27,6h1M4,7h1M15,7h1M17,7h7M27,7h1M4,8h1M14,8h1M16,8h1M18,8h6M27,8h1M5,9h1M26,9h1M5,10h1M26,10h1M5,11h1M26,11h1M5,12h1M26,12h1M5,13h1M15,13h1M17,13h6M26,13h1M5,14h1M14,14h1M16,14h1M18,14h5M26,14h1M5,15h1M15,15h1M17,15h6M26,15h1M5,16h1M21,16h2M26,16h1M5,17h1M21,17h2M26,17h1M6,18h1M20,18h3M25,18h1M6,19h1M20,19h3M25,19h1M6,20h1M19,20h3M25,20h1M6,21h1M18,21h4M25,21h1M6,22h1M14,22h1M16,22h1M18,22h3M25,22h1M6,23h1M15,23h1M17,23h2M25,23h1M6,24h1M16,24h1M25,24h1M7,25h1M24,25h1M8,26h1M23,26h1M9,27h2M21,27h2M11,28h3M18,28h3M14,29h4"/><path stroke="#882418" d="M4,3h11M16,3h1M4,4h10M15,4h1M5,5h10M5,6h9M15,6h1M5,7h3M5,8h3M6,9h2M11,9h4M6,10h2M11,10h3M15,10h1M6,11h3M11,11h4M6,12h3M11,12h3M15,12h1M6,13h3M6,14h3M6,15h3M6,16h8M15,16h1M6,17h9M7,18h2M12,18h2M15,18h1M7,19h2M12,19h3M7,20h3M13,20h1M15,20h1M7,21h3M14,21h1M7,22h4M7,23h6M7,24h7M8,25h7M9,26h5M15,26h1M11,27h4M15,28h1M17,28h1"/><path stroke="#9b2b1c" d="M15,3h1M17,3h11M14,4h1M27,4h1M15,5h1M26,5h1M14,6h1M26,6h1M26,7h1M26,8h1M15,9h1M25,9h1M14,10h1M25,10h1M15,11h1M25,11h1M14,12h1M25,12h1M25,13h1M25,14h1M25,15h1M14,16h1M25,16h1M15,17h1M25,17h1M14,18h1M24,18h1M15,19h1M24,19h1M14,20h1M24,20h1M15,21h1M24,21h1M24,22h1M24,23h1M14,24h1M24,24h1M15,25h1M23,25h1M14,26h1M21,26h2M15,27h1M18,27h3M14,28h1M16,28h1"/><path stroke="#cb3d2a" d="M16,4h1M18,4h9M17,5h9M16,6h1M18,6h8M24,7h2M24,8h2M17,9h8M16,10h1M18,10h7M17,11h8M16,12h1M18,12h7M23,13h2M23,14h2M23,15h2M16,16h1M18,16h3M23,16h2M17,17h4M23,17h2M16,18h1M18,18h2M23,18h1M17,19h3M23,19h1M16,20h1M18,20h1M22,20h2M17,21h1M22,21h2M21,22h3M19,23h5M18,24h6M17,25h6M16,26h1M18,26h3M17,27h1"/><path stroke="#b33324" d="M17,4h1M16,5h1M17,6h1M16,9h1M17,10h1M16,11h1M17,12h1M17,16h1M16,17h1M17,18h1M16,19h1M17,20h1M16,21h1M17,24h1M16,25h1M17,26h1M16,27h1"/><path stroke="#d8ccd0" d="M8,7h7M16,7h1M8,8h6M15,8h1M17,8h1M8,9h3M8,10h3M9,11h2M9,12h2M9,13h6M16,13h1M9,14h5M15,14h1M17,14h1M9,15h6M16,15h1M9,18h3M9,19h3M10,20h3M10,21h4M11,22h3M15,22h1M17,22h1M13,23h2M16,23h1M15,24h1"/></svg>
