<svg xmlns="http://www.w3.org/2000/svg" shape-rendering="crispEdges" viewBox="0 -0.5 32 32" width="32" height="32"><path stroke="#f5f5f5" d="M6,2h20M6,3h1M8,3h2M11,3h1M15,3h1M17,3h3M21,3h1M23,3h3M6,4h1M8,4h2M11,4h2M14,4h2M18,4h1M21,4h1M23,4h3M6,5h1M11,5h2M14,5h2M21,5h1M23,5h3M6,6h1M8,6h2M11,6h2M14,6h2M17,6h1M19,6h1M21,6h1M23,6h3M6,7h1M8,7h2M11,7h2M14,7h2M17,7h3M21,7h1M25,7h1M6,8h20M5,9h1M26,9h1M5,10h1M26,10h1M6,11h1M25,11h1M6,12h1M15,12h1M17,12h4M25,12h1M6,13h1M16,13h5M25,13h1M7,14h1M24,14h1M7,15h1M24,15h1M7,16h1M24,16h1M7,17h1M24,17h1M7,18h1M15,18h1M17,18h4M24,18h1M7,19h1M16,19h5M24,19h1M7,20h1M19,20h2M24,20h1M8,21h1M19,21h2M23,21h1M8,22h1M19,22h2M23,22h1M8,23h1M18,23h3M23,23h1M8,24h1M15,24h1M17,24h3M23,24h1M8,25h1M16,25h2M23,25h1M9,26h1M22,26h1M10,27h2M20,27h2M12,28h3M17,28h3M15,29h2"/><path stroke="#323232" d="M7,3h1M10,3h1M12,3h3M16,3h1M20,3h1M22,3h1M7,4h1M10,4h1M13,4h1M16,4h2M19,4h2M22,4h1M7,5h4M13,5h1M16,5h1M18,5h1M20,5h1M22,5h1"/><path stroke="#2c2a2a" d="M17,5h1M19,5h1M7,6h1M10,6h1M13,6h1M16,6h1M18,6h1M20,6h1M22,6h1M7,7h1M10,7h1M13,7h1M16,7h1M20,7h1M22,7h3"/><path stroke="#b33324" d="M6,9h20M6,10h9M16,10h1M25,10h1M7,11h9M24,11h1M7,12h3M24,12h1M7,13h3M24,13h1M8,14h3M13,14h2M16,14h1M23,14h1M8,15h3M13,15h3M23,15h1M8,16h3M13,16h2M16,16h1M23,16h1M8,17h3M14,17h2M23,17h1M8,18h4M23,18h1M8,19h4M23,19h1M8,20h7M16,20h1M23,20h1M9,21h2M13,21h3M22,21h1M9,22h2M13,22h2M16,22h1M22,22h1M9,23h2M14,23h2M22,23h1M9,24h3M22,24h1M9,25h5M22,25h1M10,26h5M16,26h1M20,26h2M12,27h4M17,27h3M15,28h2"/><path stroke="#cb3d2a" d="M15,10h1M17,10h8M16,11h8M21,12h3M21,13h3M15,14h1M17,14h6M16,15h7M15,16h1M17,16h6M16,17h7M21,18h2M21,19h2M15,20h1M17,20h2M21,20h2M16,21h3M21,21h1M15,22h1M17,22h2M21,22h1M16,23h2M21,23h1M20,24h2M18,25h4M15,26h1M17,26h3M16,27h1"/><path stroke="#d8ccd0" d="M10,12h5M16,12h1M10,13h6M11,14h2M11,15h2M11,16h2M11,17h3M12,18h3M16,18h1M12,19h4M11,21h2M11,22h2M11,23h3M12,24h3M16,24h1M14,25h2"/></svg>
