<svg xmlns="http://www.w3.org/2000/svg" shape-rendering="crispEdges" viewBox="0 -0.5 32 32" width="32" height="32"><path stroke="#f5f5f5" d="M16,1h1M15,2h1M17,2h1M15,3h1M17,3h1M14,4h1M16,4h1M14,5h1M16,5h1M20,5h1M13,6h1M15,6h1M18,6h2M21,6h1M13,7h1M15,7h1M17,7h1M20,7h1M12,8h1M14,8h1M16,8h1M19,8h1M11,9h1M14,9h2M19,9h1M11,10h1M15,10h2M20,10h1M11,11h1M16,11h2M21,11h1M12,12h1M16,12h4M22,12h1M13,13h2M17,13h4M22,13h1M17,14h2M24,14h2M10,15h4M16,15h2M19,15h3M23,15h1M26,15h1M7,16h3M14,16h7M22,16h1M24,16h2M27,16h1M6,17h1M10,17h6M21,17h5M27,17h1M7,18h3M16,18h10M27,18h1M10,19h15M26,19h1M9,20h1M11,20h9M21,20h2M25,20h1M10,21h1M20,21h1M23,21h2M11,22h10M6,23h2M10,23h1M12,23h7M21,23h1M25,23h1M5,24h1M8,24h1M11,24h1M19,24h2M24,24h1M26,24h1M4,25h1M6,25h2M12,25h2M18,25h2M25,25h1M27,25h1M4,26h1M6,26h19M26,26h1M5,27h1M25,27h2M6,28h20M27,28h1M11,29h1M26,29h1M12,30h14"/><path stroke="#d57627" d="M16,2h1M16,3h1M15,4h1M15,5h1M14,6h1M20,6h1M14,7h1M18,7h2M13,8h1M17,8h2M12,9h2M16,9h3M12,10h3M17,10h2M12,11h3"/><path stroke="#ad5d1b" d="M19,10h1M15,11h1M18,11h3M13,12h3M20,12h2M15,13h2M21,13h1M16,14h1M19,14h2M15,15h1M18,15h1"/><path stroke="#f5f5f5" opacity="0.9921568627450981" d="M15,14h1"/><path stroke="#f5f5f5" opacity="0.9803921568627451" d="M21,14h1"/><path stroke="#ffffff" opacity="0.0196078431372549" d="M22,14h1"/><path stroke="#f9f9f9" d="M14,15h1"/><path stroke="#3b5e8b" d="M24,15h2M21,16h1M23,16h1M26,16h1M16,17h5M26,17h1M26,18h1M25,19h1M20,20h1M23,20h2M16,21h4M19,23h2M16,24h3M25,24h1M14,25h4M26,25h1M25,26h1M19,27h6M26,28h1M19,29h7"/><path stroke="#6485b0" d="M10,16h4M7,17h3M10,18h6M10,20h1M11,21h5M11,23h1M6,24h2M12,24h4M5,25h1M5,26h1M6,27h13M12,29h7"/></svg>
