<svg xmlns="http://www.w3.org/2000/svg" shape-rendering="crispEdges" viewBox="0 -0.5 32 32" width="32" height="32"><path stroke="#f5f5f5" d="M0,0h32M0,1h1M31,1h1M0,2h1M31,2h1M0,3h1M31,3h1M0,4h1M31,4h1M0,5h1M31,5h1M0,6h1M31,6h1M0,7h1M31,7h1M0,8h1M31,8h1M0,9h1M31,9h1M0,10h1M31,10h1M0,11h1M31,11h1M0,12h1M31,12h1M0,13h1M31,13h1M0,14h1M31,14h1M0,15h1M31,15h1M0,16h1M31,16h1M0,17h1M31,17h1M0,18h1M31,18h1M0,19h1M31,19h1M0,20h1M31,20h1M0,21h1M31,21h1M0,22h1M31,22h1M0,23h1M31,23h1M0,24h1M31,24h1M0,25h1M31,25h1M0,26h1M31,26h1M0,27h1M31,27h1M0,28h1M31,28h1M0,29h1M31,29h1M0,30h1M31,30h1M0,31h1M31,31h1"/><path stroke="#f0db4f" d="M1,1h30M1,2h30M1,3h30M1,4h30M1,5h30M1,6h30M1,7h30M1,8h30M1,9h30M1,10h30M1,11h30M1,12h30M1,13h30M1,14h13M17,14h4M29,14h2M1,15h13M17,15h3M29,15h2M1,16h13M17,16h2M29,16h2M1,17h13M17,17h2M23,17h8M1,18h13M17,18h2M22,18h9M1,19h1M3,19h1M5,19h1M7,19h1M9,19h1M11,19h1M13,19h1M17,19h1M23,19h1M25,19h1M27,19h1M29,19h1M2,20h1M4,20h1M6,20h1M8,20h1M10,20h1M12,20h1M18,20h1M24,20h1M26,20h1M28,20h1M30,20h1M1,21h1M3,21h1M5,21h1M7,21h1M9,21h1M11,21h1M13,21h1M17,21h1M27,21h1M29,21h1M2,22h1M4,22h1M6,22h1M8,22h1M10,22h1M12,22h1M18,22h1M20,22h1M30,22h1"/><path stroke="#403d3d" d="M14,14h3M21,14h8M14,15h3M20,15h9M14,16h3M19,16h10M14,17h3M19,17h4M14,18h3M19,18h3M15,19h1M19,19h1M21,19h1M14,20h1M16,20h1M20,20h1M22,20h1M15,21h1M19,21h1M21,21h1M23,21h1M25,21h1M14,22h1M16,22h1M22,22h1M24,22h1M26,22h1M28,22h1"/><path stroke="#d3b643" d="M2,19h1M4,19h1M6,19h1M8,19h1M10,19h1M12,19h1M18,19h1M22,19h1M24,19h1M26,19h1M28,19h1M30,19h1M1,20h1M3,20h1M5,20h1M7,20h1M9,20h1M11,20h1M13,20h1M17,20h1M23,20h1M25,20h1M27,20h1M29,20h1M2,21h1M4,21h1M6,21h1M8,21h1M10,21h1M12,21h1M18,21h1M28,21h1M30,21h1M1,22h1M3,22h1M5,22h1M7,22h1M9,22h1M11,22h1M13,22h1M17,22h1M19,22h1M29,22h1M1,23h13M17,23h8M29,23h2M1,24h13M17,24h9M29,24h2M1,25h13M17,25h9M29,25h2M1,26h12M17,26h8M29,26h2M1,27h7M17,27h2M29,27h2M1,28h7M16,28h3M28,28h3M1,29h7M15,29h4M27,29h4M1,30h30"/><path stroke="#383334" d="M14,19h1M16,19h1M20,19h1M15,20h1M19,20h1M21,20h1M14,21h1M16,21h1M20,21h1M22,21h1M24,21h1M26,21h1M15,22h1M21,22h1M23,22h1M25,22h1M27,22h1M14,23h3M25,23h4M14,24h3M26,24h3M14,25h3M26,25h3M13,26h4M25,26h4M8,27h9M19,27h10M8,28h8M19,28h9M8,29h7M19,29h8"/><path stroke="#d8ccd0" d="M1,31h30"/></svg>
