<svg xmlns="http://www.w3.org/2000/svg" shape-rendering="crispEdges" viewBox="0 -0.5 32 32" width="32" height="32"><path stroke="#ffffff" d="M3,6h3M11,6h7M23,6h2M28,6h2M2,7h1M6,7h1M8,7h1M10,7h1M18,7h1M22,7h1M25,7h1M27,7h1M30,7h1M3,8h1M5,8h3M9,8h2M12,8h2M15,8h2M18,8h1M23,8h1M25,8h1M27,8h1M29,8h1M3,9h1M5,9h2M8,9h1M10,9h4M15,9h3M23,9h1M25,9h1M27,9h1M29,9h1M3,10h1M5,10h2M8,10h1M10,10h4M15,10h7M24,10h1M26,10h1M28,10h1M3,11h1M5,11h2M8,11h1M10,11h4M15,11h1M22,11h1M24,11h1M26,11h1M28,11h1M3,12h1M5,12h2M10,12h4M15,12h2M18,12h4M23,12h3M27,12h1M3,13h1M5,13h2M8,13h1M10,13h4M15,13h2M18,13h8M27,13h1M3,14h1M5,14h2M8,14h1M10,14h4M15,14h2M18,14h7M26,14h1M28,14h1M3,15h1M5,15h1M8,15h1M11,15h3M15,15h2M18,15h7M26,15h1M28,15h1M3,16h1M5,16h9M15,16h2M18,16h3M22,16h2M25,16h1M27,16h1M29,16h1M3,17h1M5,17h3M9,17h5M15,17h2M22,17h2M25,17h1M27,17h1M29,17h1M2,18h1M9,18h4M16,18h1M18,18h3M22,18h1M25,18h1M27,18h1M30,18h1M3,19h6M13,19h4M18,19h1M21,19h1M23,19h2M28,19h2M16,20h1M18,20h1M16,21h1M18,21h1M22,21h1M16,22h1M18,22h4M23,22h1M15,23h1M22,23h1M16,24h6"/><path stroke="#323232" d="M3,7h3M11,7h7M23,7h2M28,7h2M4,8h1M8,8h1M11,8h1M14,8h1M17,8h1M24,8h1M28,8h1M4,9h1M7,9h1M9,9h1M14,9h1M24,9h1M28,9h1M4,10h1M7,10h1M9,10h1M14,10h1M25,10h1M27,10h1M4,11h1M7,11h1M9,11h1M14,11h1M16,11h6M25,11h1M27,11h1M4,12h1M7,12h3M14,12h1M17,12h1M22,12h1M26,12h1M4,13h1M7,13h1M9,13h1M14,13h1M17,13h1M26,13h1M4,14h1M7,14h1M9,14h1M14,14h1M17,14h1M25,14h1M27,14h1M4,15h1M6,15h2M9,15h2M14,15h1M17,15h1M25,15h1M27,15h1M4,16h1M14,16h1M17,16h1M21,16h1M24,16h1M28,16h1M4,17h1M8,17h1M14,17h1M17,17h5M24,17h1M28,17h1M3,18h6M13,18h3M17,18h1M21,18h1M23,18h2M28,18h2M17,19h1M17,20h1M17,21h1M17,22h1M22,22h1M16,23h6"/></svg>
