<svg xmlns="http://www.w3.org/2000/svg" shape-rendering="crispEdges" viewBox="0 -0.5 32 32" width="32" height="32"><path stroke="#f5f5f5" d="M18,1h4M17,2h1M22,2h3M17,3h1M25,3h1M17,4h1M26,4h1M17,5h1M27,5h1M17,6h1M28,6h1M16,7h1M18,7h4M28,7h1M15,8h1M17,8h1M22,8h1M28,8h1M15,9h1M18,9h1M23,9h1M29,9h1M8,10h1M14,10h1M19,10h1M23,10h1M29,10h1M6,11h2M9,11h1M13,11h1M20,11h1M23,11h1M29,11h1M4,12h2M10,12h1M13,12h1M21,12h1M23,12h1M29,12h1M3,13h1M10,13h1M12,13h1M21,13h1M23,13h1M29,13h1M2,14h1M11,14h1M20,14h1M23,14h1M29,14h1M3,15h1M19,15h1M23,15h1M29,15h1M3,16h1M19,16h1M23,16h1M29,16h1M4,17h1M18,17h1M22,17h1M28,17h1M5,18h1M17,18h5M28,18h1M5,19h1M17,19h1M28,19h1M6,20h1M16,20h2M27,20h1M7,21h1M15,21h1M17,21h1M26,21h1M6,22h1M15,22h1M17,22h1M25,22h1M5,23h1M14,23h1M17,23h1M22,23h3M5,24h1M13,24h1M18,24h4M4,25h1M13,25h1M5,26h1M12,26h1M6,27h1M11,27h1M7,28h1M11,28h1M8,29h1M10,29h1M9,30h1"/><path stroke="#0a52cc" d="M18,2h4M18,3h7M18,4h8M18,5h9M18,6h10M22,7h6M23,8h5M24,9h5M24,10h5M24,11h5M24,12h5M24,13h1M26,13h1M28,13h1M25,14h1M27,14h1M24,15h1M26,15h1M28,15h1M25,16h1M27,16h1M24,17h1M26,17h1M25,18h1M18,19h1M20,19h1M22,19h1M24,19h1M26,19h1"/><path stroke="#1a3769" d="M16,8h1M16,9h2M15,10h4M14,11h6M14,12h7M13,13h8M12,14h8M12,15h7M12,16h7M14,17h1M16,17h1M14,19h1M16,19h1M15,20h1M6,23h1M6,24h2M12,24h1M5,25h4M10,25h3M6,26h6M7,27h4M8,28h3M9,29h1"/><path stroke="#7b9eda" d="M8,11h1M6,12h4M4,13h6M3,14h8M4,15h8M4,16h8M6,17h1M8,17h1M10,17h1M12,17h1M9,18h1M13,18h1M6,19h1M8,19h1M10,19h1M12,19h1M7,20h1M9,20h1M11,20h1M13,20h1M8,21h1M10,21h1M12,21h1M9,22h1M11,22h1"/><path stroke="#0944ad" d="M25,13h1M27,13h1M24,14h1M26,14h1M28,14h1M25,15h1M27,15h1M24,16h1M26,16h1M28,16h1M23,17h1M25,17h1M27,17h1M22,18h3M26,18h2M19,19h1M21,19h1M23,19h1M25,19h1M27,19h1M18,20h9M18,21h8M18,22h7M18,23h4"/><path stroke="#6c84b9" d="M5,17h1M7,17h1M9,17h1M11,17h1M6,18h3M10,18h3M7,19h1M9,19h1M11,19h1M13,19h1M8,20h1M10,20h1M12,20h1M14,20h1M9,21h1M11,21h1M13,21h1M8,22h1M10,22h1M9,23h1"/><path stroke="#172e59" d="M13,17h1M15,17h1M17,17h1M14,18h3M15,19h1M14,21h1M7,22h1M12,22h3M7,23h2M10,23h4M8,24h4M9,25h1"/></svg>
