<svg xmlns="http://www.w3.org/2000/svg" shape-rendering="crispEdges" viewBox="0 -0.5 32 32" width="32" height="32"><path stroke="#f5f5f5" d="M9,2h14M6,3h3M23,3h3M5,4h1M26,4h1M4,5h1M27,5h1M3,6h1M28,6h1M3,7h1M28,7h1M3,8h1M28,8h1M2,9h1M29,9h1M2,10h1M29,10h1M2,11h1M29,11h1M2,12h1M29,12h1M2,13h1M29,13h1M2,14h1M29,14h1M2,15h1M29,15h1M2,16h1M29,16h1M2,17h1M29,17h1M2,18h1M29,18h1M2,19h1M29,19h1M2,20h1M29,20h1M2,21h1M29,21h1M2,22h1M29,22h1M3,23h1M28,23h1M3,24h1M28,24h1M3,25h1M28,25h1M4,26h1M27,26h1M5,27h1M26,27h1M6,28h3M23,28h3M9,29h14"/><path stroke="#606060" d="M9,3h14M6,4h20M5,5h3M10,5h12M24,5h3M4,6h3M25,6h3M4,7h2M26,7h2M4,8h2M26,8h2M3,9h3M23,9h1M26,9h3M3,10h3M23,10h1M26,10h3M3,11h3M23,11h2M26,11h3M3,12h3M24,12h1M26,12h3M3,13h3M24,13h5M3,14h1M5,14h1M25,14h1M27,14h1M4,15h1M24,15h1M26,15h1M28,15h1"/><path stroke="#d04f3f" d="M8,5h2M22,5h2M10,6h2M20,6h2M11,7h10M11,8h10M10,9h12M10,10h12M13,11h6M14,12h4M14,13h4M14,14h4M9,15h1M13,15h1M18,15h1M22,15h1"/><path stroke="#182036" d="M7,6h2M12,6h8M23,6h2M6,7h4M22,7h4M6,8h4M22,8h4M6,9h3M24,9h2M6,10h3M24,10h2M6,11h3M25,11h1M6,12h2M25,12h1M6,13h2M7,14h1M6,15h1"/><path stroke="#b74236" d="M9,6h1M22,6h1M10,7h1M21,7h1M10,8h1M21,8h1M9,9h1M22,9h1M9,10h1M22,10h1M9,11h1M22,11h1M8,12h1M23,12h1M8,13h1M23,13h1M8,14h1M23,14h1M8,15h1M23,15h1M8,16h6M18,16h6M8,17h6M18,17h6M9,18h1M11,18h1M13,18h2M17,18h2M20,18h1M22,18h1M9,19h2M12,19h8M21,19h2M8,20h16M8,21h16M8,22h16M7,23h3M13,23h6M22,23h3M6,24h1M11,24h2M14,24h4M19,24h2M25,24h1"/><path stroke="#ffffff" d="M10,11h3M19,11h3M9,12h5M18,12h5M9,13h3M13,13h1M18,13h3M22,13h1"/><path stroke="#000000" d="M12,13h1M21,13h1M11,14h2M20,14h2"/><path stroke="#555051" d="M4,14h1M24,14h1M26,14h1M28,14h1M3,15h1M5,15h1M25,15h1M27,15h1M3,16h3M24,16h5M3,17h3M24,17h5M3,18h3M23,18h6M3,19h3M23,19h2M26,19h3M3,20h3M24,20h1M26,20h3M3,21h3M26,21h3M3,22h3M26,22h3M4,23h2M26,23h2M4,24h2M21,24h1M26,24h2M4,25h3M25,25h3M5,26h8M14,26h4M19,26h8M6,27h20M9,28h14"/><path stroke="#151b2e" d="M6,14h1M7,15h1M6,16h2M6,17h2M6,18h3M6,19h3M25,19h1M6,20h2M25,20h1M6,21h2M24,21h2M6,22h2M24,22h2M6,23h1M25,23h1M7,24h2M10,24h1M23,24h2M7,25h2M10,25h3M14,25h4M19,25h3M23,25h2"/><path stroke="#e0d4d9" d="M9,14h2M13,14h1M18,14h2M22,14h1M10,15h3M19,15h3"/><path stroke="#504746" d="M14,15h4"/><path stroke="#463b3b" d="M14,16h4M14,17h4M15,18h2M10,23h3M19,23h3M9,24h1M13,24h1M18,24h1M22,24h1M9,25h1M13,25h1M18,25h1M22,25h1M13,26h1M18,26h1"/><path stroke="#a3372c" d="M10,18h1M12,18h1M19,18h1M21,18h1M11,19h1M20,19h1"/></svg>
