<svg xmlns="http://www.w3.org/2000/svg" shape-rendering="crispEdges" viewBox="0 -0.5 32 32" width="32" height="32"><path stroke="#f5f5f5" d="M12,3h8M11,4h1M20,4h1M10,5h1M21,5h1M10,6h1M13,6h1M21,6h1M10,7h1M12,7h3M21,7h1M10,8h1M13,8h1M21,8h1M10,9h1M21,9h1M11,10h5M21,10h6M5,11h6M20,11h1M27,11h1M4,12h1M20,12h1M27,12h1M4,13h1M20,13h1M27,13h1M4,14h1M19,14h1M27,14h1M4,15h1M16,15h3M27,15h1M4,16h1M13,16h3M27,16h1M4,17h1M12,17h1M27,17h1M4,18h1M11,18h1M27,18h1M4,19h1M11,19h1M27,19h1M4,20h1M11,20h1M21,20h6M5,21h6M16,21h5M10,22h1M21,22h1M10,23h1M18,23h1M21,23h1M10,24h1M17,24h3M21,24h1M10,25h1M18,25h1M21,25h1M10,26h1M21,26h1M11,27h1M20,27h1M12,28h8"/><path stroke="#2b659f" d="M12,4h8M11,5h10M11,6h2M14,6h7M11,7h1M15,7h6M11,8h2M14,8h7M11,9h10M16,10h5M11,11h9M5,12h15M5,13h15M5,14h8M14,14h1M16,14h1M18,14h1M5,15h5M11,15h1M13,15h1M15,15h1M5,16h2M8,16h1M10,16h1M12,16h1M5,17h1M7,17h1M9,17h1M11,17h1M6,18h1M8,18h1M10,18h1M5,19h1M7,19h1M9,19h1M6,20h1M8,20h1M10,20h1"/><path stroke="#d1b666" d="M21,11h1M23,11h1M25,11h1M22,12h1M24,12h1M26,12h1M21,13h1M23,13h1M25,13h1M20,14h1M22,14h1M24,14h1M26,14h1M19,15h1M21,15h1M23,15h1M25,15h2M16,16h1M18,16h1M20,16h1M22,16h5M13,17h1M15,17h1M17,17h1M19,17h8M12,18h15M12,19h15M12,20h9M11,21h5M11,22h10M11,23h7M19,23h2M11,24h6M20,24h1M11,25h7M19,25h2M11,26h10M12,27h8"/><path stroke="#b89756" d="M22,11h1M24,11h1M26,11h1M21,12h1M23,12h1M25,12h1M22,13h1M24,13h1M26,13h1M21,14h1M23,14h1M25,14h1M20,15h1M22,15h1M24,15h1M17,16h1M19,16h1M21,16h1M14,17h1M16,17h1M18,17h1"/><path stroke="#265487" d="M13,14h1M15,14h1M17,14h1M10,15h1M12,15h1M14,15h1M7,16h1M9,16h1M11,16h1M6,17h1M8,17h1M10,17h1M5,18h1M7,18h1M9,18h1M6,19h1M8,19h1M10,19h1M5,20h1M7,20h1M9,20h1"/></svg>
