<svg xmlns="http://www.w3.org/2000/svg" shape-rendering="crispEdges" viewBox="0 -0.5 32 32" width="32" height="32"><path stroke="#f5f5f5" d="M12,3h9M10,4h2M21,4h2M8,5h2M23,5h2M6,6h2M25,6h1M5,7h1M13,7h11M26,7h1M4,8h1M12,8h13M27,8h1M3,9h1M11,9h14M28,9h1M3,10h1M10,10h16M28,10h1M2,11h1M10,11h16M29,11h1M2,12h1M9,12h18M29,12h1M2,13h1M9,13h5M25,13h2M29,13h1M2,14h1M9,14h5M29,14h1M2,15h1M9,15h5M29,15h1M2,16h1M10,16h4M17,16h7M29,16h1M3,17h1M10,17h4M17,17h7M28,17h1M3,18h1M11,18h3M17,18h7M28,18h1M4,19h1M12,19h2M27,19h1M5,20h1M13,20h1M27,20h1M6,21h2M25,21h2M8,22h2M24,22h1M10,23h2M25,23h1M12,24h2M17,24h4M26,24h1M13,25h1M17,25h1M21,25h1M27,25h1M13,26h1M17,26h1M21,26h1M28,26h1M13,27h1M17,27h1M22,27h1M28,27h1M13,28h1M17,28h1M23,28h1M29,28h1M14,29h3M24,29h5"/><path stroke="#838383" d="M12,4h9M10,5h13M8,6h17M6,7h7M24,7h2M5,8h7M25,8h2M4,9h7M25,9h3M4,10h6M26,10h2M3,11h7M26,11h3M3,12h1M5,12h1M7,12h1M27,12h1M4,13h1M6,13h1M8,13h1M28,13h1M3,14h1M5,14h1M7,14h1M27,14h1M4,15h1M6,15h1M8,15h1M28,15h1"/><path stroke="#736d6f" d="M4,12h1M6,12h1M8,12h1M28,12h1M3,13h1M5,13h1M7,13h1M27,13h1M4,14h1M6,14h1M8,14h1M28,14h1M3,15h1M5,15h1M7,15h1M27,15h1M3,16h7M27,16h2M4,17h6M27,17h1M4,18h7M27,18h1M5,19h7M6,20h7M8,21h6M10,22h4M17,22h2M12,23h2M17,23h3"/><path stroke="#3954bc" d="M14,13h11M14,14h13M14,15h13M14,16h3M24,16h3M14,17h3M24,17h3M14,18h1M16,18h1M24,18h1M26,18h1M15,19h1M17,19h1M19,19h1M21,19h1M23,19h1M25,19h1M14,20h1M16,20h1M18,20h1M20,20h1M22,20h1M24,20h1M26,20h1"/><path stroke="#3246a0" d="M15,18h1M25,18h1M14,19h1M16,19h1M18,19h1M20,19h1M22,19h1M24,19h1M26,19h1M15,20h1M17,20h1M19,20h1M21,20h1M23,20h1M25,20h1M14,21h11M14,22h3M19,22h5M14,23h3M20,23h5M14,24h3M21,24h5M14,25h3M22,25h5M14,26h3M22,26h6M14,27h3M23,27h5M14,28h3M24,28h5"/></svg>
