<svg xmlns="http://www.w3.org/2000/svg" shape-rendering="crispEdges" viewBox="0 -0.5 32 32" width="32" height="32"><path stroke="#f5f5f5" d="M10,4h12M8,5h2M22,5h2M7,6h1M24,6h1M7,7h1M11,7h10M24,7h1M7,8h1M10,8h12M24,8h1M7,9h1M10,9h12M24,9h1M7,10h1M11,10h10M24,10h1M7,11h1M24,11h1M7,12h1M10,12h1M21,12h1M24,12h1M7,13h1M10,13h12M24,13h1M7,14h1M10,14h12M24,14h1M7,15h1M11,15h10M24,15h1M7,16h1M24,16h1M7,17h1M10,17h1M21,17h1M24,17h1M7,18h1M10,18h12M24,18h1M7,19h1M10,19h12M24,19h1M7,20h1M11,20h10M24,20h1M7,21h1M24,21h1M7,22h1M10,22h1M21,22h1M24,22h1M7,23h1M10,23h12M24,23h1M7,24h1M11,24h10M24,24h1M7,25h1M24,25h1M8,26h2M22,26h2M10,27h12"/><path stroke="#d76c25" d="M10,5h12M8,6h16M8,7h3M21,7h3M8,8h2M22,8h2M8,9h2M22,9h2M8,10h3M21,10h3M8,11h16M8,12h2M11,12h10M22,12h2M8,13h2M22,13h2M9,14h1M22,14h1M10,15h1M21,15h1M11,16h10"/><path stroke="#bd5a1f" d="M8,14h1M23,14h1M8,15h2M22,15h2M8,16h3M21,16h3M8,17h2M11,17h10M22,17h2M8,18h2M22,18h2M8,19h2M22,19h2M8,20h3M21,20h3M8,21h16M8,22h2M11,22h10M22,22h2M8,23h2M22,23h2M8,24h3M21,24h3M8,25h16M10,26h12"/></svg>
