<svg xmlns="http://www.w3.org/2000/svg" shape-rendering="crispEdges" viewBox="0 -0.5 32 32" width="32" height="32"><path stroke="#f5f5f5" d="M1,1h30M1,2h1M30,2h1M1,3h1M30,3h1M1,4h1M30,4h1M1,5h1M30,5h1M1,6h1M30,6h1M1,7h1M30,7h1M1,8h1M30,8h1M1,9h1M30,9h1M1,10h1M30,10h1M1,11h1M30,11h1M1,12h1M30,12h1M1,13h1M8,13h9M21,13h8M30,13h1M1,14h1M8,14h9M20,14h9M30,14h1M1,15h1M8,15h9M19,15h10M30,15h1M1,16h1M11,16h3M19,16h3M30,16h1M1,17h1M11,17h3M19,17h3M30,17h1M1,18h1M11,18h3M19,18h3M30,18h1M1,19h1M11,19h1M13,19h1M19,19h1M21,19h1M30,19h1M1,20h1M12,20h1M20,20h1M22,20h1M24,20h1M26,20h1M30,20h1M1,21h1M11,21h1M13,21h1M21,21h1M23,21h1M25,21h1M27,21h1M30,21h1M1,22h1M12,22h1M26,22h1M28,22h1M30,22h1M1,23h1M30,23h1M1,24h1M30,24h1M1,25h1M30,25h1M1,26h1M30,26h1M1,27h1M30,27h1M1,28h1M30,28h1M1,29h1M30,29h1M1,30h30"/><path stroke="#3178c6" d="M2,2h28M2,3h28M2,4h28M2,5h28M2,6h28M2,7h28M2,8h28M2,9h28M2,10h28M2,11h28M2,12h28M2,13h6M17,13h4M29,13h1M2,14h6M17,14h3M29,14h1M2,15h6M17,15h2M29,15h1M2,16h9M14,16h5M22,16h8M2,17h9M14,17h5M22,17h8M2,18h9M14,18h5M22,18h8M3,19h1M5,19h1M7,19h1M9,19h1M15,19h1M17,19h1M23,19h1M25,19h1M27,19h1M29,19h1M2,20h1M4,20h1M6,20h1M8,20h1M10,20h1M14,20h1M16,20h1M18,20h1M28,20h1M3,21h1M5,21h1M7,21h1M9,21h1M15,21h1M17,21h1M19,21h1M29,21h1M2,22h1M4,22h1M6,22h1M8,22h1M10,22h1M14,22h1M16,22h1M18,22h1M20,22h1M22,22h1M24,22h1"/><path stroke="#2b64a8" d="M2,19h1M4,19h1M6,19h1M8,19h1M10,19h1M14,19h1M16,19h1M18,19h1M24,19h1M26,19h1M28,19h1M3,20h1M5,20h1M7,20h1M9,20h1M15,20h1M17,20h1M27,20h1M29,20h1M2,21h1M4,21h1M6,21h1M8,21h1M10,21h1M14,21h1M16,21h1M18,21h1M20,21h1M3,22h1M5,22h1M7,22h1M9,22h1M15,22h1M17,22h1M19,22h1M21,22h1M23,22h1M29,22h1M2,23h9M14,23h12M29,23h1M2,24h9M14,24h12M29,24h1M2,25h9M14,25h12M29,25h1M2,26h9M14,26h5M29,26h1M2,27h9M14,27h5M28,27h2M2,28h9M14,28h5M27,28h3M2,29h28"/><path stroke="#d8ccd0" d="M12,19h1M20,19h1M22,19h1M11,20h1M13,20h1M19,20h1M21,20h1M23,20h1M25,20h1M12,21h1M22,21h1M24,21h1M26,21h1M28,21h1M11,22h1M13,22h1M25,22h1M27,22h1M11,23h3M26,23h3M11,24h3M26,24h3M11,25h3M26,25h3M11,26h3M19,26h10M11,27h3M19,27h9M11,28h3M19,28h8"/></svg>
