<svg xmlns="http://www.w3.org/2000/svg" shape-rendering="crispEdges" viewBox="0 -0.5 32 32" width="32" height="32"><path stroke="#f5f5f5" d="M3,2h26M2,3h28M2,4h28M2,5h28M2,6h4M26,6h4M2,7h4M26,7h4M2,8h4M9,8h2M21,8h2M26,8h4M2,9h4M9,9h3M13,9h6M20,9h3M26,9h4M2,10h4M10,10h12M26,10h4M2,11h4M10,11h12M26,11h4M2,12h4M9,12h14M26,12h4M2,13h4M9,13h14M26,13h4M2,14h4M9,14h14M26,14h4M2,15h4M9,15h14M26,15h4M2,16h4M9,16h14M26,16h4M2,17h4M10,17h12M26,17h4M2,18h4M11,18h10M26,18h4M2,19h4M7,19h1M13,19h6M26,19h4M2,20h4M8,20h2M14,20h4M26,20h4M2,21h4M9,21h2M13,21h6M26,21h4M2,22h4M10,22h9M26,22h4M2,23h4M11,23h8M26,23h4M2,24h4M13,24h6M26,24h4M2,25h4M13,25h6M26,25h4M2,26h28M2,27h28M2,28h28M3,29h26"/></svg>
