<svg xmlns="http://www.w3.org/2000/svg" shape-rendering="crispEdges" viewBox="0 -0.5 32 32" width="32" height="32"><path stroke="#ffd248" d="M3,2h26M2,3h28M2,4h28M2,5h28M2,6h4M26,6h4M2,7h4M26,7h4M2,8h4M26,8h4M2,9h4M14,9h4M26,9h4M2,10h4M13,10h1M18,10h1M26,10h4M2,11h4M12,11h1M15,11h2M19,11h1M26,11h4M2,12h4M12,12h1M15,12h2M19,12h1M26,12h4M3,13h3M12,13h1M19,13h1M27,13h3M2,14h1M4,14h1M12,14h1M15,14h2M19,14h1M26,14h1M28,14h1M3,15h1M5,15h1M13,15h6M27,15h1M29,15h1M2,16h1M4,16h1M14,16h4M26,16h1M28,16h1M3,17h1M5,17h1M27,17h1M29,17h1M2,18h1M12,18h8M26,18h1M13,20h5"/><path stroke="#ffffff" d="M6,6h20M6,7h20M6,8h4M22,8h4M6,9h4M11,9h3M18,9h3M22,9h4M6,10h4M11,10h2M14,10h4M19,10h2M22,10h4M6,11h4M11,11h1M13,11h2M17,11h2M20,11h1M22,11h4M6,12h4M11,12h1M13,12h2M17,12h2M20,12h1M22,12h4M6,13h4M11,13h1M13,13h6M20,13h1M22,13h4M6,14h4M11,14h1M13,14h2M17,14h2M20,14h1M22,14h4M6,15h4M11,15h2M19,15h2M22,15h4M6,16h4M11,16h3M18,16h3M22,16h4M6,17h4M11,17h10M22,17h4M6,18h4M11,18h1M20,18h1M22,18h4M6,19h4M11,19h10M22,19h4M6,20h4M11,20h2M22,20h4M6,21h4M11,21h7M19,21h1M21,21h5M6,22h4M11,22h7M20,22h6M6,23h4M19,23h7M6,24h20M6,25h20"/><path stroke="#e6a532" d="M10,8h12M10,9h1M21,9h1M10,10h1M21,10h1M10,11h1M21,11h1M10,12h1M21,12h1M2,13h1M10,13h1M21,13h1M26,13h1M3,14h1M5,14h1M10,14h1M21,14h1M27,14h1M29,14h1M2,15h1M4,15h1M10,15h1M21,15h1M26,15h1M28,15h1M3,16h1M5,16h1M10,16h1M21,16h1M27,16h1M29,16h1M2,17h1M4,17h1M10,17h1M21,17h1M26,17h1M28,17h1M3,18h3M10,18h1M21,18h1M27,18h3M2,19h4M10,19h1M21,19h1M26,19h4M2,20h4M10,20h1M18,20h4M26,20h4M2,21h4M10,21h1M18,21h1M20,21h1M26,21h4M2,22h4M10,22h1M18,22h2M26,22h4M2,23h4M10,23h9M26,23h4M2,24h4M26,24h4M2,25h4M26,25h4M2,26h28M2,27h28M2,28h28M3,29h26"/></svg>
