<svg xmlns="http://www.w3.org/2000/svg" shape-rendering="crispEdges" viewBox="0 -0.5 32 32" width="32" height="32"><path stroke="#ffd248" d="M0,0h32M0,1h32M0,2h32M0,3h32M0,4h4M28,4h4M0,5h4M5,5h22M28,5h4M0,6h4M5,6h1M26,6h1M28,6h4M0,7h4M5,7h1M26,7h1M28,7h4M0,8h4M5,8h1M10,8h12M26,8h1M28,8h4M0,9h4M5,9h1M10,9h1M14,9h4M21,9h1M26,9h1M28,9h4M0,10h4M5,10h1M10,10h1M13,10h1M18,10h1M21,10h1M26,10h1M28,10h4M0,11h4M5,11h1M10,11h1M12,11h1M15,11h2M19,11h1M21,11h1M26,11h1M28,11h4M0,12h4M5,12h1M10,12h1M12,12h1M15,12h2M19,12h1M21,12h1M26,12h1M28,12h4M0,13h4M5,13h1M10,13h1M12,13h1M19,13h1M21,13h1M26,13h1M28,13h4M0,14h4M5,14h1M10,14h1M12,14h1M15,14h2M19,14h1M21,14h1M26,14h1M28,14h4M0,15h4M5,15h1M10,15h1M13,15h6M21,15h1M26,15h1M28,15h4M0,16h4M5,16h1M10,16h1M14,16h4M21,16h1M26,16h1M28,16h4M0,17h4M5,17h1M10,17h1M21,17h1M26,17h1M28,17h4M0,18h4M5,18h1M10,18h1M12,18h8M21,18h1M26,18h1M28,18h4M0,19h4M5,19h1M10,19h1M21,19h1M26,19h1M28,19h4M0,20h4M5,20h1M10,20h1M13,20h9M26,20h1M28,20h4M0,21h4M5,21h1M10,21h1M18,21h1M20,21h1M26,21h1M28,21h4M0,22h4M5,22h1M10,22h1M18,22h2M26,22h1M28,22h4M0,23h4M5,23h1M10,23h9M26,23h1M28,23h4M0,24h4M5,24h1M26,24h1M28,24h4M0,25h4M5,25h1M26,25h1M28,25h4M0,26h4M5,26h22M28,26h4M0,27h4M28,27h4M0,28h32M0,29h32M0,30h32M0,31h32"/><path stroke="#ffffff" d="M4,4h24M4,5h1M27,5h1M4,6h1M6,6h20M27,6h1M4,7h1M6,7h20M27,7h1M4,8h1M6,8h4M22,8h4M27,8h1M4,9h1M6,9h4M11,9h3M18,9h3M22,9h4M27,9h1M4,10h1M6,10h4M11,10h2M14,10h4M19,10h2M22,10h4M27,10h1M4,11h1M6,11h4M11,11h1M13,11h2M17,11h2M20,11h1M22,11h4M27,11h1M4,12h1M6,12h4M11,12h1M13,12h2M17,12h2M20,12h1M22,12h4M27,12h1M4,13h1M6,13h4M11,13h1M13,13h6M20,13h1M22,13h4M27,13h1M4,14h1M6,14h4M11,14h1M13,14h2M17,14h2M20,14h1M22,14h4M27,14h1M4,15h1M6,15h4M11,15h2M19,15h2M22,15h4M27,15h1M4,16h1M6,16h4M11,16h3M18,16h3M22,16h4M27,16h1M4,17h1M6,17h4M11,17h10M22,17h4M27,17h1M4,18h1M6,18h4M11,18h1M20,18h1M22,18h4M27,18h1M4,19h1M6,19h4M11,19h10M22,19h4M27,19h1M4,20h1M6,20h4M11,20h2M22,20h4M27,20h1M4,21h1M6,21h4M11,21h7M19,21h1M21,21h5M27,21h1M4,22h1M6,22h4M11,22h7M20,22h6M27,22h1M4,23h1M6,23h4M19,23h7M27,23h1M4,24h1M6,24h20M27,24h1M4,25h1M6,25h20M27,25h1M4,26h1M27,26h1M4,27h24"/></svg>
