<svg xmlns="http://www.w3.org/2000/svg" shape-rendering="crispEdges" viewBox="0 -0.5 32 32" width="32" height="32"><path stroke="#ffffff" d="M0,0h32M0,1h32M0,2h32M0,3h32M0,4h4M28,4h4M0,5h4M5,5h22M28,5h4M0,6h4M5,6h1M26,6h1M28,6h4M0,7h4M5,7h1M26,7h1M28,7h4M0,8h4M5,8h1M9,8h2M26,8h1M28,8h4M0,9h4M5,9h1M8,9h4M26,9h1M28,9h4M0,10h4M5,10h1M8,10h4M26,10h1M28,10h4M0,11h4M5,11h1M9,11h2M26,11h1M28,11h4M0,12h4M5,12h1M26,12h1M28,12h4M0,13h4M5,13h1M26,13h1M28,13h4M0,14h4M5,14h1M8,14h4M14,14h4M19,14h4M26,14h1M28,14h4M0,15h4M5,15h1M8,15h4M14,15h10M26,15h1M28,15h4M0,16h4M5,16h1M8,16h4M14,16h10M26,16h1M28,16h4M0,17h4M5,17h1M8,17h4M14,17h10M26,17h1M28,17h4M0,18h4M5,18h1M8,18h4M14,18h5M20,18h4M26,18h1M28,18h4M0,19h4M5,19h1M8,19h4M14,19h4M20,19h4M26,19h1M28,19h4M0,20h4M5,20h1M8,20h4M14,20h4M20,20h4M26,20h1M28,20h4M0,21h4M5,21h1M8,21h4M14,21h4M20,21h4M26,21h1M28,21h4M0,22h4M5,22h1M8,22h4M14,22h4M20,22h4M26,22h1M28,22h4M0,23h4M5,23h1M8,23h4M14,23h4M20,23h4M26,23h1M28,23h4M0,24h4M5,24h1M26,24h1M28,24h4M0,25h4M5,25h1M26,25h1M28,25h4M0,26h4M5,26h22M28,26h4M0,27h4M28,27h4M0,28h32M0,29h32M0,30h32M0,31h32"/><path stroke="#7bacf7" d="M4,4h24M4,5h1M27,5h1M4,6h1M6,6h20M27,6h1M4,7h1M6,7h20M27,7h1M4,8h1M6,8h3M11,8h15M27,8h1M4,9h1M6,9h2M12,9h14M27,9h1M4,10h1M6,10h2M12,10h14M27,10h1M4,11h1M6,11h3M11,11h15M27,11h1M4,12h1M6,12h20M27,12h1M4,13h1M6,13h20M27,13h1M4,14h1M6,14h2M12,14h2M18,14h1M23,14h3M27,14h1M4,15h1M6,15h2M12,15h2M24,15h2M27,15h1M4,16h1M6,16h2M12,16h2M24,16h2M27,16h1M4,17h1M6,17h2M12,17h2M24,17h2M27,17h1M4,18h1M6,18h2M12,18h2M19,18h1M24,18h2M27,18h1M4,19h1M6,19h2M12,19h2M18,19h2M24,19h2M27,19h1M4,20h1M6,20h2M12,20h2M18,20h2M24,20h2M27,20h1M4,21h1M6,21h2M12,21h2M18,21h2M24,21h2M27,21h1M4,22h1M6,22h2M12,22h2M18,22h2M24,22h2M27,22h1M4,23h1M6,23h2M12,23h2M18,23h2M24,23h2M27,23h1M4,24h1M6,24h20M27,24h1M4,25h1M6,25h20M27,25h1M4,26h1M27,26h1M4,27h24"/></svg>
