<svg xmlns="http://www.w3.org/2000/svg" shape-rendering="crispEdges" viewBox="0 -0.5 32 32" width="32" height="32"><path stroke="#ffffff" d="M0,0h32M0,1h32M0,2h32M0,3h32M0,4h4M28,4h4M0,5h4M5,5h22M28,5h4M0,6h4M5,6h1M26,6h1M28,6h4M0,7h4M5,7h1M26,7h1M28,7h4M0,8h4M5,8h1M26,8h1M28,8h4M0,9h4M5,9h1M26,9h1M28,9h4M0,10h4M5,10h1M8,10h16M26,10h1M28,10h4M0,11h4M5,11h1M8,11h1M10,11h12M23,11h1M26,11h1M28,11h4M0,12h4M5,12h1M8,12h2M12,12h8M22,12h2M26,12h1M28,12h4M0,13h4M5,13h1M8,13h4M14,13h4M20,13h4M26,13h1M28,13h4M0,14h4M5,14h1M8,14h6M15,14h2M18,14h6M26,14h1M28,14h4M0,15h4M5,15h1M8,15h7M17,15h7M26,15h1M28,15h4M0,16h4M5,16h1M8,16h5M14,16h4M19,16h5M26,16h1M28,16h4M0,17h4M5,17h1M8,17h4M13,17h6M20,17h4M26,17h1M28,17h4M0,18h4M5,18h1M8,18h3M12,18h8M21,18h3M26,18h1M28,18h4M0,19h4M5,19h1M8,19h2M11,19h10M22,19h2M26,19h1M28,19h4M0,20h4M5,20h1M8,20h1M10,20h12M23,20h1M26,20h1M28,20h4M0,21h4M5,21h1M8,21h16M26,21h1M28,21h4M0,22h4M5,22h1M26,22h1M28,22h4M0,23h4M5,23h1M26,23h1M28,23h4M0,24h4M5,24h1M26,24h1M28,24h4M0,25h4M5,25h1M26,25h1M28,25h4M0,26h4M5,26h22M28,26h4M0,27h4M28,27h4M0,28h32M0,29h32M0,30h32M0,31h32"/><path stroke="#f38684" d="M4,4h24M4,5h1M27,5h1M4,6h1M6,6h20M27,6h1M4,7h1M6,7h20M27,7h1M4,8h1M6,8h20M27,8h1M4,9h1M6,9h20M27,9h1M4,10h1M6,10h2M24,10h2M27,10h1M4,11h1M6,11h2M9,11h1M22,11h1M24,11h2M27,11h1M4,12h1M6,12h2M10,12h2M20,12h2M24,12h2M27,12h1M4,13h1M6,13h2M12,13h2M18,13h2M24,13h2M27,13h1M4,14h1M6,14h2M14,14h1M17,14h1M24,14h2M27,14h1M4,15h1M6,15h2M15,15h2M24,15h2M27,15h1M4,16h1M6,16h2M13,16h1M18,16h1M24,16h2M27,16h1M4,17h1M6,17h2M12,17h1M19,17h1M24,17h2M27,17h1M4,18h1M6,18h2M11,18h1M20,18h1M24,18h2M27,18h1M4,19h1M6,19h2M10,19h1M21,19h1M24,19h2M27,19h1M4,20h1M6,20h2M9,20h1M22,20h1M24,20h2M27,20h1M4,21h1M6,21h2M24,21h2M27,21h1M4,22h1M6,22h20M27,22h1M4,23h1M6,23h20M27,23h1M4,24h1M6,24h20M27,24h1M4,25h1M6,25h20M27,25h1M4,26h1M27,26h1M4,27h24"/></svg>
