<svg xmlns="http://www.w3.org/2000/svg" shape-rendering="crispEdges" viewBox="0 -0.5 32 32" width="32" height="32"><path stroke="#f5f5f5" d="M3,2h26M2,3h28M2,4h28M2,5h28M2,6h4M26,6h4M2,7h4M26,7h4M2,8h4M14,8h4M26,8h4M2,9h4M14,9h4M26,9h4M2,10h4M14,10h4M26,10h4M2,11h4M14,11h4M26,11h4M2,12h4M14,12h4M26,12h4M2,13h4M14,13h4M26,13h4M2,14h4M14,14h4M26,14h4M2,15h4M14,15h4M26,15h4M2,16h4M14,16h4M26,16h4M2,17h4M9,17h14M26,17h4M2,18h4M10,18h12M26,18h4M2,19h4M11,19h10M26,19h4M2,20h4M12,20h8M26,20h4M2,21h4M13,21h6M26,21h4M2,22h4M14,22h4M26,22h4M2,23h4M8,23h16M26,23h4M2,24h4M26,24h4M2,25h4M26,25h4M2,26h28M2,27h28M2,28h28M3,29h26"/></svg>
