<svg xmlns="http://www.w3.org/2000/svg" shape-rendering="crispEdges" viewBox="0 -0.5 32 32" width="32" height="32"><path stroke="#323232" d="M0,0h32M0,1h32M0,2h32M0,3h32M0,4h4M28,4h4M0,5h4M5,5h22M28,5h4M0,6h4M5,6h1M26,6h1M28,6h4M0,7h4M5,7h1M26,7h1M28,7h4M0,8h4M5,8h1M8,8h2M22,8h2M26,8h1M28,8h4M0,9h4M5,9h1M8,9h3M21,9h3M26,9h1M28,9h4M0,10h4M5,10h1M9,10h3M20,10h3M26,10h1M28,10h4M0,11h4M5,11h1M10,11h3M19,11h3M26,11h1M28,11h4M0,12h4M5,12h1M11,12h3M18,12h3M26,12h1M28,12h4M0,13h4M5,13h1M12,13h3M17,13h3M26,13h1M28,13h4M0,14h4M5,14h1M13,14h6M26,14h1M28,14h4M0,15h4M5,15h1M14,15h4M26,15h1M28,15h4M0,16h4M5,16h1M14,16h4M26,16h1M28,16h4M0,17h4M5,17h1M13,17h6M26,17h1M28,17h4M0,18h4M5,18h1M12,18h3M17,18h3M26,18h1M28,18h4M0,19h4M5,19h1M11,19h3M18,19h3M26,19h1M28,19h4M0,20h4M5,20h1M10,20h3M19,20h3M26,20h1M28,20h4M0,21h4M5,21h1M9,21h3M20,21h3M26,21h1M28,21h4M0,22h4M5,22h1M8,22h3M21,22h3M26,22h1M28,22h4M0,23h4M5,23h1M8,23h2M22,23h2M26,23h1M28,23h4M0,24h4M5,24h1M26,24h1M28,24h4M0,25h4M5,25h1M26,25h1M28,25h4M0,26h4M5,26h22M28,26h4M0,27h4M28,27h4M0,28h32M0,29h32M0,30h32M0,31h32"/></svg>
