<svg xmlns="http://www.w3.org/2000/svg" shape-rendering="crispEdges" viewBox="0 -0.5 32 32" width="32" height="32"><path stroke="#f5f5f5" d="M3,2h26M2,3h28M2,4h28M2,5h28M2,6h4M26,6h4M2,7h4M26,7h4M2,8h4M9,8h2M26,8h4M2,9h4M8,9h4M26,9h4M2,10h4M8,10h4M26,10h4M2,11h4M9,11h2M26,11h4M2,12h4M26,12h4M2,13h4M26,13h4M2,14h4M8,14h4M14,14h4M19,14h4M26,14h4M2,15h4M8,15h4M14,15h10M26,15h4M2,16h4M8,16h4M14,16h10M26,16h4M2,17h4M8,17h4M14,17h10M26,17h4M2,18h4M8,18h4M14,18h5M20,18h4M26,18h4M2,19h4M8,19h4M14,19h4M20,19h4M26,19h4M2,20h4M8,20h4M14,20h4M20,20h4M26,20h4M2,21h4M8,21h4M14,21h4M20,21h4M26,21h4M2,22h4M8,22h4M14,22h4M20,22h4M26,22h4M2,23h4M8,23h4M14,23h4M20,23h4M26,23h4M2,24h4M26,24h4M2,25h4M26,25h4M2,26h28M2,27h28M2,28h28M3,29h26"/></svg>
