<svg xmlns="http://www.w3.org/2000/svg" shape-rendering="crispEdges" viewBox="0 -0.5 48 32" width="48" height="32"><path stroke="#f5f5f5" d="M3,2h42M2,3h44M2,4h44M2,5h44M2,6h5M41,6h5M2,7h4M42,7h4M2,8h4M42,8h4M2,9h4M13,9h6M31,9h2M42,9h4M2,10h4M11,10h10M26,10h2M30,10h4M36,10h2M42,10h4M2,11h4M10,11h1M13,11h9M26,11h1M37,11h1M42,11h4M2,12h4M9,12h1M16,12h6M29,12h6M42,12h4M2,13h4M17,13h6M28,13h8M42,13h4M2,14h4M18,14h5M26,14h1M28,14h8M37,14h1M42,14h4M2,15h4M18,15h5M25,15h2M28,15h8M37,15h2M42,15h4M2,16h4M18,16h5M25,16h2M28,16h8M37,16h2M42,16h4M2,17h4M18,17h5M26,17h1M28,17h8M37,17h1M42,17h4M2,18h4M17,18h6M28,18h8M42,18h4M2,19h4M9,19h1M15,19h7M29,19h6M42,19h4M2,20h4M10,20h1M13,20h9M26,20h1M37,20h1M42,20h4M2,21h4M11,21h10M26,21h2M30,21h4M36,21h2M42,21h4M2,22h4M13,22h6M31,22h2M42,22h4M2,23h4M42,23h4M2,24h4M42,24h4M2,25h5M41,25h5M2,26h44M2,27h44M2,28h44M3,29h42"/></svg>
