<svg xmlns="http://www.w3.org/2000/svg" shape-rendering="crispEdges" viewBox="0 -0.5 64 32" width="64" height="32"><path stroke="#969696" d="M3,2h58M2,3h60M2,4h60M2,5h60M2,6h60M2,7h60M2,8h60M2,9h60M2,10h60M2,11h60M2,12h60M3,13h3M7,13h3M11,13h3M15,13h3M19,13h3M23,13h3M27,13h3M31,13h3M35,13h3M39,13h3M43,13h3M47,13h3M51,13h3M55,13h3M59,13h3M2,14h1M4,14h1M6,14h1M8,14h1M10,14h1M12,14h1M14,14h1M16,14h1M18,14h1M20,14h1M22,14h1M24,14h1M26,14h1M28,14h1M30,14h1M32,14h1M34,14h1M36,14h1M38,14h1M40,14h1M42,14h1M44,14h1M46,14h1M48,14h1M50,14h1M52,14h1M54,14h1M56,14h1M58,14h1M60,14h1M3,15h1M5,15h1M7,15h1M9,15h1M11,15h1M13,15h1M15,15h1M17,15h1M19,15h1M21,15h1M23,15h1M25,15h1M27,15h1M29,15h1M31,15h1M33,15h1M35,15h1M37,15h1M39,15h1M41,15h1M43,15h1M45,15h1M47,15h1M49,15h1M51,15h1M53,15h1M55,15h1M57,15h1M59,15h1M61,15h1M2,16h1M4,16h1M6,16h1M8,16h1M10,16h1M12,16h1M14,16h1M16,16h1M18,16h1M20,16h1M22,16h1M24,16h1M26,16h1M28,16h1M30,16h1M32,16h1M34,16h1M36,16h1M38,16h1M40,16h1M42,16h1M44,16h1M46,16h1M48,16h1M50,16h1M52,16h1M54,16h1M56,16h1M58,16h1M60,16h1M3,17h1M5,17h1M7,17h1M9,17h1M11,17h1M13,17h1M15,17h1M17,17h1M19,17h1M21,17h1M23,17h1M25,17h1M27,17h1M29,17h1M31,17h1M33,17h1M35,17h1M37,17h1M39,17h1M41,17h1M43,17h1M45,17h1M47,17h1M49,17h1M51,17h1M53,17h1M55,17h1M57,17h1M59,17h1M61,17h1M2,18h1M6,18h1M10,18h1M14,18h1M18,18h1M22,18h1M26,18h1M30,18h1M34,18h1M38,18h1M42,18h1M46,18h1M50,18h1M54,18h1M58,18h1"/><path stroke="#c3c3c3" d="M2,13h1M6,13h1M10,13h1M14,13h1M18,13h1M22,13h1M26,13h1M30,13h1M34,13h1M38,13h1M42,13h1M46,13h1M50,13h1M54,13h1M58,13h1M3,14h1M5,14h1M7,14h1M9,14h1M11,14h1M13,14h1M15,14h1M17,14h1M19,14h1M21,14h1M23,14h1M25,14h1M27,14h1M29,14h1M31,14h1M33,14h1M35,14h1M37,14h1M39,14h1M41,14h1M43,14h1M45,14h1M47,14h1M49,14h1M51,14h1M53,14h1M55,14h1M57,14h1M59,14h1M61,14h1M2,15h1M4,15h1M6,15h1M8,15h1M10,15h1M12,15h1M14,15h1M16,15h1M18,15h1M20,15h1M22,15h1M24,15h1M26,15h1M28,15h1M30,15h1M32,15h1M34,15h1M36,15h1M38,15h1M40,15h1M42,15h1M44,15h1M46,15h1M48,15h1M50,15h1M52,15h1M54,15h1M56,15h1M58,15h1M60,15h1M3,16h1M5,16h1M7,16h1M9,16h1M11,16h1M13,16h1M15,16h1M17,16h1M19,16h1M21,16h1M23,16h1M25,16h1M27,16h1M29,16h1M31,16h1M33,16h1M35,16h1M37,16h1M39,16h1M41,16h1M43,16h1M45,16h1M47,16h1M49,16h1M51,16h1M53,16h1M55,16h1M57,16h1M59,16h1M61,16h1M2,17h1M4,17h1M6,17h1M8,17h1M10,17h1M12,17h1M14,17h1M16,17h1M18,17h1M20,17h1M22,17h1M24,17h1M26,17h1M28,17h1M30,17h1M32,17h1M34,17h1M36,17h1M38,17h1M40,17h1M42,17h1M44,17h1M46,17h1M48,17h1M50,17h1M52,17h1M54,17h1M56,17h1M58,17h1M60,17h1M3,18h3M7,18h3M11,18h3M15,18h3M19,18h3M23,18h3M27,18h3M31,18h3M35,18h3M39,18h3M43,18h3M47,18h3M51,18h3M55,18h3M59,18h3M2,19h60M2,20h60M2,21h60M2,22h60M2,23h60M2,24h60M2,25h60M2,26h60M2,27h60M2,28h60M3,29h58"/></svg>
