<svg xmlns="http://www.w3.org/2000/svg" shape-rendering="crispEdges" viewBox="0 -0.5 32 32" width="32" height="32"><metadata>Generated with pixel-perfect-svg https://github.com/kagof/pixel-perfect-svg</metadata><path stroke="#969696" d="M3,2h26M2,3h28M2,4h28M2,5h28M2,6h28M2,7h28M2,8h28M2,9h28M2,10h28M2,11h28M2,12h28M3,13h3M7,13h3M11,13h3M15,13h3M19,13h3M23,13h3M27,13h3M2,14h1M4,14h1M6,14h1M8,14h1M10,14h1M12,14h1M14,14h1M16,14h1M18,14h1M20,14h1M22,14h1M24,14h1M26,14h1M28,14h1M3,15h1M5,15h1M7,15h1M9,15h1M11,15h1M13,15h1M15,15h1M17,15h1M19,15h1M21,15h1M23,15h1M25,15h1M27,15h1M29,15h1M2,16h1M4,16h1M6,16h1M8,16h1M10,16h1M12,16h1M14,16h1M16,16h1M18,16h1M20,16h1M22,16h1M24,16h1M26,16h1M28,16h1M3,17h1M5,17h1M7,17h1M9,17h1M11,17h1M13,17h1M15,17h1M17,17h1M19,17h1M21,17h1M23,17h1M25,17h1M27,17h1M29,17h1M2,18h1M6,18h1M10,18h1M14,18h1M18,18h1M22,18h1M26,18h1"/><path stroke="#c3c3c3" d="M2,13h1M6,13h1M10,13h1M14,13h1M18,13h1M22,13h1M26,13h1M3,14h1M5,14h1M7,14h1M9,14h1M11,14h1M13,14h1M15,14h1M17,14h1M19,14h1M21,14h1M23,14h1M25,14h1M27,14h1M29,14h1M2,15h1M4,15h1M6,15h1M8,15h1M10,15h1M12,15h1M14,15h1M16,15h1M18,15h1M20,15h1M22,15h1M24,15h1M26,15h1M28,15h1M3,16h1M5,16h1M7,16h1M9,16h1M11,16h1M13,16h1M15,16h1M17,16h1M19,16h1M21,16h1M23,16h1M25,16h1M27,16h1M29,16h1M2,17h1M4,17h1M6,17h1M8,17h1M10,17h1M12,17h1M14,17h1M16,17h1M18,17h1M20,17h1M22,17h1M24,17h1M26,17h1M28,17h1M3,18h3M7,18h3M11,18h3M15,18h3M19,18h3M23,18h3M27,18h3M2,19h28M2,20h28M2,21h28M2,22h28M2,23h28M2,24h28M2,25h28M2,26h28M2,27h28M2,28h28M3,29h26"/></svg>
