<svg xmlns="http://www.w3.org/2000/svg" shape-rendering="crispEdges" viewBox="0 -0.5 32 32" width="32" height="32"><path stroke="#f5f5f5" d="M0,0h32M0,1h1M31,1h1M0,2h1M31,2h1M0,3h1M31,3h1M0,4h1M31,4h1M0,5h1M31,5h1M0,6h1M13,6h6M31,6h1M0,7h1M13,7h6M31,7h1M0,8h1M12,8h8M31,8h1M0,9h1M12,9h8M31,9h1M0,10h1M12,10h8M31,10h1M0,11h1M11,11h10M31,11h1M0,12h1M11,12h4M17,12h4M31,12h1M0,13h1M10,13h5M17,13h5M31,13h1M0,14h1M10,14h4M18,14h4M31,14h1M0,15h1M10,15h4M18,15h4M31,15h1M0,16h1M9,16h1M11,16h1M13,16h1M19,16h1M21,16h1M31,16h1M0,17h1M10,17h1M12,17h1M20,17h1M22,17h1M31,17h1M0,18h1M9,18h1M11,18h1M19,18h1M21,18h1M23,18h1M31,18h1M0,19h1M8,19h1M10,19h1M20,19h1M22,19h1M31,19h1M0,20h1M31,20h1M0,21h1M31,21h1M0,22h1M31,22h1M0,23h1M31,23h1M0,24h1M31,24h1M0,25h1M31,25h1M0,26h1M31,26h1M0,27h1M31,27h1M0,28h1M31,28h1M0,29h1M31,29h1M0,30h1M31,30h1M0,31h32"/><path stroke="#ed2224" d="M1,1h30M1,2h30M1,3h30M1,4h30M1,5h30M1,6h12M19,6h12M1,7h12M19,7h12M1,8h11M20,8h11M1,9h11M20,9h11M1,10h11M20,10h11M1,11h10M21,11h10M1,12h10M15,12h2M21,12h10M1,13h9M15,13h2M22,13h9M1,14h9M14,14h4M22,14h9M1,15h9M14,15h4M22,15h9M1,16h1M3,16h1M5,16h1M7,16h1M15,16h1M17,16h1M23,16h1M25,16h1M27,16h1M29,16h1M2,17h1M4,17h1M6,17h1M8,17h1M14,17h1M16,17h1M18,17h1M24,17h1M26,17h1M28,17h1M30,17h1M1,18h1M3,18h1M5,18h1M7,18h1M13,18h1M15,18h1M17,18h1M25,18h1M27,18h1M29,18h1M2,19h1M4,19h1M6,19h1M12,19h1M14,19h1M16,19h1M18,19h1M24,19h1M26,19h1M28,19h1M30,19h1"/><path stroke="#d01c1f" d="M2,16h1M4,16h1M6,16h1M8,16h1M14,16h1M16,16h1M24,16h1M26,16h1M28,16h1M30,16h1M1,17h1M3,17h1M5,17h1M7,17h1M13,17h1M15,17h1M17,17h1M23,17h1M25,17h1M27,17h1M29,17h1M2,18h1M4,18h1M6,18h1M14,18h1M16,18h1M18,18h1M24,18h1M26,18h1M28,18h1M30,18h1M1,19h1M3,19h1M5,19h1M7,19h1M13,19h1M15,19h1M17,19h1M19,19h1M25,19h1M27,19h1M29,19h1M1,20h7M12,20h8M24,20h7M1,21h6M12,21h8M25,21h6M1,22h6M18,22h3M25,22h6M1,23h5M18,23h3M26,23h5M1,24h5M19,24h3M26,24h5M1,25h5M19,25h3M26,25h5M1,26h30M1,27h30M1,28h30M1,29h30M1,30h30"/><path stroke="#d8ccd0" d="M10,16h1M12,16h1M18,16h1M20,16h1M22,16h1M9,17h1M11,17h1M19,17h1M21,17h1M8,18h1M10,18h1M12,18h1M20,18h1M22,18h1M9,19h1M11,19h1M21,19h1M23,19h1M8,20h4M20,20h4M7,21h5M20,21h5M7,22h11M21,22h4M6,23h12M21,23h5M6,24h13M22,24h4M6,25h13M22,25h4"/></svg>
