<svg xmlns="http://www.w3.org/2000/svg" shape-rendering="crispEdges" viewBox="0 -0.5 32 32" width="32" height="32"><path stroke="#f5f5f5" d="M14,1h4M11,2h3M18,2h3M9,3h2M21,3h2M8,4h1M23,4h1M7,5h1M24,5h1M6,6h1M25,6h1M5,7h1M26,7h1M4,8h1M27,8h1M3,9h1M28,9h1M3,10h1M28,10h1M2,11h1M29,11h1M2,12h1M29,12h1M2,13h1M29,13h1M1,14h1M30,14h1M1,15h1M30,15h1M1,16h1M30,16h1M1,17h1M30,17h1M2,18h1M29,18h1M2,19h1M29,19h1M2,20h1M29,20h1M3,21h1M28,21h1M3,22h1M28,22h1M4,23h1M27,23h1M5,24h1M26,24h1M6,25h1M25,25h1M7,26h1M24,26h1M8,27h1M23,27h1M9,28h2M21,28h2M11,29h3M18,29h3M14,30h4"/><path stroke="#f38434" d="M14,2h4M11,3h10M9,4h4M19,4h4M8,5h3M21,5h3M7,6h2M23,6h2M6,7h2M24,7h2M5,8h2M25,8h2M4,9h2M26,9h2M4,10h2M26,10h2M3,11h2M27,11h2M3,12h2M27,12h2M3,13h1M28,13h1M3,14h1M29,14h1M2,15h1M28,15h1M3,16h1M29,16h1M2,17h1M28,17h1"/><path stroke="#52341b" d="M13,4h6M11,5h10M9,6h5M18,6h5M8,7h4M14,7h4M20,7h4M7,8h4M12,8h2M15,8h2M18,8h2M21,8h4M6,9h3M14,9h1M17,9h1M23,9h3M6,10h3M10,10h1M12,10h1M14,10h1M17,10h1M19,10h1M21,10h1M23,10h3M5,11h3M12,11h2M15,11h2M18,11h2M24,11h3M5,12h2M8,12h1M10,12h2M14,12h4M20,12h2M23,12h1M25,12h2M4,13h3M8,13h1M11,13h1M13,13h6M20,13h1M23,13h1M25,13h3M5,14h1M7,14h1M9,14h1M13,14h1M15,14h1M17,14h1M19,14h1M21,14h1M27,14h1M4,15h1M8,15h1M12,15h1M14,15h1M16,15h1M18,15h1M20,15h1M24,15h1M26,15h1M5,16h1M7,16h1M11,16h1M13,16h1M15,16h1M17,16h1M19,16h1M23,16h1M27,16h1M4,17h1M10,17h1M12,17h1M14,17h1M16,17h1M18,17h1M22,17h1M24,17h1M26,17h1"/><path stroke="#e2cece" d="M14,6h4M12,7h2M18,7h2M11,8h1M14,8h1M17,8h1M20,8h1M9,9h5M15,9h2M18,9h5M9,10h1M11,10h1M13,10h1M15,10h2M18,10h1M20,10h1M22,10h1M8,11h4M14,11h1M17,11h1M20,11h4M7,12h1M9,12h1M12,12h2M18,12h2M22,12h1M24,12h1M7,13h1M9,13h2M12,13h1M19,13h1M21,13h2M24,13h1M11,14h1M23,14h1M25,14h1M6,15h1M10,15h1M22,15h1M9,16h1M21,16h1M25,16h1M6,17h1M8,17h1M20,17h1"/><path stroke="#d66e2c" d="M2,14h1M28,14h1M3,15h1M29,15h1M2,16h1M28,16h1M3,17h1M29,17h1M3,18h1M28,18h1M3,19h2M27,19h2M3,20h2M27,20h2M4,21h2M26,21h2M4,22h2M26,22h2M5,23h2M25,23h2M6,24h2M24,24h2M7,25h2M23,25h2M8,26h3M21,26h3M9,27h4M19,27h4M11,28h10M14,29h4"/><path stroke="#482b17" d="M4,14h1M10,14h1M12,14h1M14,14h1M16,14h1M18,14h1M22,14h1M24,14h1M26,14h1M5,15h1M7,15h1M11,15h1M13,15h1M15,15h1M17,15h1M19,15h1M23,15h1M27,15h1M4,16h1M8,16h1M12,16h1M14,16h1M16,16h1M18,16h1M20,16h1M24,16h1M26,16h1M5,17h1M7,17h1M9,17h1M13,17h1M15,17h1M17,17h1M19,17h1M21,17h1M27,17h1M4,18h3M8,18h1M11,18h1M13,18h6M20,18h1M23,18h1M25,18h3M5,19h2M8,19h1M10,19h2M14,19h4M20,19h2M23,19h1M25,19h2M5,20h3M12,20h2M15,20h2M18,20h2M24,20h3M6,21h3M10,21h1M12,21h1M14,21h1M17,21h1M19,21h1M21,21h1M23,21h3M6,22h3M14,22h1M17,22h1M23,22h3M7,23h4M12,23h2M15,23h2M18,23h2M21,23h4M8,24h4M14,24h4M20,24h4M9,25h5M18,25h5M11,26h10M13,27h6"/><path stroke="#c7abaf" d="M6,14h1M8,14h1M20,14h1M9,15h1M21,15h1M25,15h1M6,16h1M10,16h1M22,16h1M11,17h1M23,17h1M25,17h1M7,18h1M9,18h2M12,18h1M19,18h1M21,18h2M24,18h1M7,19h1M9,19h1M12,19h2M18,19h2M22,19h1M24,19h1M8,20h4M14,20h1M17,20h1M20,20h4M9,21h1M11,21h1M13,21h1M15,21h2M18,21h1M20,21h1M22,21h1M9,22h5M15,22h2M18,22h5M11,23h1M14,23h1M17,23h1M20,23h1M12,24h2M18,24h2M14,25h4"/></svg>
