<svg xmlns="http://www.w3.org/2000/svg" shape-rendering="crispEdges" viewBox="0 -0.5 32 32" width="32" height="32"><path stroke="#f5f5f5" d="M8,2h16M7,3h1M24,3h1M7,4h1M24,4h1M6,5h1M25,5h1M6,6h1M25,6h1M5,7h1M26,7h1M5,8h1M26,8h1M4,9h1M27,9h1M4,10h1M27,10h1M3,11h1M10,11h2M28,11h1M3,12h1M10,12h2M28,12h1M2,13h1M9,13h4M29,13h1M2,14h1M9,14h1M11,14h1M29,14h1M1,15h1M8,15h1M10,15h1M12,15h1M30,15h1M1,16h1M9,16h1M11,16h1M13,16h1M30,16h1M2,17h1M10,17h1M12,17h1M29,17h1M2,18h1M29,18h1M3,19h1M28,19h1M3,20h1M28,20h1M4,21h1M27,21h1M4,22h1M27,22h1M5,23h1M26,23h1M5,24h1M26,24h1M6,25h1M25,25h1M6,26h1M25,26h1M7,27h1M24,27h1M7,28h1M24,28h1M8,29h16"/><path stroke="#ffc49a" d="M8,3h9M8,4h9M9,5h9M9,6h9M10,7h9M10,8h9M11,9h9M11,10h9M12,11h9M12,12h9M13,13h9M13,14h1M15,14h1M17,14h1M19,14h1M21,14h1M14,15h1M16,15h1M18,15h1M20,15h1M22,15h1M15,16h1M17,16h1M19,16h1M21,16h1M14,17h1M16,17h1M18,17h1M20,17h1"/><path stroke="#f38434" d="M17,3h7M17,4h7M7,5h2M18,5h7M7,6h2M18,6h7M6,7h4M19,7h7M6,8h4M19,8h7M5,9h6M20,9h7M5,10h6M20,10h7M4,11h6M21,11h7M4,12h6M21,12h7M3,13h6M22,13h7M3,14h1M5,14h1M7,14h1M23,14h1M25,14h1M27,14h1M2,15h1M4,15h1M6,15h1M24,15h1M26,15h1M28,15h1M3,16h1M5,16h1M7,16h1M23,16h1M25,16h1M27,16h1M29,16h1M4,17h1M6,17h1M8,17h1M22,17h1M24,17h1M26,17h1M28,17h1"/><path stroke="#d66e2c" d="M4,14h1M6,14h1M8,14h1M22,14h1M24,14h1M26,14h1M28,14h1M3,15h1M5,15h1M7,15h1M23,15h1M25,15h1M27,15h1M29,15h1M2,16h1M4,16h1M6,16h1M24,16h1M26,16h1M28,16h1M3,17h1M5,17h1M7,17h1M23,17h1M25,17h1M27,17h1M3,18h6M22,18h7M4,19h6M21,19h7M4,20h6M21,20h7M5,21h6M20,21h7M5,22h6M20,22h7M6,23h4M19,23h7M6,24h4M19,24h7M7,25h2M18,25h7M7,26h2M18,26h7M17,27h7M17,28h7"/><path stroke="#d8ccd0" d="M10,14h1M12,14h1M9,15h1M11,15h1M13,15h1M8,16h1M10,16h1M12,16h1M9,17h1M11,17h1M9,18h4M10,19h2M10,20h2"/><path stroke="#e0a383" d="M14,14h1M16,14h1M18,14h1M20,14h1M15,15h1M17,15h1M19,15h1M21,15h1M14,16h1M16,16h1M18,16h1M20,16h1M22,16h1M13,17h1M15,17h1M17,17h1M19,17h1M21,17h1M13,18h9M12,19h9M12,20h9M11,21h9M11,22h9M10,23h9M10,24h9M9,25h9M9,26h9M8,27h9M8,28h9"/></svg>
