<svg xmlns="http://www.w3.org/2000/svg" shape-rendering="crispEdges" viewBox="0 -0.5 32 32" width="32" height="32"><path stroke="#f5f5f5" d="M6,1h2M5,2h1M8,2h2M24,2h2M4,3h1M10,3h2M23,3h1M26,3h2M3,4h1M12,4h2M22,4h1M28,4h1M3,5h1M14,5h2M21,5h1M29,5h1M2,6h1M16,6h2M20,6h1M30,6h1M3,7h1M18,7h2M30,7h1M4,8h1M30,8h1M5,9h1M29,9h1M6,10h2M28,10h1M8,11h2M27,11h1M10,12h2M26,12h1M12,13h2M25,13h1M11,14h4M24,14h1M9,15h2M14,15h3M23,15h1M8,16h1M15,16h3M21,16h2M7,17h1M17,17h4M6,18h1M18,18h2M5,19h1M20,19h2M4,20h1M22,20h2M3,21h1M24,21h2M2,22h1M26,22h1M1,23h1M27,23h1M1,24h1M12,24h2M28,24h1M1,25h1M11,25h1M14,25h2M29,25h1M2,26h1M10,26h1M16,26h2M28,26h1M3,27h1M9,27h1M18,27h2M28,27h1M4,28h2M8,28h1M20,28h2M27,28h1M6,29h2M22,29h2M26,29h1M24,30h2"/><path stroke="#0146b3" d="M6,2h2M5,3h5M4,4h8M4,5h7M12,5h1M3,6h7M11,6h1M13,6h1M15,6h1M4,7h5M10,7h1M12,7h1M14,7h1M5,8h3M9,8h1M11,8h1M13,8h1M6,9h1M8,9h1M10,9h1M12,9h1M9,10h1M11,10h1M10,11h1M21,20h1M20,21h1M22,21h1M19,22h1M21,22h1M23,22h1M25,22h1M18,23h1M20,23h1M22,23h1M24,23h3M17,24h1M19,24h1M21,24h1M23,24h5M16,25h1M18,25h1M20,25h1M22,25h7M19,26h1M21,26h7M20,27h8M22,28h5M24,29h2"/><path stroke="#0052cc" d="M24,3h2M23,4h5M11,5h1M13,5h1M22,5h7M10,6h1M12,6h1M14,6h1M21,6h9M9,7h1M11,7h1M13,7h1M15,7h3M20,7h10M8,8h1M10,8h1M12,8h1M14,8h16M7,9h1M9,9h1M11,9h1M13,9h16M8,10h1M10,10h1M12,10h16M11,11h16M12,12h14M14,13h11M15,14h9M11,15h3M17,15h6M9,16h6M18,16h3M8,17h9M7,18h11M6,19h14M5,20h16M4,21h16M21,21h1M23,21h1M3,22h16M20,22h1M22,22h1M24,22h1M2,23h16M19,23h1M21,23h1M23,23h1M2,24h10M14,24h3M18,24h1M20,24h1M22,24h1M2,25h9M17,25h1M19,25h1M21,25h1M3,26h7M18,26h1M20,26h1M4,27h5M6,28h2"/></svg>
