<svg xmlns="http://www.w3.org/2000/svg" shape-rendering="crispEdges" viewBox="0 -0.5 32 32" width="32" height="32"><path stroke="#f5f5f5" d="M6,5h3M14,5h3M19,5h5M5,6h1M9,6h1M13,6h1M17,6h2M24,6h1M4,7h1M10,7h1M14,7h1M20,7h4M25,7h1M3,8h1M11,8h1M14,8h1M17,8h8M26,8h1M3,9h1M11,9h1M14,9h1M17,9h1M25,9h1M27,9h1M3,10h1M11,10h1M14,10h1M17,10h1M27,10h1M3,11h1M11,11h1M13,11h1M16,11h1M27,11h1M3,12h1M11,12h1M13,12h1M16,12h2M27,12h1M3,13h1M12,13h2M15,13h1M26,13h1M3,14h1M12,14h2M15,14h1M22,14h2M25,14h1M3,15h1M12,15h1M15,15h1M22,15h1M25,15h1M4,16h1M12,16h1M14,16h1M24,16h1M4,17h1M12,17h1M14,17h1M25,17h1M4,18h1M12,18h1M25,18h1M4,19h1M12,19h1M25,19h1M5,20h1M12,20h1M25,20h1M5,21h1M26,21h1M6,22h1M26,22h1M6,23h1M26,23h1M7,24h1M26,24h1M8,25h1M25,25h1M9,26h1M26,26h1M10,27h2M27,27h1M12,28h12M26,28h1M24,29h2"/><path stroke="#382b28" d="M6,6h3M14,6h3M19,6h5M5,7h5M15,7h5M24,7h1M4,8h7M15,8h2M25,8h1M4,9h7M15,9h2M18,9h1M22,9h3M26,9h1M4,10h7M15,10h2M18,10h1M21,10h3M26,10h1M4,11h7M14,11h2M22,11h1M26,11h1M4,12h7M14,12h2M19,12h1M25,12h2M5,13h7M14,13h1M20,13h6M5,14h7M14,14h1M20,14h2M24,14h1M4,15h1M6,15h6M13,15h2M20,15h2M23,15h2M5,16h1M7,16h5M13,16h1M19,16h5M6,17h1M8,17h1M10,17h1M20,17h1M22,17h1M24,17h1M7,18h1M9,18h1M11,18h1M13,18h1M15,18h1M19,18h1M21,18h1M23,18h1"/><path stroke="#866c55" d="M19,9h3M19,10h2M24,10h2M17,11h5M23,11h3M18,12h1M20,12h5M16,13h4M16,14h4M16,15h4M15,16h4M16,17h1M18,17h1M17,18h1"/><path stroke="#312422" d="M4,13h1M4,14h1M5,15h1M6,16h1M5,17h1M7,17h1M9,17h1M11,17h1M13,17h1M19,17h1M21,17h1M23,17h1M5,18h2M8,18h1M10,18h1M18,18h1M20,18h1M22,18h1M24,18h1M5,19h7M13,19h1M15,19h1M18,19h7M6,20h6M13,20h1M15,20h1M19,20h6M6,21h8M15,21h2M19,21h7M7,22h7M15,22h3M19,22h7M7,23h7M15,23h4M20,23h6M8,24h6M15,24h11M9,25h5M15,25h10M10,26h16M12,27h15M24,28h2"/><path stroke="#765a48" d="M15,17h1M17,17h1M14,18h1M16,18h1M14,19h1M16,19h2M14,20h1M16,20h3M14,21h1M17,21h2M14,22h1M18,22h1M14,23h1M19,23h1M14,24h1M14,25h1"/></svg>
