<svg xmlns="http://www.w3.org/2000/svg" shape-rendering="crispEdges" viewBox="0 -0.5 32 32" width="32" height="32"><path stroke="#f5f5f5" d="M12,3h7M10,4h2M19,4h3M9,5h1M22,5h2M8,6h1M24,6h1M7,7h1M25,7h1M6,8h1M26,8h1M5,9h1M27,9h1M5,10h1M27,10h1M4,11h1M6,11h23M4,12h1M6,12h23M4,13h1M28,13h1M3,14h1M29,14h1M3,15h1M5,15h25M3,16h1M5,16h25M3,17h1M29,17h1M4,18h1M28,18h1M4,19h1M6,19h23M4,20h1M6,20h23M5,21h1M27,21h1M5,22h1M27,22h1M6,23h1M26,23h1M7,24h1M25,24h1M8,25h1M24,25h1M9,26h1M22,26h2M10,27h2M19,27h3M12,28h7"/><path stroke="#f09e2a" d="M12,4h3M10,5h2M9,6h1M8,7h1M7,8h1M6,9h1M6,10h1M5,11h1M5,12h1M5,13h1M4,14h1M4,15h1"/><path stroke="#2f205b" d="M15,4h4M12,5h10M10,6h14M9,7h16M8,8h18M7,9h20M7,10h20M6,13h22M5,14h24"/><path stroke="#d38324" d="M4,16h1M4,17h1M5,18h1M5,19h1M5,20h1M6,21h1M6,22h1M7,23h1M8,24h1M9,25h1M10,26h2M12,27h3"/><path stroke="#291b4d" d="M5,17h24M6,18h22M7,21h20M7,22h20M8,23h18M9,24h16M10,25h14M12,26h10M15,27h4"/></svg>
