<svg xmlns="http://www.w3.org/2000/svg" shape-rendering="crispEdges" viewBox="0 -0.5 32 32" width="32" height="32"><path stroke="#f5f5f5" d="M12,4h8M10,5h2M20,5h2M8,6h2M22,6h2M7,7h1M24,7h1M6,8h1M9,8h2M21,8h2M25,8h1M6,9h1M9,9h3M13,9h6M20,9h3M25,9h1M5,10h1M10,10h12M26,10h1M5,11h1M10,11h12M26,11h1M4,12h1M9,12h14M27,12h1M4,13h1M9,13h14M27,13h1M4,14h1M10,14h1M12,14h1M14,14h1M16,14h1M18,14h1M20,14h1M22,14h1M27,14h1M4,15h1M9,15h1M11,15h1M13,15h1M15,15h1M17,15h1M19,15h1M21,15h1M27,15h1M4,16h1M10,16h1M12,16h1M14,16h1M16,16h1M18,16h1M20,16h1M22,16h1M27,16h1M4,17h1M11,17h1M13,17h1M15,17h1M17,17h1M19,17h1M21,17h1M27,17h1M4,18h1M27,18h1M4,19h1M27,19h1M5,20h1M26,20h1M5,21h1M26,21h1M6,22h1M25,22h1M6,23h1M25,23h1M7,24h1M24,24h1M8,25h2M22,25h2M10,26h2M20,26h2M12,27h8"/><path stroke="#323232" d="M12,5h8M10,6h12M8,7h16M7,8h2M11,8h10M23,8h2M7,9h2M12,9h1M19,9h1M23,9h2M6,10h4M22,10h4M6,11h4M22,11h4M5,12h4M23,12h4M5,13h4M23,13h4M6,14h1M8,14h1M24,14h1M26,14h1M5,15h1M7,15h1M23,15h1M25,15h1M6,16h1M8,16h1M24,16h1M26,16h1M5,17h1M7,17h1M9,17h1M23,17h1M25,17h1"/><path stroke="#2c2a2a" d="M5,14h1M7,14h1M23,14h1M25,14h1M6,15h1M8,15h1M24,15h1M26,15h1M5,16h1M7,16h1M23,16h1M25,16h1M6,17h1M8,17h1M22,17h1M24,17h1M26,17h1M5,18h6M21,18h6M5,19h2M8,19h5M19,19h8M6,20h2M10,20h4M18,20h8M6,21h3M11,21h2M19,21h7M7,22h3M19,22h6M7,23h4M19,23h6M8,24h5M19,24h5M10,25h3M19,25h3M12,26h1M19,26h1"/><path stroke="#d8ccd0" d="M9,14h1M11,14h1M13,14h1M15,14h1M17,14h1M19,14h1M21,14h1M10,15h1M12,15h1M14,15h1M16,15h1M18,15h1M20,15h1M22,15h1M9,16h1M11,16h1M13,16h1M15,16h1M17,16h1M19,16h1M21,16h1M10,17h1M12,17h1M14,17h1M16,17h1M18,17h1M20,17h1M11,18h10M7,19h1M13,19h6M8,20h2M14,20h4M9,21h2M13,21h6M10,22h9M11,23h8M13,24h6M13,25h6M13,26h6"/></svg>
