<svg xmlns="http://www.w3.org/2000/svg" shape-rendering="crispEdges" viewBox="0 -0.5 32 32" width="32" height="32"><path stroke="#f5f5f5" d="M15,4h12M14,5h1M27,5h1M15,6h1M27,6h1M16,7h1M27,7h1M17,8h1M27,8h1M18,9h5M27,9h1M9,10h12M22,10h1M27,10h1M8,11h1M21,11h2M27,11h1M9,12h1M21,12h2M27,12h1M10,13h1M21,13h2M27,13h1M11,14h1M21,14h1M23,14h1M27,14h1M12,15h5M21,15h1M24,15h1M27,15h1M3,16h12M16,16h1M21,16h1M25,16h1M27,16h1M2,17h1M15,17h2M21,17h1M26,17h1M3,18h1M15,18h2M21,18h1M4,19h1M15,19h2M21,19h1M5,20h1M15,20h1M17,20h1M21,20h1M6,21h5M15,21h1M18,21h1M21,21h1M10,22h1M15,22h1M19,22h1M21,22h1M10,23h1M15,23h1M20,23h1M10,24h1M15,24h1M10,25h1M15,25h1M11,26h1M15,26h1M12,27h1M15,27h1M13,28h1M15,28h1M14,29h1"/><path stroke="#0052cc" d="M15,5h6M22,5h1M16,6h6M23,6h1M17,7h6M24,7h1M18,8h6M25,8h1M23,9h2M26,9h1M23,10h3M9,11h6M16,11h1M23,11h4M10,12h6M17,12h1M23,12h4M11,13h6M18,13h1M23,13h4M12,14h6M19,14h1M24,14h3M17,15h2M20,15h1M25,15h2M17,16h3M26,16h1M3,17h6M10,17h1M17,17h4M4,18h6M11,18h1M17,18h4M5,19h6M12,19h1M17,19h4M6,20h6M13,20h1M18,20h3M11,21h2M14,21h1M19,21h2M11,22h3M20,22h1M11,23h4M11,24h4M11,25h4M12,26h3M13,27h2M14,28h1"/><path stroke="#0146b3" d="M21,5h1M23,5h4M22,6h1M24,6h3M23,7h1M25,7h2M24,8h1M26,8h1M25,9h1M26,10h1M15,11h1M17,11h4M16,12h1M18,12h3M17,13h1M19,13h2M18,14h1M20,14h1M19,15h1M20,16h1M9,17h1M11,17h4M10,18h1M12,18h3M11,19h1M13,19h2M12,20h1M14,20h1M13,21h1M14,22h1"/></svg>
