<svg xmlns="http://www.w3.org/2000/svg" shape-rendering="crispEdges" viewBox="0 -0.5 32 32" width="32" height="32"><path stroke="#f5f5f5" d="M24,4h1M6,5h2M13,5h6M23,5h1M25,5h1M5,6h1M8,6h1M11,6h2M19,6h2M22,6h1M26,6h1M5,7h1M8,7h1M10,7h1M21,7h3M25,7h1M6,8h4M22,8h3M8,9h1M11,9h10M23,9h1M7,10h1M10,10h1M21,10h1M24,10h1M7,11h1M9,11h1M22,11h1M24,11h1M6,12h1M8,12h1M23,12h1M25,12h1M6,13h1M8,13h1M23,13h1M25,13h1M7,14h1M24,14h1M7,17h1M24,17h1M6,18h1M8,18h1M23,18h1M25,18h1M6,19h1M8,19h1M23,19h1M25,19h1M7,20h1M9,20h1M22,20h1M24,20h1M7,21h1M10,21h1M21,21h1M24,21h1M8,22h1M11,22h10M23,22h1M9,23h1M22,23h1M6,24h2M10,24h1M21,24h1M5,25h1M8,25h1M11,25h2M19,25h2M4,26h1M9,26h1M13,26h6M4,27h1M9,27h1M5,28h1M8,28h1M6,29h2"/><path stroke="#545454" d="M24,5h1M6,6h2M23,6h3M6,25h2M5,26h1M7,26h1M6,27h1M8,27h1"/><path stroke="#d87827" d="M13,6h6M11,7h10M10,8h12M9,9h2M21,9h2M8,10h2M22,10h2M8,11h1M23,11h1M7,12h1M24,12h1M7,13h1M24,13h1"/><path stroke="#4a4647" d="M6,7h2M24,7h1M6,26h1M8,26h1M5,27h1M7,27h1M6,28h2"/><path stroke="#be6421" d="M7,18h1M24,18h1M7,19h1M24,19h1M8,20h1M23,20h1M8,21h2M22,21h2M9,22h2M21,22h2M10,23h12M11,24h10M13,25h6"/></svg>
