<svg xmlns="http://www.w3.org/2000/svg" shape-rendering="crispEdges" viewBox="0 -0.5 32 32" width="32" height="32"><path stroke="#f5f5f5" d="M21,2h1M20,3h1M22,3h1M19,4h1M22,4h1M18,5h1M22,5h1M17,6h1M22,6h1M16,7h1M23,7h1M15,8h1M23,8h1M14,9h1M23,9h1M13,10h1M23,10h1M12,11h1M24,11h1M10,12h2M24,12h1M8,13h2M24,13h1M6,14h2M25,14h1M4,15h2M25,15h1M2,16h2M25,16h1M1,17h1M26,17h1M2,18h1M26,18h1M3,19h1M26,19h1M4,20h1M27,20h1M5,21h1M27,21h1M6,22h1M27,22h1M7,23h1M9,23h3M20,23h3M28,23h1M8,24h1M12,24h1M18,24h2M23,24h2M28,24h1M12,25h1M17,25h1M25,25h1M28,25h1M13,26h1M16,26h1M26,26h1M29,26h1M13,27h1M15,27h1M27,27h1M29,27h1M13,28h1M15,28h1M27,28h1M29,28h1M14,29h1M28,29h1"/><path stroke="#ffa239" d="M21,3h1M21,5h1M20,6h1M19,7h1M21,7h2M20,8h1M22,8h1M19,9h1M21,9h2M18,10h1M20,10h3M17,11h1M19,11h1M21,11h3M18,12h1M20,12h4M17,13h1M19,13h5M16,14h1M18,14h7M15,15h1M17,15h8M14,16h1M16,16h9M13,17h1M15,17h11M12,18h1M14,18h12M11,19h1M13,19h13M10,20h1M12,20h15M9,21h1M11,21h16M8,22h1M10,22h17M12,23h8M23,23h5M13,24h5M25,24h3M13,25h4M26,25h2M14,26h2M27,26h2M14,27h1M28,27h1M14,28h1M28,28h1"/><path stroke="#499e9c" d="M20,4h1M19,5h1M19,6h1M18,7h1M17,8h2M16,9h2M15,10h1M17,10h1M14,11h1M16,11h1M13,12h1M15,12h2M10,13h1M12,13h1M14,13h2M9,14h1M11,14h1M13,14h1M15,14h1M6,15h1M8,15h1M10,15h1M12,15h1M14,15h1M5,16h1M7,16h1M9,16h1M11,16h1M13,16h1M2,17h1M4,17h1M6,17h1M8,17h1M10,17h1M12,17h1M3,18h1M5,18h1M7,18h1M9,18h1M11,18h1M4,19h1M6,19h1M8,19h1M10,19h1M5,20h1M7,20h1M9,20h1M6,21h1M8,21h1M7,22h1"/><path stroke="#e08730" d="M21,4h1M20,5h1M21,6h1M20,7h1M19,8h1M21,8h1M18,9h1M20,9h1M19,10h1M18,11h1M20,11h1M17,12h1M19,12h1M16,13h1M18,13h1M17,14h1M16,15h1M15,16h1M14,17h1M13,18h1M12,19h1M11,20h1M10,21h1M9,22h1M8,23h1"/><path stroke="#53beb7" d="M18,6h1M17,7h1M16,8h1M15,9h1M14,10h1M16,10h1M13,11h1M15,11h1M12,12h1M14,12h1M11,13h1M13,13h1M8,14h1M10,14h1M12,14h1M14,14h1M7,15h1M9,15h1M11,15h1M13,15h1M4,16h1M6,16h1M8,16h1M10,16h1M12,16h1M3,17h1M5,17h1M7,17h1M9,17h1M11,17h1M4,18h1M6,18h1M8,18h1M10,18h1M5,19h1M7,19h1M9,19h1M6,20h1M8,20h1M7,21h1"/></svg>
