<svg xmlns="http://www.w3.org/2000/svg" shape-rendering="crispEdges" viewBox="0 -0.5 32 32" width="32" height="32"><path stroke="#f5f5f5" d="M15,1h2M13,2h2M17,2h2M11,3h2M19,3h2M9,4h2M21,4h2M7,5h2M23,5h2M5,6h2M25,6h2M3,7h2M27,7h2M2,8h1M29,8h1M2,9h1M29,9h1M2,10h1M29,10h1M2,11h1M29,11h1M2,12h1M29,12h1M2,13h1M29,13h1M2,14h1M29,14h1M2,15h1M29,15h1M2,16h1M29,16h1M2,17h1M29,17h1M2,18h1M29,18h1M2,19h1M29,19h1M2,20h1M29,20h1M2,21h1M29,21h1M2,22h1M29,22h1M2,23h1M29,23h1M3,24h2M27,24h2M5,25h2M25,25h2M7,26h2M23,26h2M9,27h2M21,27h2M11,28h2M19,28h2M13,29h2M17,29h2M15,30h2"/><path stroke="#698d2d" d="M15,2h1M13,3h3M11,4h5M9,5h7M7,6h9M5,7h11M4,8h12M5,9h10M7,10h6M8,11h3"/><path stroke="#9ce322" d="M16,2h1M16,3h3M16,4h5M16,5h7M16,6h9M16,7h11M16,8h12M17,9h10M19,10h6M21,11h3"/><path stroke="#9c1136" d="M3,8h1M3,9h2M3,10h4M3,11h5M3,12h6M3,13h5M3,14h5M3,15h5M3,16h5M3,17h5M3,18h5M3,19h5M3,20h5M3,21h4M3,22h2M3,23h1"/><path stroke="#0b4390" d="M28,8h1M27,9h2M25,10h4M24,11h5M23,12h6M24,13h5M24,14h5M24,15h5M24,16h5M24,17h5M24,18h5M24,19h5M24,20h5M25,21h4M27,22h2M28,23h1"/><path stroke="#e5f5cb" d="M15,9h2M13,10h6M11,11h10M9,12h14M11,13h10M13,14h6M15,15h2"/><path stroke="#890e2e" d="M8,13h1M8,14h1M8,15h1M8,16h1M8,17h1M8,18h1M8,19h1M8,20h1"/><path stroke="#ffdae4" d="M9,13h2M9,14h4M9,15h6M10,16h1M12,16h4M11,17h1M13,17h1M15,17h1M14,18h1M15,19h1"/><path stroke="#b7d2f7" d="M21,13h2M19,14h4M17,15h6M16,16h3M20,16h1M22,16h1M17,17h1M19,17h1M16,18h1M18,18h1"/><path stroke="#0a387a" d="M23,13h1M23,14h1M23,15h1M23,16h1M23,17h1M23,18h1M23,19h1M23,20h1"/><path stroke="#e0b6c2" d="M9,16h1M11,16h1M9,17h2M12,17h1M14,17h1M9,18h5M15,18h1M9,19h6M9,20h7M11,21h5M13,22h3M15,23h1"/><path stroke="#a1afd2" d="M19,16h1M21,16h1M16,17h1M18,17h1M20,17h3M17,18h1M19,18h4M16,19h7M16,20h7M16,21h5M16,22h3M16,23h1"/><path stroke="#dc1349" d="M7,21h2M5,22h6M4,23h9M5,24h10M7,25h9M9,26h7M11,27h5M13,28h3M15,29h1"/><path stroke="#c2103e" d="M9,21h2M11,22h2M13,23h2M15,24h1"/><path stroke="#1156bb" d="M21,21h2M19,22h2M17,23h2M16,24h1"/><path stroke="#1367dc" d="M23,21h2M21,22h6M19,23h9M17,24h10M16,25h9M16,26h7M16,27h5M16,28h3M16,29h1"/></svg>
