<svg xmlns="http://www.w3.org/2000/svg" shape-rendering="crispEdges" viewBox="0 -0.5 32 32" width="32" height="32"><path stroke="#f5f5f5" d="M20,3h5M18,4h2M25,4h3M17,5h1M28,5h1M16,6h1M25,6h4M15,7h1M23,7h2M29,7h1M14,8h1M21,8h3M27,8h2M14,9h1M19,9h2M26,9h1M13,10h1M18,10h2M25,10h1M13,11h1M17,11h1M24,11h1M12,12h1M16,12h4M23,12h1M11,13h1M15,13h2M19,13h4M10,14h1M14,14h2M21,14h1M9,15h1M13,15h2M22,15h1M8,16h1M12,16h2M18,16h2M23,16h1M8,17h1M11,17h10M23,17h1M7,18h1M10,18h12M24,18h1M7,19h1M10,19h12M24,19h1M7,20h1M10,20h12M24,20h1M7,21h1M10,21h12M24,21h1M7,22h1M10,22h12M24,22h1M7,23h1M10,23h12M24,23h1M8,24h1M11,24h10M23,24h1M8,25h1M12,25h8M23,25h1M9,26h1M13,26h6M22,26h1M10,27h1M21,27h1M11,28h2M19,28h2M13,29h6"/><path stroke="#288f2a" d="M20,4h5M18,5h10M17,6h8M16,7h7M25,7h4M15,8h6M24,8h3M15,9h4M21,9h5M14,10h4M20,10h5M14,11h3M18,11h6M13,12h3M20,12h3M12,13h3M17,13h2M11,14h3M16,14h5M10,15h3M15,15h7M9,16h3M14,16h4M20,16h3M9,17h2M21,17h2M8,18h2M22,18h2M8,19h1M22,19h1M9,20h1M23,20h1M8,21h1M22,21h1M9,22h1M23,22h1"/><path stroke="#237724" d="M9,19h1M23,19h1M8,20h1M22,20h1M9,21h1M23,21h1M8,22h1M22,22h1M8,23h2M22,23h2M9,24h2M21,24h2M9,25h3M20,25h3M10,26h3M19,26h3M11,27h10M13,28h6"/></svg>
