<svg xmlns="http://www.w3.org/2000/svg" shape-rendering="crispEdges" viewBox="0 -0.5 32 32" width="32" height="32"><path stroke="#f5f5f5" d="M14,1h4M11,2h3M18,2h3M9,3h2M21,3h2M8,4h1M23,4h1M7,5h1M24,5h1M6,6h1M25,6h1M5,7h1M26,7h1M4,8h1M27,8h1M3,9h1M23,9h2M28,9h1M3,10h1M22,10h4M28,10h1M2,11h1M16,11h3M22,11h4M29,11h1M2,12h1M15,12h4M20,12h1M23,12h2M29,12h1M2,13h1M14,13h4M19,13h3M29,13h1M1,14h1M13,14h1M15,14h1M19,14h1M21,14h1M30,14h1M1,15h1M12,15h1M18,15h1M20,15h1M30,15h1M1,16h1M11,16h1M17,16h1M19,16h1M30,16h1M1,17h1M10,17h1M14,17h1M16,17h1M18,17h1M30,17h1M2,18h1M29,18h1M2,19h1M29,19h1M2,20h1M29,20h1M3,21h1M28,21h1M3,22h1M28,22h1M4,23h1M27,23h1M5,24h1M26,24h1M6,25h1M25,25h1M7,26h1M24,26h1M8,27h1M23,27h1M9,28h2M21,28h2M11,29h3M18,29h3M14,30h4"/><path stroke="#ef5b25" d="M14,2h4M11,3h10M9,4h14M8,5h16M7,6h18M6,7h20M5,8h22M4,9h19M25,9h3M4,10h18M26,10h2M3,11h13M19,11h3M26,11h3M3,12h12M19,12h1M21,12h2M25,12h4M3,13h11M18,13h1M22,13h7M3,14h1M5,14h1M7,14h1M9,14h1M11,14h1M17,14h1M23,14h1M25,14h1M27,14h1M29,14h1M2,15h1M4,15h1M6,15h1M8,15h1M10,15h1M14,15h1M16,15h1M22,15h1M24,15h1M26,15h1M28,15h1M3,16h1M5,16h1M7,16h1M9,16h1M13,16h1M15,16h1M21,16h1M23,16h1M25,16h1M27,16h1M29,16h1M2,17h1M4,17h1M6,17h1M8,17h1M12,17h1M20,17h1M22,17h1M24,17h1M26,17h1M28,17h1"/><path stroke="#d24c1f" d="M2,14h1M4,14h1M6,14h1M8,14h1M10,14h1M12,14h1M16,14h1M22,14h1M24,14h1M26,14h1M28,14h1M3,15h1M5,15h1M7,15h1M9,15h1M11,15h1M15,15h1M21,15h1M23,15h1M25,15h1M27,15h1M29,15h1M2,16h1M4,16h1M6,16h1M8,16h1M10,16h1M14,16h1M22,16h1M24,16h1M26,16h1M28,16h1M3,17h1M5,17h1M7,17h1M9,17h1M11,17h1M13,17h1M21,17h1M23,17h1M25,17h1M27,17h1M29,17h1M3,18h10M19,18h10M3,19h9M17,19h12M3,20h7M15,20h14M4,21h5M12,21h16M4,22h4M11,22h17M5,23h2M10,23h17M6,24h20M7,25h18M8,26h16M9,27h14M11,28h10M14,29h4"/><path stroke="#d8ccd0" d="M14,14h1M18,14h1M20,14h1M13,15h1M17,15h1M19,15h1M12,16h1M16,16h1M18,16h1M20,16h1M15,17h1M17,17h1M19,17h1M13,18h6M12,19h5M10,20h5M9,21h3M8,22h3M7,23h3"/></svg>
