<svg xmlns="http://www.w3.org/2000/svg" shape-rendering="crispEdges" viewBox="0 -0.5 32 32" width="32" height="32"><path stroke="#f5f5f5" d="M15,1h2M14,2h1M17,2h1M13,3h1M17,3h1M12,4h1M17,4h1M11,5h1M17,5h1M10,6h1M17,6h1M9,7h1M17,7h1M8,8h1M17,8h1M7,9h1M17,9h1M6,10h1M17,10h1M5,11h1M17,11h1M4,12h1M17,12h1M3,13h1M17,13h12M2,14h1M29,14h1M1,15h1M18,15h1M20,15h1M30,15h1M1,16h1M17,16h1M19,16h1M30,16h1M2,17h1M18,17h1M29,17h1M3,18h12M17,18h1M28,18h1M14,19h1M27,19h1M14,20h1M26,20h1M14,21h1M25,21h1M14,22h1M24,22h1M14,23h1M23,23h1M14,24h1M22,24h1M14,25h1M21,25h1M14,26h1M20,26h1M14,27h1M19,27h1M14,28h1M18,28h1M14,29h1M17,29h1M15,30h2"/><path stroke="#34b27b" d="M15,2h2M14,3h3M13,4h4M12,5h5M11,6h6M10,7h7M9,8h8M8,9h9M7,10h10M6,11h11M5,12h11M4,13h11M16,13h1M3,14h11M15,14h1M17,14h1M19,14h1M21,14h1M2,15h11M14,15h1M16,15h1M2,16h10M13,16h1M15,16h1M3,17h8M12,17h1M14,17h1M16,17h1M28,17h1M15,18h1M16,19h1"/><path stroke="#2e9469" d="M16,12h1M15,13h1M14,14h1M16,14h1M18,14h1M20,14h1M22,14h7M13,15h1M15,15h1M29,15h1M12,16h1M14,16h1M16,16h1M29,16h1M11,17h1M13,17h1M15,17h1M16,18h1M27,18h1M15,19h1M26,19h1M15,20h2M25,20h1M15,21h2M24,21h1M15,22h2M23,22h1M15,23h2M22,23h1M15,24h2M21,24h1M15,25h2M20,25h1M15,26h2M19,26h1M15,27h2M18,27h1M15,28h3M15,29h2"/><path stroke="#d8ccd0" d="M17,15h1M19,15h1M21,15h8M18,16h1M20,16h9M17,17h1M19,17h9M18,18h9M17,19h9M17,20h8M17,21h7M17,22h6M17,23h5M17,24h4M17,25h3M17,26h2M17,27h1"/></svg>
