<svg xmlns="http://www.w3.org/2000/svg" shape-rendering="crispEdges" viewBox="0 -0.5 32 32" width="32" height="32"><path stroke="#f5f5f5" d="M12,1h8M9,2h3M20,2h3M8,3h1M23,3h1M6,4h2M24,4h2M5,5h1M26,5h1M4,6h1M27,6h1M4,7h1M27,7h1M3,8h1M28,8h1M2,9h1M29,9h1M2,10h1M29,10h1M2,11h1M29,11h1M1,12h1M30,12h1M1,13h1M30,13h1M1,14h1M30,14h1M1,15h1M30,15h1M1,16h1M30,16h1M1,17h1M30,17h1M1,18h1M30,18h1M1,19h1M30,19h1M2,20h1M29,20h1M2,21h1M29,21h1M2,22h1M29,22h1M3,23h1M28,23h1M4,24h1M27,24h1M4,25h1M27,25h1M5,26h1M26,26h1M6,27h2M24,27h2M8,28h1M23,28h1M9,29h3M20,29h3M12,30h8"/><path stroke="#141d5e" d="M12,2h8M9,3h3M20,3h3M8,4h1M23,4h1M6,5h2M24,5h2M5,6h2M25,6h2M5,7h1M26,7h1M4,8h1M10,8h2M20,8h2M27,8h1M3,9h1M9,9h3M20,9h3M28,9h1M3,10h1M8,10h3M21,10h3M28,10h1M3,11h1M8,11h2M22,11h2M28,11h1M2,12h1M8,12h2M22,12h2M29,12h1M2,13h1M8,13h2M22,13h2M29,13h1M9,14h1M23,14h1M29,14h1M2,15h1M8,15h1M12,15h1M16,15h1M20,15h1M24,15h1M7,16h1M11,16h1M15,16h1M19,16h1M23,16h1M29,16h1M2,17h1M8,17h1M22,17h1M2,18h1M29,18h1M2,19h1M29,19h1M3,21h1M28,21h1M3,22h1M28,22h1M4,23h1M27,23h1M5,24h1M26,24h1M5,25h2M25,25h2M6,26h2M24,26h2M8,27h1M23,27h1M9,28h2M21,28h2M12,29h2M18,29h2"/><path stroke="#a5fe18" d="M12,3h8M9,4h14M8,5h16M7,6h18M6,7h20M5,8h5M12,8h8M22,8h5M4,9h5M12,9h8M23,9h5M4,10h4M11,10h10M24,10h4M4,11h4M10,11h12M24,11h4M3,12h5M10,12h12M24,12h5M3,13h5M10,13h12M24,13h5M3,14h1M5,14h1M7,14h1M11,14h1M13,14h1M15,14h1M17,14h1M19,14h1M21,14h1M25,14h1M27,14h1M4,15h1M6,15h1M10,15h1M14,15h1M18,15h1M22,15h1M26,15h1M28,15h1M3,16h1M5,16h1M9,16h1M13,16h1M17,16h1M21,16h1M25,16h1M27,16h1M4,17h1M6,17h1M10,17h1M12,17h1M14,17h1M16,17h1M18,17h1M20,17h1M24,17h1M26,17h1M28,17h1"/><path stroke="#121850" d="M2,14h1M8,14h1M22,14h1M7,15h1M11,15h1M15,15h1M19,15h1M23,15h1M29,15h1M2,16h1M8,16h1M12,16h1M16,16h1M20,16h1M24,16h1M9,17h1M23,17h1M29,17h1M8,18h2M22,18h2M8,19h2M22,19h2M3,20h1M8,20h2M22,20h2M28,20h1M8,21h3M21,21h3M9,22h3M20,22h3M10,23h2M20,23h2M11,28h1M20,28h1M14,29h4"/><path stroke="#91d314" d="M4,14h1M6,14h1M10,14h1M12,14h1M14,14h1M16,14h1M18,14h1M20,14h1M24,14h1M26,14h1M28,14h1M3,15h1M5,15h1M9,15h1M13,15h1M17,15h1M21,15h1M25,15h1M27,15h1M4,16h1M6,16h1M10,16h1M14,16h1M18,16h1M22,16h1M26,16h1M28,16h1M3,17h1M5,17h1M7,17h1M11,17h1M13,17h1M15,17h1M17,17h1M19,17h1M21,17h1M25,17h1M27,17h1M3,18h5M10,18h12M24,18h5M3,19h5M10,19h12M24,19h5M4,20h4M10,20h12M24,20h4M4,21h4M11,21h10M24,21h4M4,22h5M12,22h8M23,22h5M5,23h5M12,23h8M22,23h5M6,24h20M7,25h18M8,26h16M9,27h14M12,28h8"/></svg>
