<svg xmlns="http://www.w3.org/2000/svg" shape-rendering="crispEdges" viewBox="0 -0.5 32 32" width="32" height="32"><path stroke="#f5f5f5" d="M20,3h1M19,4h1M21,4h1M18,5h1M22,5h1M17,6h1M23,6h1M16,7h1M24,7h1M15,8h1M25,8h1M14,9h1M26,9h1M6,10h1M13,10h1M18,10h2M27,10h1M5,11h1M7,11h1M12,11h1M17,11h1M19,11h1M27,11h1M4,12h1M8,12h1M11,12h1M16,12h1M19,12h1M27,12h1M4,13h1M9,13h2M15,13h1M19,13h1M27,13h1M4,14h1M14,14h1M19,14h1M27,14h1M4,15h1M7,15h1M13,15h1M19,15h1M27,15h1M4,16h1M7,16h1M13,16h1M19,16h1M27,16h1M4,17h1M14,17h1M19,17h1M27,17h1M4,18h1M9,18h2M15,18h1M19,18h1M27,18h1M4,19h1M8,19h1M11,19h1M16,19h1M19,19h1M27,19h1M5,20h1M7,20h1M12,20h1M17,20h1M19,20h1M27,20h1M6,21h1M13,21h1M18,21h2M27,21h1M14,22h1M26,22h1M15,23h1M25,23h1M16,24h1M24,24h1M17,25h1M23,25h1M18,26h1M22,26h1M19,27h1M21,27h1M20,28h1"/><path stroke="#736caa" d="M20,4h1M20,5h2M20,6h3M20,7h4M20,8h5M20,9h6M20,10h7M20,11h7M20,12h7M20,13h7M20,14h7M20,15h1M22,15h1M24,15h1M26,15h1M21,16h1M23,16h1M25,16h1"/><path stroke="#4a2962" d="M19,5h1M18,6h1M17,7h1M19,7h1M18,8h1M17,9h1M19,9h1M8,16h1M7,17h1M9,17h1M8,18h1"/><path stroke="#543172" d="M19,6h1M18,7h1M16,8h2M19,8h1M15,9h2M18,9h1M14,10h4M13,11h4M12,12h4M11,13h4M11,14h3M12,15h1M8,17h1M6,18h2M5,19h3M6,20h1"/><path stroke="#4f1c4a" d="M6,11h1M5,12h3M6,13h3M7,14h4M8,15h4M9,16h4M10,17h4M11,18h4M12,19h4M13,20h4M14,21h3M15,22h3M19,22h1M16,23h1M18,23h1M17,24h1M19,24h1M18,25h1M19,26h1"/><path stroke="#330e2f" d="M5,13h1M5,14h2M5,15h2M5,16h2M5,17h2M5,18h1"/><path stroke="#665b92" d="M21,15h1M23,15h1M25,15h1M20,16h1M22,16h1M24,16h1M26,16h1M20,17h7M20,18h7M20,19h7M20,20h7M20,21h7M20,22h6M20,23h5M20,24h4M20,25h3M20,26h2M20,27h1"/><path stroke="#461840" d="M17,21h1M18,22h1M17,23h1M19,23h1M18,24h1M19,25h1"/></svg>
