<svg xmlns="http://www.w3.org/2000/svg" shape-rendering="crispEdges" viewBox="0 -0.5 32 32" width="32" height="32"><path stroke="#f5f5f5" d="M14,3h7M13,4h1M20,4h1M3,5h4M12,5h1M20,5h1M25,5h4M2,6h1M7,6h2M12,6h1M20,6h1M23,6h2M29,6h1M1,7h1M9,7h4M20,7h3M30,7h1M1,8h1M19,8h1M30,8h1M1,9h1M30,9h1M2,10h1M29,10h1M2,11h1M29,11h1M3,12h1M28,12h1M4,13h1M27,13h1M4,14h1M27,14h1M5,15h1M26,15h1M6,16h1M25,16h1M6,17h1M25,17h1M7,18h1M24,18h1M8,19h1M23,19h1M8,20h1M23,20h1M9,21h1M22,21h1M10,22h1M21,22h1M10,23h1M21,23h1M11,24h1M20,24h1M12,25h1M19,25h1M12,26h1M19,26h1M13,27h1M18,27h1M14,28h4"/><path stroke="#ffdd80" d="M14,4h6M13,5h7M13,6h7M13,7h7M12,8h7M12,9h5M18,9h1M12,10h2M15,10h1M17,10h1M12,11h1M14,11h1M16,11h1M18,11h1M11,12h1M13,12h1M15,12h1M17,12h1M12,13h1M14,13h1M16,13h1M11,14h1M13,14h1M15,14h1M10,15h1M12,15h1"/><path stroke="#5b98e0" d="M3,6h4M2,7h7M2,8h10M2,9h10M3,10h8M3,11h7M11,11h1M4,12h5M10,12h1M5,13h3M9,13h1M5,14h2M8,14h1M10,14h1M7,15h1M9,15h1M8,16h1M7,17h1"/><path stroke="#8439c8" d="M25,6h2M28,6h1M23,7h3M27,7h1M29,7h1M20,8h5M26,8h1M28,8h1M19,9h5M25,9h1M27,9h1M11,10h1M18,10h3M24,10h1M26,10h1M10,11h1M19,11h1M23,11h1M25,11h1M9,12h1M22,12h1M24,12h1M8,13h1M10,13h1M23,13h1M7,14h1M9,14h1M22,14h1M13,15h1M21,15h1M10,16h1M12,16h1M14,16h1M20,16h1M9,17h1M11,17h1M13,17h1M19,17h1M8,18h1M10,18h1M12,18h1"/><path stroke="#b764ca" d="M27,6h1M26,7h1M28,7h1M25,8h1M27,8h1M29,8h1M24,9h1M26,9h1M28,9h2M23,10h1M25,10h1M27,10h2M24,11h1M26,11h3M23,12h1M25,12h3M22,13h1M24,13h3M21,14h1M23,14h4M23,15h1M25,15h1M22,16h1M24,16h1M21,17h1M23,17h1M20,18h1M22,18h1"/><path stroke="#f3ba44" d="M17,9h1M14,10h1M16,10h1M21,10h2M13,11h1M15,11h1M17,11h1M20,11h3M12,12h1M14,12h1M16,12h1M18,12h4M11,13h1M13,13h1M15,13h1M17,13h5M12,14h1M14,14h1M16,14h5M11,15h1M15,15h5M15,16h5M14,17h5M14,18h5M13,19h1M16,19h2M16,20h1M15,21h2M15,22h2M15,23h1"/><path stroke="#64268c" d="M6,15h1M8,15h1M14,15h1M7,16h1M9,16h1M11,16h1M13,16h1M8,17h1M10,17h1M12,17h1M9,18h1M11,18h1M13,18h1M9,19h4M15,19h1M9,20h4M14,20h1M10,21h2M13,21h1M12,22h1M14,22h1M11,23h1M13,23h1M12,24h1"/><path stroke="#8b438d" d="M20,15h1M22,15h1M24,15h1M21,16h1M23,16h1M20,17h1M22,17h1M24,17h1M19,18h1M21,18h1M23,18h1M14,19h1M18,19h5M13,20h1M15,20h1M17,20h6M12,21h1M14,21h1M17,21h5M11,22h1M13,22h1M17,22h4M12,23h1M14,23h1M16,23h5M13,24h7M13,25h6M13,26h6M14,27h4"/></svg>
